{"glyphs":{"0":{"ha":721,"x_min":0,"x_max":0,"o":"m 626 197 l 626 632 b 604 711 626 658 621 686 b 503 811 588 735 533 794 b 418 836 481 825 447 836 l 264 836 b 178 811 233 836 200 825 b 76 711 149 794 93 735 b 54 632 60 686 54 658 l 54 197 b 76 118 54 171 60 143 b 178 18 93 94 149 35 b 264 -7 200 4 233 -7 l 418 -7 b 503 18 447 -7 481 4 b 604 118 533 35 588 94 b 626 197 621 143 626 171 z m 200 629 b 201 636 200 629 200 633 b 263 696 218 661 246 688 b 269 697 264 697 269 697 l 413 697 b 419 696 414 697 417 697 b 479 636 435 688 463 661 b 481 629 481 635 481 629 l 481 199 b 479 193 481 199 481 196 b 419 133 463 168 435 142 b 413 132 417 132 413 132 l 269 132 b 263 133 268 132 265 132 b 201 193 246 142 218 168 b 200 199 200 194 200 199 z "},"1":{"ha":721,"x_min":0,"x_max":0,"o":"m 447 0 l 447 831 l 136 831 l 136 690 l 301 690 l 301 0 z "},"2":{"ha":721,"x_min":0,"x_max":0,"o":"m 421 696 b 474 650 435 696 461 671 b 475 643 474 650 475 646 l 475 558 b 457 531 475 546 468 536 l 181 388 b 76 239 122 357 76 308 l 76 0 l 611 0 l 611 139 l 222 139 l 222 233 b 244 263 222 242 229 254 l 518 404 b 621 554 572 432 621 483 l 621 643 b 596 728 621 672 613 703 b 519 803 583 746 540 789 b 422 835 493 822 456 835 l 275 835 b 96 719 194 835 133 768 b 67 664 88 708 75 686 l 206 622 b 272 694 218 656 253 683 b 281 696 275 696 281 696 z "},"3":{"ha":721,"x_min":0,"x_max":0,"o":"m 460 186 b 458 179 460 182 458 179 b 407 132 446 158 419 132 l 249 132 b 242 133 247 132 244 132 b 174 204 225 142 193 175 l 32 167 b 67 107 38 151 56 122 b 244 -7 104 58 165 -7 l 408 -7 b 506 24 442 -7 478 4 b 581 100 525 38 568 82 b 606 185 597 125 606 156 l 606 301 b 550 421 606 358 581 390 b 606 539 581 451 606 482 l 606 643 b 581 728 606 672 597 703 b 506 804 568 746 525 790 b 408 835 478 824 442 835 l 244 835 b 67 721 165 835 104 768 b 33 661 56 706 42 679 l 175 622 b 243 693 186 657 226 685 b 249 694 246 694 247 694 l 407 694 b 458 649 419 694 446 669 b 460 642 458 649 460 646 l 460 542 b 458 535 460 542 460 538 b 408 489 447 514 421 489 b 407 489 408 489 408 489 l 231 489 l 231 351 l 407 351 b 408 351 408 351 408 351 b 458 306 421 351 447 326 b 460 299 460 303 460 299 z "},"4":{"ha":721,"x_min":0,"x_max":0,"o":"m 622 165 l 622 304 l 538 304 l 538 831 l 369 831 l 19 290 l 19 165 l 392 165 l 392 0 l 538 0 l 538 165 z m 392 304 l 190 304 l 392 619 z "},"5":{"ha":721,"x_min":0,"x_max":0,"o":"m 610 185 l 610 329 b 585 415 610 360 601 390 b 510 488 572 433 531 474 b 411 521 483 508 446 521 l 228 521 l 228 692 l 569 692 l 569 831 l 82 831 l 82 382 l 410 382 b 418 381 413 382 415 382 b 463 333 433 371 453 351 b 464 326 463 333 464 329 l 464 186 b 463 179 464 182 463 179 b 418 133 453 163 433 143 b 410 132 415 132 413 132 l 263 132 b 253 133 261 132 256 132 b 189 204 236 142 206 172 l 47 167 b 79 107 54 149 68 122 b 258 -7 118 57 179 -7 l 411 -7 b 510 24 444 -7 483 4 b 585 100 531 38 572 82 b 610 185 601 125 610 156 z "},"6":{"ha":721,"x_min":0,"x_max":0,"o":"m 208 654 b 258 696 208 654 244 696 l 401 696 b 410 693 403 696 407 694 b 472 626 426 685 458 656 l 475 621 l 617 660 b 582 721 610 676 593 706 b 406 835 546 768 483 835 l 256 835 b 160 804 222 835 186 824 b 83 728 140 790 96 746 b 58 643 67 703 58 672 l 58 183 b 83 100 58 154 67 125 b 160 24 96 82 140 38 b 256 -7 186 4 222 -7 l 421 -7 b 517 24 454 -7 490 4 b 593 100 536 38 581 82 b 618 185 610 125 618 156 l 618 346 b 593 432 618 376 610 407 b 517 507 581 450 536 493 b 421 536 489 526 454 536 l 285 536 b 204 494 253 536 204 494 l 204 639 b 208 654 204 642 204 650 z m 472 344 l 472 196 b 471 178 472 183 472 181 b 419 132 458 157 432 132 l 258 132 b 206 179 244 132 218 158 b 204 199 206 179 204 181 l 204 336 b 267 396 217 360 267 396 b 289 400 274 401 288 400 l 419 400 b 471 353 432 400 458 375 b 472 344 471 353 472 349 z "},"7":{"ha":721,"x_min":0,"x_max":0,"o":"m 635 717 l 635 831 l 58 831 l 58 692 l 468 692 l 128 0 l 293 0 z "},"8":{"ha":721,"x_min":0,"x_max":0,"o":"m 611 185 l 611 299 b 556 418 611 356 586 388 b 611 536 586 449 611 479 l 611 644 b 586 729 611 674 603 704 b 510 806 574 747 531 792 b 414 836 483 825 447 836 l 253 836 b 156 806 218 836 182 825 b 79 729 136 792 92 747 b 54 644 63 704 54 674 l 54 536 b 111 418 54 479 79 449 b 54 299 79 388 54 356 l 54 185 b 79 100 54 156 63 125 b 156 24 92 82 136 38 b 253 -7 182 4 218 -7 l 268 -7 l 399 -7 l 414 -7 b 510 24 447 -7 483 4 b 586 100 531 38 574 82 b 611 185 603 125 611 156 z m 464 529 b 414 483 453 508 426 483 b 253 483 415 483 411 483 b 201 529 239 483 213 508 b 200 536 201 529 200 533 l 200 644 b 201 651 200 649 201 651 b 254 697 214 672 240 697 l 413 697 b 464 651 425 697 451 672 b 465 644 464 651 465 649 b 465 536 465 610 465 540 b 464 529 465 531 464 529 z m 464 176 b 414 132 453 156 426 132 b 251 132 415 132 410 132 b 201 176 238 132 213 156 b 200 183 201 176 200 181 l 200 294 b 201 301 200 299 201 301 b 253 347 214 322 239 347 l 411 347 b 464 301 424 347 451 322 b 465 294 464 301 465 299 b 465 183 465 261 465 188 b 464 176 465 178 464 176 z "},"9":{"ha":721,"x_min":0,"x_max":0,"o":"m 465 176 b 414 132 453 156 426 132 l 271 132 b 261 135 269 132 264 133 b 199 200 243 143 211 171 l 196 207 l 54 169 b 89 107 61 153 78 122 b 267 -7 126 58 188 -7 l 415 -7 b 511 24 449 -7 485 4 b 588 100 532 38 575 82 b 613 185 604 125 613 156 l 613 644 b 588 728 613 674 604 703 b 511 804 575 746 532 790 b 415 835 485 824 449 835 l 251 835 b 154 804 217 835 181 824 b 78 728 135 790 90 746 b 53 643 61 703 53 672 l 53 481 b 78 396 53 451 61 421 b 154 321 90 378 135 335 b 251 292 182 301 217 292 l 388 292 b 467 335 418 292 467 335 l 467 188 b 465 176 467 185 467 179 z m 467 492 b 407 432 454 468 407 432 b 382 428 400 426 383 428 l 253 428 b 200 475 239 428 213 453 b 199 482 200 475 199 481 l 200 640 b 201 653 200 644 200 650 b 253 696 214 674 239 696 l 414 696 b 465 650 426 696 453 671 b 467 643 465 650 467 647 z "},"Ð":{"ha":810,"x_min":0,"x_max":0,"o":"m 676 201 l 676 626 b 656 706 676 653 672 681 b 554 807 638 729 585 789 b 471 831 531 822 496 831 l 89 831 l 89 481 l -15 481 l -15 350 l 89 350 l 89 0 l 471 0 b 554 25 500 0 531 13 b 657 122 583 42 639 97 b 676 201 672 147 676 176 z m 235 139 l 235 350 l 378 350 l 378 481 l 235 481 l 235 692 l 457 692 b 468 690 458 692 467 692 b 531 629 486 682 514 657 l 531 204 b 471 140 531 188 490 151 b 461 139 468 139 461 139 z "},"ð":{"ha":668,"x_min":0,"x_max":0,"o":"m 508 761 l 453 869 l 324 810 l 181 882 l 119 769 l 200 731 l 247 646 l 311 672 l 393 628 b 422 583 417 615 422 592 l 422 561 b 338 607 415 567 367 607 l 246 607 b 149 578 213 607 176 597 b 74 503 129 564 86 521 b 49 417 57 478 49 447 l 49 179 b 74 94 49 150 57 119 b 149 21 86 76 129 35 b 246 -7 175 1 213 -7 l 365 -7 b 461 24 399 -7 435 4 b 536 94 481 38 524 76 b 561 178 553 119 561 149 l 561 590 b 460 736 561 665 531 696 z m 189 428 b 240 475 201 450 228 475 l 339 475 b 361 471 340 475 354 476 b 424 411 361 471 411 435 l 424 192 b 422 172 424 174 422 172 b 368 125 410 151 382 125 l 242 125 b 189 171 229 125 201 150 b 188 189 188 174 188 176 l 188 419 b 189 428 188 424 189 428 z "},"Ł":{"ha":694,"x_min":0,"x_max":0,"o":"m 388 450 l 326 567 l 235 518 l 235 831 l 89 831 l 89 442 l -36 376 l 25 260 l 89 293 l 89 0 l 601 0 l 601 139 l 235 139 l 235 369 z "},"ł":{"ha":425,"x_min":0,"x_max":0,"o":"m 246 0 b 235 118 240 63 235 92 l 235 369 l 388 450 l 326 567 l 235 518 l 235 831 l 94 831 l 94 444 l -36 376 l 25 260 l 94 296 l 94 103 b 108 0 94 76 104 28 z "},"Ý":{"ha":722,"x_min":0,"x_max":0,"o":"m 669 831 l 507 831 l 322 515 l 138 831 l -24 831 l 249 363 l 249 0 l 394 0 l 394 363 z m 333 878 l 497 1081 l 333 1081 l 206 915 z "},"ý":{"ha":597,"x_min":0,"x_max":0,"o":"m 563 600 l 415 600 l 274 193 l 133 600 l -22 600 l 199 0 l 211 0 l 128 -225 l 268 -225 z m 285 678 l 449 881 l 285 881 l 157 715 z "},"\r":{"ha":694,"x_min":0,"x_max":0,"o":""},"Ž":{"ha":682,"x_min":0,"x_max":0,"o":"m 588 0 l 588 139 l 228 139 l 588 710 l 588 831 l 40 831 l 40 692 l 406 692 l 40 118 l 40 0 z m 361 1067 l 308 988 l 256 1067 l 107 1067 l 243 885 l 374 885 l 510 1067 z "},"ž":{"ha":617,"x_min":0,"x_max":0,"o":"m 526 0 l 526 132 l 235 132 l 513 486 l 513 600 l 38 600 l 38 468 l 325 468 l 49 113 l 49 0 z m 332 867 l 279 788 l 226 867 l 78 867 l 214 685 l 344 685 l 481 867 z "},"½":{"ha":1114,"x_min":0,"x_max":0,"o":"m 818 831 l 663 831 l 213 0 l 368 0 z m 900 306 b 863 272 900 289 872 276 l 743 228 b 639 114 681 208 639 181 l 639 0 l 1006 0 l 1006 113 l 763 113 b 775 133 764 121 760 129 l 892 169 b 1017 294 943 186 1017 235 l 1017 307 b 992 379 1017 336 1011 356 b 861 453 958 421 913 453 l 799 453 b 700 422 768 453 725 440 b 626 357 681 408 646 381 l 715 293 b 792 343 732 310 775 343 l 860 343 b 900 306 881 343 900 322 z m 364 381 l 364 497 l 275 497 l 275 844 l 63 844 l 63 729 l 157 729 l 157 497 l 49 497 l 49 381 z "},"¼":{"ha":1031,"x_min":0,"x_max":0,"o":"m 818 831 l 663 831 l 213 0 l 368 0 z m 933 90 l 933 203 l 868 203 l 868 453 l 768 453 l 529 188 l 529 90 l 750 90 l 750 0 l 868 0 l 868 90 z m 756 201 l 665 201 l 754 297 z m 364 381 l 364 497 l 275 497 l 275 844 l 63 844 l 63 729 l 157 729 l 157 497 l 49 497 l 49 381 z "},"¹":{"ha":461,"x_min":0,"x_max":0,"o":"m 364 381 l 364 497 l 275 497 l 275 844 l 63 844 l 63 729 l 157 729 l 157 497 l 49 497 l 49 381 z "},"¾":{"ha":1067,"x_min":0,"x_max":0,"o":"m 854 831 l 699 831 l 249 0 l 404 0 z m 969 90 l 969 203 l 904 203 l 904 453 l 804 453 l 565 188 l 565 90 l 786 90 l 786 0 l 904 0 l 904 90 z m 792 201 l 701 201 l 790 297 z m 203 657 l 203 556 l 278 556 b 331 528 304 557 331 557 b 304 492 331 511 321 501 b 290 489 299 489 294 489 l 197 489 b 146 525 182 489 163 506 l 49 469 b 107 410 69 440 92 421 b 200 379 133 390 168 379 l 292 379 b 421 438 344 379 389 401 b 447 526 440 467 447 496 b 408 606 447 576 429 593 b 447 686 429 618 447 636 b 421 775 447 715 440 746 b 292 833 389 811 344 833 l 200 833 b 107 803 168 833 133 822 b 49 743 92 790 69 772 l 146 688 b 197 722 163 707 182 722 l 290 722 b 301 721 294 722 299 722 b 331 685 321 711 331 701 b 278 657 331 656 304 656 z "},"³":{"ha":544,"x_min":0,"x_max":0,"o":"m 203 657 l 203 556 l 278 556 b 331 528 304 557 331 557 b 304 492 331 511 321 501 b 290 489 299 489 294 489 l 197 489 b 146 525 182 489 163 506 l 49 469 b 107 410 69 440 92 421 b 200 379 133 390 168 379 l 292 379 b 421 438 344 379 389 401 b 447 526 440 467 447 496 b 408 606 447 576 429 593 b 447 686 429 618 447 636 b 421 775 447 715 440 746 b 292 833 389 811 344 833 l 200 833 b 107 803 168 833 133 822 b 49 743 92 790 69 772 l 146 688 b 197 722 163 707 182 722 l 290 722 b 301 721 294 722 299 722 b 331 685 321 711 331 701 b 278 657 331 656 304 656 z "},"²":{"ha":536,"x_min":0,"x_max":0,"o":"m 322 696 b 285 663 322 679 294 667 l 165 618 b 61 504 103 599 61 571 l 61 390 l 428 390 l 428 503 l 185 503 b 197 524 186 511 182 519 l 314 560 b 439 685 365 576 439 625 l 439 697 b 414 769 439 726 433 746 b 283 843 381 811 335 843 l 221 843 b 122 813 190 843 147 831 b 49 747 103 799 68 771 l 138 683 b 214 733 154 700 197 733 l 282 733 b 322 696 303 733 322 713 z "},"¦":{"ha":268,"x_min":0,"x_max":0,"o":"m 190 474 l 190 926 l 54 926 l 54 474 z m 190 -131 l 190 326 l 54 326 l 54 -131 z "},"−":{"ha":653,"x_min":0,"x_max":0,"o":"m 542 272 l 542 404 l 49 404 l 49 272 z "},"×":{"ha":714,"x_min":0,"x_max":0,"o":"m 169 75 l 339 244 l 507 75 l 599 168 l 432 336 l 600 506 l 506 601 l 336 432 l 168 601 l 76 508 l 243 340 l 75 171 z "}," ":{"ha":326,"x_min":0,"x_max":0,"o":""},"!":{"ha":369,"x_min":0,"x_max":0,"o":"m 215 225 l 215 831 l 76 831 l 76 225 z m 231 -4 l 231 160 l 61 160 l 61 -4 z "},"\"":{"ha":529,"x_min":0,"x_max":0,"o":"m 414 694 l 414 889 l 278 889 l 278 713 l 265 600 l 403 600 z m 207 694 l 207 889 l 71 889 l 71 713 l 58 600 l 196 600 z "},"#":{"ha":742,"x_min":0,"x_max":0,"o":"m 649 568 l 532 568 l 556 694 l 419 694 l 396 568 l 339 568 l 363 694 l 226 694 l 203 568 l 86 568 l 63 436 l 179 436 l 165 361 l 49 361 l 25 231 l 140 231 l 117 99 l 253 99 l 278 231 l 335 231 l 310 99 l 446 99 l 471 231 l 588 231 l 611 361 l 494 361 l 508 436 l 625 436 z m 372 436 l 358 361 l 301 361 l 315 436 z "},"$":{"ha":758,"x_min":0,"x_max":0,"o":"m 675 199 l 675 286 b 567 438 675 349 638 418 l 406 481 l 406 699 l 453 699 b 461 697 460 699 461 697 b 522 633 490 679 522 633 l 663 674 b 635 722 653 694 646 707 b 458 838 599 769 538 838 l 407 838 l 407 929 l 326 929 l 326 838 l 253 838 b 167 813 222 838 189 825 b 64 713 138 796 81 738 b 43 633 47 688 43 657 l 43 554 b 151 403 43 490 81 422 l 325 356 l 324 133 l 251 133 b 242 135 244 133 242 135 b 181 199 208 160 181 199 l 43 153 b 68 110 54 132 57 125 b 244 -6 104 61 167 -6 l 324 -6 l 324 -125 l 404 -125 l 404 -6 l 465 -6 b 551 19 494 -6 529 7 b 653 119 581 36 636 94 b 675 199 671 144 675 175 z m 189 560 l 189 633 b 251 697 189 644 229 686 b 260 699 251 697 254 699 l 325 699 l 325 503 l 204 536 b 189 560 197 538 189 547 z m 513 306 b 529 282 519 304 529 294 l 529 199 b 467 135 529 188 488 146 b 458 133 467 135 464 133 l 404 133 l 406 335 z "},"%":{"ha":1161,"x_min":0,"x_max":0,"o":"m 857 831 l 699 831 l 239 -1 l 399 -1 z m 1043 128 l 1043 306 b 1025 372 1043 328 1040 351 b 974 424 1015 385 989 411 b 896 447 951 438 922 447 l 807 447 b 731 424 781 447 751 438 b 678 372 714 411 688 385 b 660 306 663 351 660 328 l 660 128 b 678 61 660 106 663 82 b 731 10 688 49 714 22 b 807 -14 751 -4 781 -14 l 896 -14 b 974 10 922 -14 951 -4 b 1025 61 989 22 1015 49 b 1043 128 1040 82 1043 106 z m 928 294 l 928 139 b 926 132 928 138 928 133 b 894 101 919 124 906 108 b 888 100 893 100 889 100 l 815 100 b 808 101 814 100 810 100 b 776 132 797 108 783 122 b 775 139 775 135 775 139 l 775 294 b 776 301 775 294 775 299 b 808 332 783 311 797 325 b 815 333 810 333 814 333 l 888 333 b 894 332 889 333 893 333 b 926 301 906 325 919 310 b 928 294 928 300 928 296 z m 432 524 l 432 701 b 414 768 432 724 429 747 b 363 819 404 781 378 807 b 285 843 340 833 311 843 l 196 843 b 119 819 169 843 140 833 b 67 768 103 807 76 781 b 49 701 51 747 49 724 l 49 524 b 67 457 49 501 51 478 b 119 406 76 444 103 418 b 196 382 140 392 169 382 l 285 382 b 363 406 311 382 340 392 b 414 457 378 418 404 444 b 432 524 429 478 432 501 z m 317 690 l 317 535 b 315 528 317 533 317 529 b 283 497 308 519 294 504 b 276 496 282 496 278 496 l 204 496 b 197 497 203 496 199 496 b 165 528 186 504 172 518 b 164 535 164 531 164 535 l 164 690 b 165 697 164 690 164 694 b 197 728 172 707 186 721 b 204 729 199 729 203 729 l 276 729 b 283 728 278 729 282 729 b 315 697 294 721 308 706 b 317 690 317 696 317 692 z "},"&":{"ha":779,"x_min":0,"x_max":0,"o":"m 447 133 l 260 133 b 208 179 247 133 221 158 b 207 186 208 179 207 182 l 207 290 b 208 297 207 290 207 294 b 258 343 219 318 246 343 l 436 343 l 436 481 l 258 481 b 208 526 246 481 219 506 b 207 533 207 529 207 533 l 207 642 b 208 649 207 646 208 649 b 260 696 221 669 247 696 l 390 696 b 397 694 392 696 394 696 b 465 624 414 686 446 653 l 607 661 b 572 721 601 676 583 706 b 394 835 535 769 474 835 l 258 835 b 161 804 225 835 189 824 b 86 728 142 790 99 746 b 61 643 69 703 61 672 l 61 531 b 117 411 61 474 86 442 b 61 293 86 381 61 350 l 61 185 b 86 100 61 156 69 125 b 161 24 99 82 142 38 b 258 -7 189 4 225 -7 l 369 -7 l 369 -6 l 447 -6 b 547 25 481 -6 521 6 b 621 99 567 39 608 81 b 646 182 638 122 646 151 l 646 256 l 685 256 l 685 397 l 504 397 l 504 193 b 503 183 504 186 503 183 b 447 133 490 163 461 133 z "},"'":{"ha":322,"x_min":0,"x_max":0,"o":"m 207 694 l 207 889 l 71 889 l 71 713 l 58 600 l 196 600 z "},"(":{"ha":479,"x_min":0,"x_max":0,"o":"m 371 22 b 193 200 343 44 193 179 l 193 619 b 369 800 193 643 343 774 l 265 899 b 164 801 235 868 199 835 b 72 701 129 768 94 733 b 49 622 56 676 49 649 l 49 197 b 72 117 49 171 56 142 b 172 11 89 93 133 49 b 265 -78 211 -26 247 -60 z "},")":{"ha":492,"x_min":0,"x_max":0,"o":"m 365 197 l 365 622 b 343 701 365 649 360 676 b 251 803 322 732 288 768 b 147 897 215 838 178 869 l 46 799 b 221 619 71 774 221 643 l 221 200 b 44 24 221 179 72 46 l 147 -79 b 243 11 168 -58 204 -25 b 343 117 282 47 326 92 b 365 197 360 142 365 171 z "},"*":{"ha":635,"x_min":0,"x_max":0,"o":"m 346 879 l 225 879 l 228 721 l 81 772 l 42 656 l 193 610 l 100 485 l 199 413 l 289 543 l 379 415 l 478 486 l 382 613 l 531 658 l 494 775 l 343 722 z "},"+":{"ha":714,"x_min":0,"x_max":0,"o":"m 600 272 l 600 403 l 403 403 l 403 599 l 268 599 l 268 403 l 71 403 l 71 272 l 268 272 l 268 79 l 403 79 l 403 272 z "},",":{"ha":376,"x_min":0,"x_max":0,"o":"m 258 104 l 124 146 l 0 -118 l 156 -118 z "},"-":{"ha":443,"x_min":0,"x_max":0,"o":"m 343 272 l 343 403 l 35 403 l 35 272 z "},".":{"ha":371,"x_min":0,"x_max":0,"o":"m 233 0 l 233 175 l 63 175 l 63 0 z "},"/":{"ha":614,"x_min":0,"x_max":0,"o":"m 581 831 l 422 831 l -31 0 l 129 0 z "},":":{"ha":371,"x_min":0,"x_max":0,"o":"m 233 346 l 233 521 l 63 521 l 63 346 z m 233 0 l 233 175 l 63 175 l 63 0 z "},";":{"ha":371,"x_min":0,"x_max":0,"o":"m 247 344 l 247 519 l 76 519 l 76 344 z m 254 104 l 119 146 l -4 -118 l 151 -118 z "},"<":{"ha":1003,"x_min":0,"x_max":0,"o":"m 871 346 l 871 481 l 236 481 l 601 826 l 410 826 l -18 413 l 410 1 l 601 1 l 240 346 z "},"=":{"ha":675,"x_min":0,"x_max":0,"o":"m 558 393 l 558 522 l 40 522 l 40 393 z m 558 185 l 558 313 l 40 313 l 40 185 z "},">":{"ha":1003,"x_min":0,"x_max":0,"o":"m 928 413 l 499 826 l 307 826 l 672 481 l 39 481 l 39 346 l 668 346 l 308 1 l 499 1 z "},"?":{"ha":644,"x_min":0,"x_max":0,"o":"m 600 549 l 600 644 b 575 729 600 674 592 704 b 504 803 563 747 524 789 b 407 835 478 822 440 835 l 242 835 b 65 721 163 835 100 771 b 33 663 53 703 44 686 l 171 622 l 176 632 b 235 692 189 654 218 681 b 246 696 239 694 243 696 l 401 696 b 453 650 415 696 440 671 b 454 643 453 650 454 644 l 454 553 b 436 525 454 540 447 531 b 244 333 354 483 244 447 l 244 226 l 390 226 l 390 328 b 500 400 390 357 478 389 b 600 549 553 426 600 479 z m 401 0 l 401 163 l 233 163 l 233 0 z "},"@":{"ha":890,"x_min":0,"x_max":0,"o":"m 342 -99 l 264 -99 b 257 -97 263 -99 260 -99 b 189 -31 242 -89 206 -56 b 188 -25 188 -29 188 -25 l 188 628 b 189 635 188 628 188 632 b 257 703 206 660 242 694 b 264 704 258 704 264 704 l 551 704 b 558 703 553 704 556 704 b 626 635 574 694 610 660 b 628 628 628 633 628 628 l 628 565 b 546 597 604 582 575 597 l 488 597 b 388 568 453 597 415 588 b 321 500 365 553 332 515 b 296 414 303 475 296 444 l 296 178 b 321 92 296 147 303 118 b 388 24 332 75 367 39 b 488 -7 414 4 453 -7 l 546 -7 b 636 31 579 -7 611 11 l 639 0 l 778 0 l 767 124 l 767 632 b 744 711 767 658 761 686 b 643 811 726 735 672 794 b 557 836 621 825 586 836 l 258 836 b 172 811 228 836 194 825 b 71 711 143 794 88 735 b 49 632 54 686 49 658 l 49 -26 b 71 -106 49 -53 54 -81 b 172 -206 88 -129 143 -189 b 258 -231 194 -219 228 -231 l 363 -231 z m 628 188 b 542 122 610 167 557 122 l 489 122 b 481 125 486 122 483 124 b 436 172 465 135 446 156 b 435 181 436 172 435 175 l 435 411 b 436 418 435 415 436 418 b 481 467 446 435 465 457 b 489 468 482 468 485 468 l 542 468 b 628 404 558 468 610 425 z "},"A":{"ha":763,"x_min":0,"x_max":0,"o":"m 715 0 l 426 831 l 257 831 l -33 0 l 122 0 l 183 176 l 499 176 l 560 0 z m 453 315 l 229 315 l 342 643 z "},"B":{"ha":771,"x_min":0,"x_max":0,"o":"m 649 189 l 649 294 b 594 414 649 353 626 382 b 649 535 626 446 649 476 l 649 638 b 625 724 649 665 643 697 b 551 799 613 742 571 785 b 451 831 524 818 488 831 l 61 831 l 61 0 l 451 0 b 551 31 485 0 524 11 b 625 106 571 44 613 88 b 649 189 642 131 649 160 z m 501 528 b 451 482 492 507 464 482 l 207 482 l 207 692 l 450 692 b 501 643 463 692 489 665 b 503 636 501 643 503 639 l 503 538 b 501 528 503 531 501 528 z m 501 185 b 451 139 492 164 464 139 l 207 139 l 207 347 l 450 347 b 501 300 463 347 489 322 b 503 293 501 300 503 297 l 503 194 b 501 185 503 189 501 185 z "},"C":{"ha":768,"x_min":0,"x_max":0,"o":"m 650 161 l 508 199 b 446 133 508 199 475 147 b 439 132 443 132 440 132 l 281 132 b 271 133 279 132 272 132 b 207 197 250 144 207 181 b 207 619 207 197 207 618 b 208 635 207 622 207 632 b 271 696 222 657 253 686 b 276 697 271 696 274 697 l 440 697 b 446 696 442 697 444 697 b 508 632 467 683 508 632 l 650 672 b 621 721 638 694 632 706 b 444 836 585 768 522 836 l 271 836 b 185 811 240 836 207 824 b 83 711 156 794 100 735 b 61 633 67 686 61 660 l 61 196 b 83 117 61 169 67 142 b 185 18 100 92 156 35 b 271 -7 207 4 240 -7 l 444 -7 b 621 108 522 -7 585 60 b 650 161 632 124 639 136 z "},"D":{"ha":782,"x_min":0,"x_max":0,"o":"m 649 201 l 649 626 b 626 706 649 653 644 681 b 526 807 610 729 557 789 b 442 831 503 822 468 831 l 61 831 l 61 0 l 442 0 b 525 25 471 0 503 13 b 628 122 556 42 611 97 b 649 201 644 147 649 176 z m 207 139 l 207 692 l 428 692 b 440 690 431 692 439 692 b 501 629 457 682 485 657 b 503 622 503 626 503 622 l 503 204 b 442 140 503 188 461 151 b 432 139 440 139 432 139 z "},"E":{"ha":717,"x_min":0,"x_max":0,"o":"m 583 0 l 583 139 l 207 139 l 207 343 l 557 343 l 557 482 l 207 482 l 207 692 l 583 692 l 583 831 l 61 831 l 61 0 z "},"F":{"ha":686,"x_min":0,"x_max":0,"o":"m 582 692 l 582 831 l 61 831 l 61 0 l 207 0 l 207 343 l 557 343 l 557 482 l 207 482 l 207 692 z "},"G":{"ha":831,"x_min":0,"x_max":0,"o":"m 207 632 b 208 638 207 632 207 635 b 271 697 225 664 256 689 b 278 699 271 697 274 699 l 467 699 b 474 697 468 699 472 699 b 539 633 508 675 539 633 l 679 674 b 650 722 672 690 661 707 b 474 838 614 774 556 838 l 271 838 b 185 814 240 838 207 828 b 83 714 156 797 100 738 b 61 635 67 689 61 661 l 61 196 b 83 115 61 169 67 140 b 185 18 100 90 156 35 b 271 -7 207 4 240 -7 l 474 -7 b 560 33 506 -7 540 19 l 567 0 l 710 0 b 683 194 693 103 683 194 l 683 475 l 358 475 l 358 336 l 538 336 l 538 201 b 474 133 538 185 493 144 b 467 132 474 133 471 132 l 278 132 b 271 133 274 132 272 133 b 207 197 251 144 207 181 z "},"H":{"ha":794,"x_min":0,"x_max":0,"o":"m 656 0 l 656 831 l 510 831 l 510 482 l 207 482 l 207 831 l 61 831 l 61 0 l 207 0 l 207 343 l 510 343 l 510 0 z "},"I":{"ha":346,"x_min":0,"x_max":0,"o":"m 207 0 l 207 831 l 61 831 l 61 0 z "},"J":{"ha":656,"x_min":0,"x_max":0,"o":"m 513 196 l 513 831 l 367 831 l 367 197 b 297 132 367 189 307 131 l 203 132 b 192 133 206 132 193 132 b 136 199 175 142 150 168 l -4 161 b 24 108 13 125 19 114 b 201 -7 61 58 121 -7 l 304 -7 b 390 18 333 -7 367 4 b 489 117 419 35 472 93 b 513 196 506 142 513 169 z "},"K":{"ha":749,"x_min":0,"x_max":0,"o":"m 689 0 b 342 417 588 119 447 290 l 688 831 l 508 831 b 221 485 414 718 317 599 l 207 485 l 207 831 l 61 831 l 61 0 l 207 0 l 207 347 l 222 347 l 510 0 z "},"L":{"ha":667,"x_min":0,"x_max":0,"o":"m 575 0 l 575 139 l 207 139 l 207 831 l 61 831 l 61 0 z "},"M":{"ha":918,"x_min":0,"x_max":0,"o":"m 779 0 l 779 831 l 614 831 l 422 421 l 228 831 l 61 831 l 61 0 l 207 0 l 207 567 l 372 204 l 468 204 l 633 568 l 633 0 z "},"N":{"ha":788,"x_min":0,"x_max":0,"o":"m 649 0 l 649 831 l 503 831 l 503 272 l 218 831 l 61 831 l 61 0 l 207 0 l 207 551 l 494 0 z "},"O":{"ha":818,"x_min":0,"x_max":0,"o":"m 693 197 l 693 632 b 671 711 693 658 688 686 b 569 811 653 735 599 794 b 483 836 547 825 513 836 l 272 836 b 186 811 242 836 208 825 b 85 711 157 794 101 735 b 63 632 68 686 63 658 l 63 197 b 85 118 63 171 68 143 b 186 18 101 94 157 35 b 272 -7 208 4 242 -7 l 483 -7 b 569 18 513 -7 547 4 b 671 118 599 35 653 94 b 693 197 688 143 693 171 z m 208 628 b 210 635 208 628 208 632 b 271 696 226 660 256 688 b 278 697 272 697 278 697 l 478 697 b 485 696 479 697 482 697 b 546 635 500 688 529 660 b 547 628 547 633 547 628 l 547 199 b 546 193 547 199 547 196 b 485 133 529 168 500 142 b 478 132 482 132 478 132 l 278 132 b 271 133 276 132 274 132 b 210 193 256 142 226 168 b 208 199 208 194 208 199 z "},"P":{"ha":746,"x_min":0,"x_max":0,"o":"m 650 517 l 650 639 b 625 724 650 668 642 699 b 550 800 613 742 569 786 b 451 831 522 819 485 831 l 61 831 l 61 0 l 207 0 l 207 328 l 451 328 b 550 358 485 328 521 338 b 625 432 569 372 613 414 b 650 517 642 457 650 486 z m 504 518 b 503 513 504 515 503 513 b 451 467 492 493 464 467 l 207 467 l 207 692 l 451 692 b 458 692 454 692 456 692 b 503 647 472 690 494 663 b 504 638 504 644 504 638 z "},"Q":{"ha":824,"x_min":0,"x_max":0,"o":"m 208 632 b 210 638 208 632 208 635 b 271 696 226 663 256 688 b 278 697 272 697 278 697 l 481 697 b 488 696 482 697 485 697 b 546 638 503 688 529 663 b 547 632 547 636 547 632 l 547 203 b 546 197 547 203 547 200 b 488 133 529 172 503 142 b 481 132 485 132 481 132 l 463 132 l 435 197 l 301 153 l 310 132 l 278 132 b 271 133 276 132 274 132 b 210 197 256 142 226 172 b 208 203 208 199 208 203 z m 514 -4 b 569 18 535 -1 549 7 b 671 118 599 35 653 94 b 693 197 688 143 693 171 l 693 632 b 671 711 693 658 688 686 b 569 811 653 735 599 794 b 483 836 547 825 513 836 l 272 836 b 186 811 242 836 208 825 b 85 711 157 794 101 735 b 63 632 68 686 63 658 l 63 197 b 85 118 63 171 68 143 b 186 18 101 94 157 35 b 272 -7 208 4 242 -7 l 364 -7 l 415 -128 l 569 -128 l 515 -7 z "},"R":{"ha":804,"x_min":0,"x_max":0,"o":"m 650 517 l 650 639 b 625 724 650 668 642 699 b 550 800 613 742 569 786 b 451 831 522 819 485 831 l 61 831 l 61 0 l 207 0 l 207 328 l 367 328 l 521 0 l 679 0 l 514 339 b 550 358 526 343 539 350 b 625 432 569 372 613 414 b 650 517 642 457 650 486 z m 504 518 b 503 513 504 515 503 513 b 451 467 492 493 464 467 l 207 467 l 207 692 l 458 692 b 503 647 472 690 494 663 b 504 638 504 644 504 638 z "},"S":{"ha":793,"x_min":0,"x_max":0,"o":"m 675 197 l 675 285 b 567 436 675 347 638 417 l 204 542 b 189 565 197 543 189 553 l 189 635 b 249 696 189 646 226 685 b 257 697 249 696 251 697 l 453 697 b 461 696 460 697 461 696 b 522 632 490 678 522 632 l 663 672 b 635 721 653 693 646 706 b 458 836 599 768 542 836 l 253 836 b 167 811 222 836 189 824 b 64 711 138 794 81 736 b 43 632 47 686 43 656 l 43 557 b 151 406 43 493 81 425 l 513 303 b 529 279 519 301 529 292 l 529 197 b 467 133 529 186 488 144 b 458 132 467 133 464 132 l 231 132 b 221 133 224 132 221 133 b 160 197 188 158 160 197 l 22 151 b 47 108 33 131 36 124 b 224 -7 83 60 142 -7 l 465 -7 b 551 18 494 -7 529 6 b 653 118 581 35 636 93 b 675 197 671 143 675 174 z "},"T":{"ha":700,"x_min":0,"x_max":0,"o":"m 613 692 l 613 831 l 17 831 l 17 692 l 242 692 l 242 0 l 388 0 l 388 692 z "},"U":{"ha":771,"x_min":0,"x_max":0,"o":"m 497 199 b 496 193 497 199 497 196 b 436 133 479 168 451 142 b 429 132 433 132 431 132 l 264 132 b 257 133 264 132 260 132 b 196 193 240 142 213 168 b 194 200 194 194 194 200 l 194 831 l 49 831 l 49 197 b 71 118 49 171 54 143 b 172 18 88 94 143 35 b 258 -7 194 4 228 -7 l 435 -7 b 519 18 464 -7 497 4 b 621 118 550 35 604 94 b 643 197 638 143 643 171 l 643 831 l 497 831 z "},"V":{"ha":726,"x_min":0,"x_max":0,"o":"m 685 831 l 531 831 l 325 188 l 121 831 l -35 831 l 239 0 l 410 0 z "},"W":{"ha":1025,"x_min":0,"x_max":0,"o":"m 975 831 l 821 831 l 697 247 l 560 831 l 404 831 l 267 247 l 142 831 l -8 831 l 182 0 l 349 0 l 483 557 l 617 0 l 782 0 z "},"X":{"ha":739,"x_min":0,"x_max":0,"o":"m 665 831 l 504 831 l 333 554 l 164 831 l 3 831 l 253 425 l -11 0 l 151 0 l 333 296 l 517 0 l 679 0 l 414 425 z "},"Y":{"ha":722,"x_min":0,"x_max":0,"o":"m 669 831 l 507 831 l 322 515 l 138 831 l -24 831 l 249 363 l 249 0 l 394 0 l 394 363 z "},"Z":{"ha":682,"x_min":0,"x_max":0,"o":"m 588 0 l 588 139 l 228 139 l 588 710 l 588 831 l 40 831 l 40 692 l 406 692 l 40 118 l 40 0 z "},"[":{"ha":450,"x_min":0,"x_max":0,"o":"m 335 0 l 335 132 l 207 132 l 207 699 l 335 699 l 335 831 l 61 831 l 61 0 z "},"\\":{"ha":606,"x_min":0,"x_max":0,"o":"m 586 0 l 132 833 l -29 833 l 424 0 z "},"]":{"ha":457,"x_min":0,"x_max":0,"o":"m 318 0 l 318 831 l 44 831 l 44 699 l 172 699 l 172 132 l 44 132 l 44 0 z "},"^":{"ha":479,"x_min":0,"x_max":0,"o":"m -14 390 l 119 390 l 206 657 l 293 390 l 428 390 l 271 833 l 138 833 z "},"_":{"ha":642,"x_min":0,"x_max":0,"o":"m 582 -131 l 582 0 l 42 0 l 42 -131 z "},"`":{"ha":529,"x_min":0,"x_max":0,"o":"m 419 715 l 292 881 l 128 881 l 292 678 z "},"a":{"ha":665,"x_min":0,"x_max":0,"o":"m 406 376 l 214 376 b 114 346 179 376 142 365 b 49 283 93 331 60 299 b 24 199 31 258 24 229 l 24 174 b 49 89 24 143 31 114 b 114 24 60 74 93 39 b 214 -7 142 4 179 -7 l 328 -7 b 414 28 360 -7 389 10 l 421 0 l 558 0 l 544 122 l 544 425 b 521 511 544 453 540 485 b 454 576 510 528 475 561 b 353 607 426 596 388 607 l 233 607 b 133 574 200 607 160 592 b 43 471 111 558 57 504 l 174 432 b 229 475 182 443 213 475 l 351 475 b 360 472 354 475 357 474 b 404 431 376 463 396 444 b 406 424 406 429 406 424 z m 406 181 b 324 125 394 168 339 125 l 215 125 b 207 128 214 125 210 126 b 164 171 190 136 174 154 b 163 175 164 171 163 174 l 163 201 b 164 206 163 203 164 206 b 206 250 174 222 190 240 b 215 253 210 253 211 253 l 406 253 z "},"b":{"ha":681,"x_min":0,"x_max":0,"o":"m 574 178 l 574 424 b 549 510 574 454 567 485 b 482 578 538 525 504 563 b 382 607 454 597 417 607 l 279 607 b 197 575 250 607 221 592 l 197 831 l 58 831 l 58 124 l 47 0 l 185 0 l 189 31 b 279 -7 214 11 246 -7 l 382 -7 b 482 24 417 -7 456 4 b 549 92 503 39 538 75 b 574 178 567 118 574 147 z m 435 181 b 433 172 435 175 433 172 b 389 128 424 156 404 138 b 381 125 386 126 383 125 l 283 125 b 197 188 268 125 215 167 l 197 414 b 283 475 215 435 267 475 l 379 475 b 389 474 383 475 388 475 b 433 428 404 464 424 444 b 435 421 433 428 435 425 z "},"c":{"ha":651,"x_min":0,"x_max":0,"o":"m 188 176 l 188 424 b 190 432 188 424 188 428 b 235 472 200 449 218 463 b 243 475 235 472 240 475 l 378 475 b 429 439 392 475 421 449 b 433 433 429 439 431 438 l 563 472 b 474 575 547 510 501 556 b 374 607 447 593 407 607 l 242 607 b 140 578 207 607 168 597 b 74 510 119 563 85 526 b 49 425 54 483 49 453 l 49 175 b 74 90 49 147 54 117 b 140 22 85 74 119 38 b 242 -7 168 3 207 -7 l 375 -7 b 475 25 408 -7 449 7 b 564 128 497 40 550 94 l 435 167 b 431 161 432 163 431 161 b 379 125 422 151 393 125 l 243 125 b 235 128 240 125 235 128 b 190 168 218 138 200 151 b 188 176 188 172 188 176 z "},"d":{"ha":688,"x_min":0,"x_max":0,"o":"m 572 0 l 561 124 l 561 831 l 422 831 l 422 575 b 340 607 399 592 369 607 l 240 607 b 140 578 206 607 168 597 b 74 510 118 563 85 525 b 49 424 56 485 49 454 l 49 178 b 74 92 49 147 56 118 b 140 24 85 75 119 39 b 240 -7 167 4 206 -7 l 340 -7 b 431 31 374 -7 406 11 l 436 0 z m 422 188 b 336 125 404 167 351 125 l 242 125 b 233 128 239 125 236 126 b 189 172 218 138 199 156 b 188 181 189 172 188 175 l 188 421 b 189 428 188 425 189 428 b 233 474 199 444 218 464 b 242 475 235 475 238 475 l 336 475 b 422 414 353 475 404 435 z "},"e":{"ha":671,"x_min":0,"x_max":0,"o":"m 564 233 l 564 425 b 539 510 564 453 558 483 b 472 576 528 526 493 561 b 371 607 444 596 406 607 l 243 607 b 142 576 208 607 169 596 b 75 510 121 561 86 525 b 49 425 57 485 49 456 l 49 175 b 75 89 49 144 57 114 b 142 22 86 74 121 38 b 243 -7 169 3 208 -7 l 374 -7 b 474 25 407 -7 447 7 b 563 128 496 40 549 94 l 433 167 b 429 161 433 167 431 163 b 378 125 421 151 392 125 l 243 125 b 189 169 229 125 201 149 b 188 176 189 169 188 172 l 188 233 z m 425 357 l 188 357 l 188 422 b 189 431 188 422 188 428 b 243 475 201 451 229 475 l 369 475 b 378 474 372 475 375 475 b 424 431 394 464 415 444 b 425 422 425 429 425 422 z "},"f":{"ha":472,"x_min":0,"x_max":0,"o":"m 426 706 l 426 836 l 296 836 b 194 806 261 836 222 825 b 128 739 172 790 139 754 b 103 653 108 713 103 682 l 103 600 l 10 600 l 10 468 l 103 468 l 103 0 l 242 0 l 242 468 l 393 468 l 393 600 l 242 600 b 242 661 242 646 242 657 b 282 701 243 674 269 694 b 297 704 288 704 290 704 z "},"g":{"ha":693,"x_min":0,"x_max":0,"o":"m 583 600 l 447 600 l 442 569 b 350 607 417 589 383 607 l 243 607 b 142 576 210 607 169 596 b 75 508 119 561 86 524 b 50 422 56 482 50 451 l 50 179 b 75 93 50 150 56 119 b 142 25 86 78 119 40 b 243 -6 169 6 210 -6 l 350 -6 b 432 28 379 -6 408 11 l 432 -47 b 432 -57 432 -50 432 -54 b 386 -100 431 -68 399 -93 b 378 -103 383 -101 381 -103 l 253 -103 b 201 -65 239 -103 210 -75 b 197 -60 199 -62 197 -60 l 68 -99 b 157 -201 82 -132 135 -186 b 257 -235 183 -219 224 -235 l 379 -235 b 481 -204 413 -235 453 -224 b 547 -137 501 -189 536 -154 b 571 -50 567 -111 571 -79 l 571 475 z m 244 126 b 236 128 243 126 239 126 b 190 174 221 138 200 157 b 189 182 189 176 189 182 l 189 419 b 190 426 189 419 189 424 b 236 472 200 443 221 463 b 244 475 239 474 242 475 l 346 475 b 432 410 367 475 413 431 l 432 190 b 356 128 414 169 381 140 b 346 126 353 126 346 126 z "},"h":{"ha":674,"x_min":0,"x_max":0,"o":"m 419 0 l 558 0 l 558 424 b 533 508 558 454 551 482 b 467 576 522 524 489 561 b 367 607 440 596 400 607 l 267 607 b 185 574 238 607 208 590 l 185 831 l 46 831 l 46 0 l 185 0 l 185 413 b 269 475 201 433 251 475 l 365 475 b 374 474 369 475 372 475 b 418 428 389 464 408 444 b 419 421 418 428 419 425 z "},"i":{"ha":313,"x_min":0,"x_max":0,"o":"m 204 685 l 204 833 l 56 833 l 56 685 z m 200 0 l 200 600 l 61 600 l 61 0 z "},"j":{"ha":322,"x_min":0,"x_max":0,"o":"m 226 685 l 226 833 l 78 833 l 78 685 z m -86 -100 l -86 -229 l 31 -229 b 129 -200 64 -229 101 -219 b 197 -132 151 -185 186 -147 b 222 -44 215 -106 222 -75 l 222 600 l 83 600 l 83 -43 b 82 -50 83 -46 82 -50 b 35 -99 72 -69 50 -89 b 26 -100 35 -99 32 -100 z "},"k":{"ha":611,"x_min":0,"x_max":0,"o":"m 576 0 l 331 319 l 561 600 l 389 600 b 211 383 390 600 211 383 l 185 383 l 185 831 l 46 831 l 46 0 l 185 0 l 185 253 l 210 253 l 399 0 z "},"l":{"ha":319,"x_min":0,"x_max":0,"o":"m 213 0 l 194 122 l 194 831 l 56 831 l 56 107 b 72 0 56 107 68 28 z "},"m":{"ha":994,"x_min":0,"x_max":0,"o":"m 879 0 l 879 425 b 854 510 879 453 874 483 b 788 576 843 526 808 561 b 686 607 760 596 721 607 l 617 607 b 517 564 585 607 540 582 l 486 540 b 446 576 472 554 457 568 b 344 607 418 596 379 607 l 275 607 b 188 568 243 607 213 586 l 181 600 l 44 600 l 58 476 l 58 0 l 197 0 l 197 418 b 279 475 215 438 243 475 l 343 475 b 354 474 347 475 351 475 b 400 431 369 464 392 446 b 401 422 401 428 401 424 l 401 0 l 403 0 l 539 0 l 540 0 l 540 419 b 621 475 558 439 593 475 l 685 475 b 696 474 689 475 693 475 b 739 431 711 464 731 446 b 740 422 740 426 740 424 l 740 0 z "},"n":{"ha":688,"x_min":0,"x_max":0,"o":"m 572 0 l 572 425 b 547 510 572 453 567 483 b 481 576 536 526 501 561 b 379 607 453 596 414 607 l 276 607 b 189 568 244 607 214 586 l 182 600 l 46 600 l 60 476 l 60 0 l 199 0 l 199 418 b 281 475 217 438 254 475 l 378 475 b 389 474 382 475 388 475 b 432 431 404 464 424 446 b 433 422 433 428 433 424 l 433 0 z "},"o":{"ha":669,"x_min":0,"x_max":0,"o":"m 563 175 l 563 425 b 539 510 563 453 558 483 b 472 576 528 526 493 561 b 371 607 444 596 406 607 l 240 607 b 140 576 206 607 168 596 b 72 510 119 561 83 526 b 49 425 53 483 49 453 l 49 175 b 72 90 49 147 53 117 b 140 22 83 74 119 38 b 240 -7 168 3 206 -7 l 371 -7 b 472 22 406 -7 444 3 b 539 90 493 38 528 74 b 563 175 558 117 563 147 z m 188 421 b 189 429 188 421 188 426 b 235 474 199 446 218 464 b 242 475 238 475 239 475 l 369 475 b 376 474 372 475 374 475 b 422 429 393 464 414 443 b 424 421 424 425 424 422 l 424 168 b 378 128 422 157 390 135 b 369 125 375 126 372 125 l 242 125 b 233 126 236 125 233 126 b 188 168 217 136 188 157 l 188 421 z "},"p":{"ha":682,"x_min":0,"x_max":0,"o":"m 572 176 l 572 422 b 547 508 572 453 565 482 b 481 576 536 525 501 561 b 381 607 454 596 415 607 l 279 607 b 189 569 246 607 214 589 l 183 600 l 46 600 l 58 476 l 58 -226 l 197 -226 l 197 25 b 279 -7 221 8 250 -7 l 381 -7 b 481 22 415 -7 453 3 b 547 90 503 38 536 75 b 572 176 565 115 572 146 z m 433 179 b 432 172 433 175 432 172 b 388 126 422 156 403 136 b 379 125 385 125 383 125 l 283 125 b 197 186 267 125 215 165 l 197 413 b 283 475 215 433 268 475 l 379 475 b 388 472 382 475 385 474 b 432 428 403 463 422 444 b 433 419 432 428 433 425 z "},"q":{"ha":690,"x_min":0,"x_max":0,"o":"m 575 600 l 439 600 l 432 569 b 342 607 407 589 375 607 l 240 607 b 140 576 206 607 167 596 b 74 508 119 561 85 525 b 49 422 56 482 49 453 l 49 176 b 74 90 49 146 56 115 b 140 22 85 75 118 38 b 240 -7 168 3 206 -7 l 342 -7 b 424 25 371 -7 400 8 l 424 -226 l 563 -226 l 563 476 z m 424 186 b 338 125 406 165 354 125 l 242 125 b 233 126 236 125 235 126 b 189 172 218 136 199 156 b 188 179 189 172 188 176 l 188 419 b 189 428 188 424 189 428 b 233 472 199 444 218 463 b 242 475 236 474 239 475 l 338 475 b 424 413 353 475 406 433 z "},"r":{"ha":578,"x_min":0,"x_max":0,"o":"m 547 472 b 463 572 533 506 489 553 b 360 607 431 594 399 607 l 276 607 b 188 567 244 607 213 585 l 181 600 l 46 600 l 57 476 l 57 0 l 196 0 l 196 415 b 281 475 213 436 249 475 l 356 475 b 418 433 382 475 410 444 z "},"s":{"ha":651,"x_min":0,"x_max":0,"o":"m 153 163 l 149 168 l 19 129 b 108 26 35 92 81 46 b 208 -7 135 8 175 -7 l 367 -7 b 465 24 401 -7 438 4 b 528 88 488 39 517 71 b 554 172 546 113 554 142 l 554 211 b 417 354 554 303 492 346 b 199 375 340 363 235 371 b 178 393 185 376 178 389 l 178 426 b 179 440 178 438 179 440 b 211 472 188 456 206 469 b 229 475 217 475 229 475 l 363 475 b 414 439 376 475 406 449 b 418 433 417 436 418 433 l 549 472 b 458 575 533 510 486 556 b 358 607 432 593 392 607 l 225 607 b 64 514 156 607 103 569 b 39 429 46 489 39 460 l 39 388 b 169 246 39 299 96 251 b 397 228 249 239 349 232 b 415 208 413 226 415 215 l 415 175 b 365 125 415 156 382 125 l 204 125 b 153 163 190 126 161 153 z "},"t":{"ha":486,"x_min":0,"x_max":0,"o":"m 232 468 l 404 468 l 404 600 l 232 600 l 232 831 l 93 831 l 93 600 l 0 600 l 0 468 l 93 468 l 93 185 b 119 97 93 154 101 124 b 186 29 131 82 164 44 b 286 0 214 10 251 0 l 403 0 l 403 132 l 288 132 b 233 178 268 132 242 163 b 232 186 232 181 232 186 z "},"u":{"ha":678,"x_min":0,"x_max":0,"o":"m 569 0 l 557 124 l 557 600 l 418 600 l 418 182 b 336 126 400 163 350 126 l 238 126 b 229 128 233 126 232 126 b 183 169 214 138 192 154 b 182 179 182 172 182 178 l 182 600 l 43 600 l 43 176 b 68 92 43 149 49 118 b 135 24 79 75 114 39 b 236 -6 163 4 201 -6 l 340 -6 b 428 35 372 -6 403 17 l 433 0 z "},"v":{"ha":597,"x_min":0,"x_max":0,"o":"m 563 600 l 415 600 l 274 193 l 133 600 l -22 600 l 199 0 l 346 0 z "},"w":{"ha":917,"x_min":0,"x_max":0,"o":"m 869 600 l 724 600 l 610 213 l 503 600 l 357 600 l 247 213 l 136 600 l -11 600 l 172 0 l 314 0 l 429 376 l 542 0 l 683 0 z "},"x":{"ha":617,"x_min":0,"x_max":0,"o":"m 572 0 l 364 306 l 563 600 l 397 600 l 282 424 l 163 600 l -3 600 l 199 307 l -10 0 l 156 0 l 282 186 l 408 0 z "},"y":{"ha":597,"x_min":0,"x_max":0,"o":"m 563 600 l 415 600 l 274 193 l 133 600 l -22 600 l 199 0 l 211 0 l 128 -225 l 268 -225 z "},"z":{"ha":617,"x_min":0,"x_max":0,"o":"m 526 0 l 526 132 l 235 132 l 513 486 l 513 600 l 38 600 l 38 468 l 325 468 l 49 113 l 49 0 z "},"{":{"ha":488,"x_min":0,"x_max":0,"o":"m 204 632 b 206 639 204 632 204 636 b 265 699 222 665 250 690 b 274 700 265 699 269 700 l 372 700 l 372 836 l 267 836 b 182 813 238 836 204 826 b 83 714 153 796 100 738 b 61 635 65 689 61 658 l 61 196 b 82 115 61 172 64 142 b 183 19 99 90 154 36 b 267 -6 206 7 238 -6 l 372 -6 l 372 131 l 278 131 b 269 132 276 131 271 131 b 204 197 250 143 204 181 z "},"|":{"ha":329,"x_min":0,"x_max":0,"o":"m 190 -128 l 190 926 l 54 926 l 54 -128 z "},"}":{"ha":496,"x_min":0,"x_max":0,"o":"m 357 635 b 335 714 357 661 351 689 b 235 813 318 738 264 796 b 150 836 213 826 179 836 l 44 836 l 44 700 l 144 700 b 149 699 146 700 147 700 b 214 632 171 686 214 642 l 214 197 b 149 132 214 190 169 143 b 143 131 149 132 146 131 l 44 131 l 44 -6 l 150 -6 b 235 19 179 -6 213 7 b 336 115 264 36 319 90 b 357 196 353 140 357 172 z "},"~":{"ha":642,"x_min":0,"x_max":0,"o":"m 538 306 b 347 424 499 403 422 438 l 199 393 b 157 429 186 390 169 400 l 26 389 b 217 268 65 292 142 254 l 364 300 b 406 265 376 303 393 294 z "},"Ä":{"ha":763,"x_min":0,"x_max":0,"o":"m 715 0 l 426 831 l 257 831 l -33 0 l 122 0 l 183 176 l 499 176 l 560 0 z m 453 315 l 229 315 l 342 643 z m 521 907 l 521 1050 l 386 1050 l 386 907 z m 297 907 l 297 1050 l 163 1050 l 163 907 z "},"Å":{"ha":763,"x_min":0,"x_max":0,"o":"m 715 0 l 426 831 l 257 831 l -33 0 l 122 0 l 183 176 l 499 176 l 560 0 z m 453 315 l 229 315 l 342 643 z m 485 1029 b 342 1171 485 1106 419 1171 b 196 1029 264 1171 196 1106 b 342 885 196 949 264 885 b 485 1029 419 885 485 949 z m 404 1029 b 342 963 404 993 378 963 b 276 1029 306 963 276 993 b 342 1092 276 1063 306 1092 b 404 1029 378 1092 404 1063 z "},"Ç":{"ha":758,"x_min":0,"x_max":0,"o":"m 453 -101 l 318 -61 l 185 -275 l 342 -275 z m 650 161 l 508 199 b 446 133 508 199 475 147 b 439 132 443 132 440 132 l 281 132 b 271 133 279 132 272 132 b 207 197 250 144 207 181 b 207 619 207 197 207 618 b 208 635 207 622 207 632 b 271 696 222 657 253 686 b 276 697 271 696 274 697 l 440 697 b 446 696 442 697 444 697 b 508 632 467 683 508 632 l 650 672 b 621 721 638 694 632 706 b 444 836 585 768 522 836 l 271 836 b 185 811 240 836 207 824 b 83 711 156 794 100 735 b 61 633 67 686 61 660 l 61 196 b 83 117 61 169 67 142 b 185 18 100 92 156 35 b 271 -7 207 4 240 -7 l 444 -7 b 621 108 522 -7 585 60 b 650 161 632 124 639 136 z "},"É":{"ha":717,"x_min":0,"x_max":0,"o":"m 583 0 l 583 139 l 207 139 l 207 343 l 557 343 l 557 482 l 207 482 l 207 692 l 583 692 l 583 831 l 61 831 l 61 0 z m 364 878 l 528 1081 l 364 1081 l 236 915 z "},"Ñ":{"ha":786,"x_min":0,"x_max":0,"o":"m 649 0 l 649 831 l 503 831 l 503 272 l 218 831 l 61 831 l 61 0 l 207 0 l 207 551 l 494 0 z m 601 919 b 410 1033 563 1018 481 1056 l 315 1004 b 267 1039 301 1000 279 1010 l 149 1010 b 343 897 188 913 275 875 l 433 926 b 490 888 447 931 478 917 z "},"Ö":{"ha":818,"x_min":0,"x_max":0,"o":"m 693 197 l 693 632 b 671 711 693 658 688 686 b 569 811 653 735 599 794 b 483 836 547 825 513 836 l 272 836 b 186 811 242 836 208 825 b 85 711 157 794 101 735 b 63 632 68 686 63 658 l 63 197 b 85 118 63 171 68 143 b 186 18 101 94 157 35 b 272 -7 208 4 242 -7 l 483 -7 b 569 18 513 -7 547 4 b 671 118 599 35 653 94 b 693 197 688 143 693 171 z m 208 628 b 210 635 208 628 208 632 b 271 696 226 660 256 688 b 278 697 272 697 278 697 l 478 697 b 485 696 479 697 482 697 b 546 635 500 688 529 660 b 547 628 547 633 547 628 l 547 199 b 546 193 547 199 547 196 b 485 133 529 168 500 142 b 478 132 482 132 478 132 l 278 132 b 271 133 276 132 274 132 b 210 193 256 142 226 168 b 208 199 208 194 208 199 z m 558 906 l 558 1049 l 424 1049 l 424 906 z m 335 906 l 335 1049 l 200 1049 l 200 906 z "},"Ü":{"ha":771,"x_min":0,"x_max":0,"o":"m 497 831 l 643 831 l 643 197 b 621 118 643 171 638 143 b 519 18 604 94 550 35 b 435 -7 497 4 464 -7 l 258 -7 b 172 18 228 -7 194 4 b 71 118 143 35 88 94 b 49 197 54 143 49 171 l 49 831 l 194 831 l 194 200 b 196 193 194 200 194 194 b 257 133 213 168 240 142 b 264 132 260 132 264 132 l 429 132 b 436 133 431 132 433 132 b 496 193 451 142 479 168 b 497 199 497 196 497 199 z m 526 906 l 526 1049 l 392 1049 l 392 906 z m 303 906 l 303 1049 l 168 1049 l 168 906 z "},"á":{"ha":669,"x_min":0,"x_max":0,"o":"m 406 376 l 214 376 b 114 346 179 376 142 365 b 49 283 93 331 60 299 b 24 199 31 258 24 229 l 24 174 b 49 89 24 143 31 114 b 114 24 60 74 93 39 b 214 -7 142 4 179 -7 l 328 -7 b 414 28 360 -7 389 10 l 421 0 l 558 0 l 544 122 l 544 425 b 521 511 544 453 540 485 b 454 576 510 528 475 561 b 353 607 426 596 388 607 l 233 607 b 133 574 200 607 160 592 b 43 471 111 558 57 504 l 174 432 b 229 475 182 443 213 475 l 351 475 b 360 472 354 475 357 474 b 404 431 376 463 396 444 b 406 424 406 429 406 424 z m 406 181 b 324 125 394 168 339 125 l 215 125 b 207 128 214 125 210 126 b 164 171 190 136 174 154 b 163 175 164 171 163 174 l 163 201 b 164 206 163 203 164 206 b 206 250 174 222 190 240 b 215 253 210 253 211 253 l 406 253 z m 313 678 l 476 881 l 313 881 l 185 715 z "},"à":{"ha":669,"x_min":0,"x_max":0,"o":"m 406 376 l 214 376 b 114 346 179 376 142 365 b 49 283 93 331 60 299 b 24 199 31 258 24 229 l 24 174 b 49 89 24 143 31 114 b 114 24 60 74 93 39 b 214 -7 142 4 179 -7 l 328 -7 b 414 28 360 -7 389 10 l 421 0 l 558 0 l 544 122 l 544 425 b 521 511 544 453 540 485 b 454 576 510 528 475 561 b 353 607 426 596 388 607 l 233 607 b 133 574 200 607 160 592 b 43 471 111 558 57 504 l 174 432 b 229 475 182 443 213 475 l 351 475 b 360 472 354 475 357 474 b 404 431 376 463 396 444 b 406 424 406 429 406 424 z m 406 181 b 324 125 394 168 339 125 l 215 125 b 207 128 214 125 210 126 b 164 171 190 136 174 154 b 163 175 164 171 163 174 l 163 201 b 164 206 163 203 164 206 b 206 250 174 222 190 240 b 215 253 210 253 211 253 l 406 253 z m 419 715 l 292 881 l 128 881 l 292 678 z "},"â":{"ha":669,"x_min":0,"x_max":0,"o":"m 406 376 l 214 376 b 114 346 179 376 142 365 b 49 283 93 331 60 299 b 24 199 31 258 24 229 l 24 174 b 49 89 24 143 31 114 b 114 24 60 74 93 39 b 214 -7 142 4 179 -7 l 328 -7 b 414 28 360 -7 389 10 l 421 0 l 558 0 l 544 122 l 544 425 b 521 511 544 453 540 485 b 454 576 510 528 475 561 b 353 607 426 596 388 607 l 233 607 b 133 574 200 607 160 592 b 43 471 111 558 57 504 l 174 432 b 229 475 182 443 213 475 l 351 475 b 360 472 354 475 357 474 b 404 431 376 463 396 444 b 406 424 406 429 406 424 z m 406 181 b 324 125 394 168 339 125 l 215 125 b 207 128 214 125 210 126 b 164 171 190 136 174 154 b 163 175 164 171 163 174 l 163 201 b 164 206 163 203 164 206 b 206 250 174 222 190 240 b 215 253 210 253 211 253 l 406 253 z m 240 685 l 293 757 l 346 685 l 494 685 l 358 867 l 228 867 l 92 685 z "},"ä":{"ha":665,"x_min":0,"x_max":0,"o":"m 406 376 l 214 376 b 114 346 179 376 142 365 b 49 283 93 331 60 299 b 24 199 31 258 24 229 l 24 174 b 49 89 24 143 31 114 b 114 24 60 74 93 39 b 214 -7 142 4 179 -7 l 328 -7 b 414 28 360 -7 389 10 l 421 0 l 558 0 l 544 122 l 544 425 b 521 511 544 453 540 485 b 454 576 510 528 475 561 b 353 607 426 596 388 607 l 233 607 b 133 574 200 607 160 592 b 43 471 111 558 57 504 l 174 432 b 229 475 182 443 213 475 l 351 475 b 360 472 354 475 357 474 b 404 431 376 463 396 444 b 406 424 406 429 406 424 z m 406 181 b 324 125 394 168 339 125 l 215 125 b 207 128 214 125 210 126 b 164 171 190 136 174 154 b 163 175 164 171 163 174 l 163 201 b 164 206 163 203 164 206 b 206 250 174 222 190 240 b 215 253 210 253 211 253 l 406 253 z m 463 689 l 463 832 l 328 832 l 328 689 z m 239 689 l 239 832 l 104 832 l 104 689 z "},"ã":{"ha":669,"x_min":0,"x_max":0,"o":"m 406 376 l 214 376 b 114 346 179 376 142 365 b 49 283 93 331 60 299 b 24 199 31 258 24 229 l 24 174 b 49 89 24 143 31 114 b 114 24 60 74 93 39 b 214 -7 142 4 179 -7 l 328 -7 b 414 28 360 -7 389 10 l 421 0 l 558 0 l 544 122 l 544 425 b 521 511 544 453 540 485 b 454 576 510 528 475 561 b 353 607 426 596 388 607 l 233 607 b 133 574 200 607 160 592 b 43 471 111 558 57 504 l 174 432 b 229 475 182 443 213 475 l 351 475 b 360 472 354 475 357 474 b 404 431 376 463 396 444 b 406 424 406 429 406 424 z m 406 181 b 324 125 394 168 339 125 l 215 125 b 207 128 214 125 210 126 b 164 171 190 136 174 154 b 163 175 164 171 163 174 l 163 201 b 164 206 163 203 164 206 b 206 250 174 222 190 240 b 215 253 210 253 211 253 l 406 253 z m 528 722 b 336 836 489 821 407 858 l 242 807 b 193 842 228 803 206 813 l 75 813 b 269 700 114 715 201 678 l 360 729 b 417 690 374 733 404 719 z "},"å":{"ha":669,"x_min":0,"x_max":0,"o":"m 406 376 l 214 376 b 114 346 179 376 142 365 b 49 283 93 331 60 299 b 24 199 31 258 24 229 l 24 174 b 49 89 24 143 31 114 b 114 24 60 74 93 39 b 214 -7 142 4 179 -7 l 328 -7 b 414 28 360 -7 389 10 l 421 0 l 558 0 l 544 122 l 544 425 b 521 511 544 453 540 485 b 454 576 510 528 475 561 b 353 607 426 596 388 607 l 233 607 b 133 574 200 607 160 592 b 43 471 111 558 57 504 l 174 432 b 229 475 182 443 213 475 l 351 475 b 360 472 354 475 357 474 b 404 431 376 463 396 444 b 406 424 406 429 406 424 z m 406 181 b 324 125 394 168 339 125 l 215 125 b 207 128 214 125 210 126 b 164 171 190 136 174 154 b 163 175 164 171 163 174 l 163 201 b 164 206 163 203 164 206 b 206 250 174 222 190 240 b 215 253 210 253 211 253 l 406 253 z m 442 828 b 299 969 442 904 376 969 b 153 828 221 969 153 904 b 299 683 153 747 221 683 b 442 828 376 683 442 747 z m 361 828 b 299 761 361 792 335 761 b 233 828 263 761 233 792 b 299 890 233 861 263 890 b 361 828 335 890 361 861 z "},"ç":{"ha":663,"x_min":0,"x_max":0,"o":"m 411 -101 l 276 -61 l 143 -275 l 300 -275 z m 188 176 l 188 424 b 190 432 188 424 188 428 b 235 472 200 449 218 463 b 243 475 235 472 240 475 l 378 475 b 429 439 392 475 421 449 b 433 433 429 439 431 438 l 563 472 b 474 575 547 510 501 556 b 374 607 447 593 407 607 l 242 607 b 140 578 207 607 168 597 b 74 510 119 563 85 526 b 49 425 54 483 49 453 l 49 175 b 74 90 49 147 54 117 b 140 22 85 74 119 38 b 242 -7 168 3 207 -7 l 375 -7 b 475 25 408 -7 449 7 b 564 128 497 40 550 94 l 435 167 b 431 161 432 163 431 161 b 379 125 422 151 393 125 l 243 125 b 235 128 240 125 235 128 b 190 168 218 138 200 151 b 188 176 188 172 188 176 z "},"é":{"ha":671,"x_min":0,"x_max":0,"o":"m 564 233 l 564 425 b 539 510 564 453 558 483 b 472 576 528 526 493 561 b 371 607 444 596 406 607 l 243 607 b 142 576 208 607 169 596 b 75 510 121 561 86 525 b 49 425 57 485 49 456 l 49 175 b 75 89 49 144 57 114 b 142 22 86 74 121 38 b 243 -7 169 3 208 -7 l 374 -7 b 474 25 407 -7 447 7 b 563 128 496 40 549 94 l 433 167 b 429 161 433 167 431 163 b 378 125 421 151 392 125 l 243 125 b 189 169 229 125 201 149 b 188 176 189 169 188 172 l 188 233 z m 425 357 l 188 357 l 188 422 b 189 431 188 422 188 428 b 243 475 201 451 229 475 l 369 475 b 378 474 372 475 375 475 b 424 431 394 464 415 444 b 425 422 425 429 425 422 z m 317 678 l 481 881 l 317 881 l 189 715 z "},"è":{"ha":671,"x_min":0,"x_max":0,"o":"m 564 233 l 564 425 b 539 510 564 453 558 483 b 472 576 528 526 493 561 b 371 607 444 596 406 607 l 243 607 b 142 576 208 607 169 596 b 75 510 121 561 86 525 b 49 425 57 485 49 456 l 49 175 b 75 89 49 144 57 114 b 142 22 86 74 121 38 b 243 -7 169 3 208 -7 l 374 -7 b 474 25 407 -7 447 7 b 563 128 496 40 549 94 l 433 167 b 429 161 433 167 431 163 b 378 125 421 151 392 125 l 243 125 b 189 169 229 125 201 149 b 188 176 189 169 188 172 l 188 233 z m 425 357 l 188 357 l 188 422 b 189 431 188 422 188 428 b 243 475 201 451 229 475 l 369 475 b 378 474 372 475 375 475 b 424 431 394 464 415 444 b 425 422 425 429 425 422 z m 419 715 l 292 881 l 128 881 l 292 678 z "},"ê":{"ha":678,"x_min":0,"x_max":0,"o":"m 564 233 l 564 425 b 539 510 564 453 558 483 b 472 576 528 526 493 561 b 371 607 444 596 406 607 l 243 607 b 142 576 208 607 169 596 b 75 510 121 561 86 525 b 49 425 57 485 49 456 l 49 175 b 75 89 49 144 57 114 b 142 22 86 74 121 38 b 243 -7 169 3 208 -7 l 374 -7 b 474 25 407 -7 447 7 b 563 128 496 40 549 94 l 433 167 b 429 161 433 167 431 163 b 378 125 421 151 392 125 l 243 125 b 189 169 229 125 201 149 b 188 176 189 169 188 172 l 188 233 z m 425 357 l 188 357 l 188 422 b 189 431 188 422 188 428 b 243 475 201 451 229 475 l 369 475 b 378 474 372 475 375 475 b 424 431 394 464 415 444 b 425 422 425 429 425 422 z m 269 685 l 322 757 l 375 685 l 524 685 l 388 867 l 257 867 l 121 685 z "},"ë":{"ha":668,"x_min":0,"x_max":0,"o":"m 561 233 l 561 425 b 536 510 561 453 556 483 b 469 576 525 526 490 561 b 368 607 442 596 403 607 l 240 607 b 139 576 206 607 167 596 b 72 510 118 561 83 525 b 46 425 54 485 46 456 l 46 175 b 72 89 46 144 54 114 b 139 22 83 74 118 38 b 240 -7 167 3 206 -7 l 371 -7 b 471 25 404 -7 444 7 b 560 128 493 40 546 94 l 431 167 b 426 161 431 167 428 163 b 375 125 418 151 389 125 l 240 125 b 186 169 226 125 199 149 b 185 176 186 169 185 172 l 185 233 z m 422 357 l 185 357 l 185 422 b 186 431 185 422 185 428 b 240 475 199 451 226 475 l 367 475 b 375 474 369 475 372 475 b 421 431 392 464 413 444 b 422 422 422 429 422 422 z m 483 689 l 483 832 l 349 832 l 349 689 z m 260 689 l 260 832 l 125 832 l 125 689 z "},"í":{"ha":307,"x_min":0,"x_max":0,"o":"m 200 -1 l 200 597 l 61 597 l 61 -1 z m 196 678 l 360 881 l 196 881 l 68 715 z "},"ì":{"ha":307,"x_min":0,"x_max":0,"o":"m 200 -1 l 200 597 l 61 597 l 61 -1 z m 192 715 l 64 881 l -100 881 l 64 678 z "},"î":{"ha":307,"x_min":0,"x_max":0,"o":"m 200 -1 l 200 597 l 61 597 l 61 -1 z m 75 685 l 128 757 l 181 685 l 329 685 l 193 867 l 63 867 l -74 685 z "},"ï":{"ha":307,"x_min":0,"x_max":0,"o":"m 310 689 l 310 832 l 175 832 l 175 689 z m 86 689 l 86 832 l -49 832 l -49 689 z m 200 -1 l 200 597 l 61 597 l 61 -1 z "},"ñ":{"ha":688,"x_min":0,"x_max":0,"o":"m 572 0 l 572 425 b 547 510 572 453 567 483 b 481 576 536 526 501 561 b 379 607 453 596 414 607 l 276 607 b 189 568 244 607 214 586 l 182 600 l 46 600 l 60 476 l 60 0 l 199 0 l 199 418 b 281 475 217 438 254 475 l 378 475 b 389 474 382 475 388 475 b 432 431 404 464 424 446 b 433 422 433 428 433 424 l 433 0 z m 528 722 b 336 836 489 821 407 858 l 242 807 b 193 842 228 803 206 813 l 75 813 b 269 700 114 715 201 678 l 360 729 b 417 690 374 733 404 719 z "},"ó":{"ha":672,"x_min":0,"x_max":0,"o":"m 563 175 l 563 425 b 539 510 563 453 558 483 b 472 576 528 526 493 561 b 371 607 444 596 406 607 l 240 607 b 140 576 206 607 168 596 b 72 510 119 561 83 526 b 49 425 53 483 49 453 l 49 175 b 72 90 49 147 53 117 b 140 22 83 74 119 38 b 240 -7 168 3 206 -7 l 371 -7 b 472 22 406 -7 444 3 b 539 90 493 38 528 74 b 563 175 558 117 563 147 z m 188 421 b 189 429 188 421 188 426 b 235 474 199 446 218 464 b 242 475 238 475 239 475 l 369 475 b 376 474 372 475 374 475 b 422 429 393 464 414 443 b 424 421 424 425 424 422 l 424 168 b 378 128 422 157 390 135 b 369 125 375 126 372 125 l 242 125 b 233 126 236 125 233 126 b 188 168 217 136 188 157 l 188 421 z m 313 678 l 476 881 l 313 881 l 185 715 z "},"ò":{"ha":672,"x_min":0,"x_max":0,"o":"m 563 175 l 563 425 b 539 510 563 453 558 483 b 472 576 528 526 493 561 b 371 607 444 596 406 607 l 240 607 b 140 576 206 607 168 596 b 72 510 119 561 83 526 b 49 425 53 483 49 453 l 49 175 b 72 90 49 147 53 117 b 140 22 83 74 119 38 b 240 -7 168 3 206 -7 l 371 -7 b 472 22 406 -7 444 3 b 539 90 493 38 528 74 b 563 175 558 117 563 147 z m 188 421 b 189 429 188 421 188 426 b 235 474 199 446 218 464 b 242 475 238 475 239 475 l 369 475 b 376 474 372 475 374 475 b 422 429 393 464 414 443 b 424 421 424 425 424 422 l 424 168 b 378 128 422 157 390 135 b 369 125 375 126 372 125 l 242 125 b 233 126 236 125 233 126 b 188 168 217 136 188 157 l 188 421 z m 419 715 l 292 881 l 128 881 l 292 678 z "},"ô":{"ha":672,"x_min":0,"x_max":0,"o":"m 563 175 l 563 425 b 539 510 563 453 558 483 b 472 576 528 526 493 561 b 371 607 444 596 406 607 l 240 607 b 140 576 206 607 168 596 b 72 510 119 561 83 526 b 49 425 53 483 49 453 l 49 175 b 72 90 49 147 53 117 b 140 22 83 74 119 38 b 240 -7 168 3 206 -7 l 371 -7 b 472 22 406 -7 444 3 b 539 90 493 38 528 74 b 563 175 558 117 563 147 z m 188 421 b 189 429 188 421 188 426 b 235 474 199 446 218 464 b 242 475 238 475 239 475 l 369 475 b 376 474 372 475 374 475 b 422 429 393 464 414 443 b 424 421 424 425 424 422 l 424 168 b 378 128 422 157 390 135 b 369 125 375 126 372 125 l 242 125 b 233 126 236 125 233 126 b 188 168 217 136 188 157 l 188 421 z m 256 685 l 308 757 l 361 685 l 510 685 l 374 867 l 243 867 l 107 685 z "},"ö":{"ha":672,"x_min":0,"x_max":0,"o":"m 563 175 l 563 425 b 539 510 563 453 558 483 b 472 576 528 526 493 561 b 371 607 444 596 406 607 l 240 607 b 140 576 206 607 168 596 b 72 510 119 561 83 526 b 49 425 53 483 49 453 l 49 175 b 72 90 49 147 53 117 b 140 22 83 74 119 38 b 240 -7 168 3 206 -7 l 371 -7 b 472 22 406 -7 444 3 b 539 90 493 38 528 74 b 563 175 558 117 563 147 z m 188 421 b 189 429 188 421 188 426 b 235 474 199 446 218 464 b 242 475 238 475 239 475 l 369 475 b 376 474 372 475 374 475 b 422 429 393 464 414 443 b 424 421 424 425 424 422 l 424 168 b 378 128 422 157 390 135 b 369 125 375 126 372 125 l 242 125 b 233 126 236 125 233 126 b 188 168 217 136 188 157 l 188 421 z m 483 689 l 483 832 l 349 832 l 349 689 z m 260 689 l 260 832 l 125 832 l 125 689 z "},"õ":{"ha":672,"x_min":0,"x_max":0,"o":"m 563 175 l 563 425 b 539 510 563 453 558 483 b 472 576 528 526 493 561 b 371 607 444 596 406 607 l 240 607 b 140 576 206 607 168 596 b 72 510 119 561 83 526 b 49 425 53 483 49 453 l 49 175 b 72 90 49 147 53 117 b 140 22 83 74 119 38 b 240 -7 168 3 206 -7 l 371 -7 b 472 22 406 -7 444 3 b 539 90 493 38 528 74 b 563 175 558 117 563 147 z m 188 421 b 189 429 188 421 188 426 b 235 474 199 446 218 464 b 242 475 238 475 239 475 l 369 475 b 376 474 372 475 374 475 b 422 429 393 464 414 443 b 424 421 424 425 424 422 l 424 168 b 378 128 422 157 390 135 b 369 125 375 126 372 125 l 242 125 b 233 126 236 125 233 126 b 188 168 217 136 188 157 l 188 421 z m 529 722 b 338 836 490 821 408 858 l 243 807 b 194 842 229 803 207 813 l 76 813 b 271 700 115 715 203 678 l 361 729 b 418 690 375 733 406 719 z "},"ú":{"ha":678,"x_min":0,"x_max":0,"o":"m 569 0 l 557 124 l 557 600 l 418 600 l 418 182 b 336 126 400 163 350 126 l 238 126 b 229 128 233 126 232 126 b 183 169 214 138 192 154 b 182 179 182 172 182 178 l 182 600 l 43 600 l 43 176 b 68 92 43 149 49 118 b 135 24 79 75 114 39 b 236 -6 163 4 201 -6 l 340 -6 b 428 35 372 -6 403 17 l 433 0 z m 306 678 l 469 881 l 306 881 l 178 715 z "},"ù":{"ha":678,"x_min":0,"x_max":0,"o":"m 569 0 l 557 124 l 557 600 l 418 600 l 418 182 b 336 126 400 163 350 126 l 238 126 b 229 128 233 126 232 126 b 183 169 214 138 192 154 b 182 179 182 172 182 178 l 182 600 l 43 600 l 43 176 b 68 92 43 149 49 118 b 135 24 79 75 114 39 b 236 -6 163 4 201 -6 l 340 -6 b 428 35 372 -6 403 17 l 433 0 z m 429 715 l 301 881 l 138 881 l 301 678 z "},"û":{"ha":678,"x_min":0,"x_max":0,"o":"m 569 0 l 557 124 l 557 600 l 418 600 l 418 182 b 336 126 400 163 350 126 l 238 126 b 229 128 233 126 232 126 b 183 169 214 138 192 154 b 182 179 182 172 182 178 l 182 600 l 43 600 l 43 176 b 68 92 43 149 49 118 b 135 24 79 75 114 39 b 236 -6 163 4 201 -6 l 340 -6 b 428 35 372 -6 403 17 l 433 0 z m 246 685 l 299 757 l 351 685 l 500 685 l 364 867 l 233 867 l 97 685 z "},"ü":{"ha":678,"x_min":0,"x_max":0,"o":"m 569 0 l 557 124 l 557 600 l 418 600 l 418 182 b 336 126 400 163 350 126 l 238 126 b 229 128 233 126 232 126 b 183 169 214 138 192 154 b 182 179 182 172 182 178 l 182 600 l 43 600 l 43 176 b 68 92 43 149 49 118 b 135 24 79 75 114 39 b 236 -6 163 4 201 -6 l 340 -6 b 428 35 372 -6 403 17 l 433 0 z m 483 689 l 483 832 l 349 832 l 349 689 z m 260 689 l 260 832 l 125 832 l 125 689 z "},"†":{"ha":456,"x_min":0,"x_max":0,"o":"m 397 468 l 397 600 l 306 600 l 306 831 l 167 831 l 167 600 l 76 600 l 76 468 l 167 468 l 167 154 l 306 154 l 306 468 z "},"°":{"ha":490,"x_min":0,"x_max":0,"o":"m 351 814 b 208 956 351 890 286 956 b 63 814 131 956 63 890 b 208 669 63 733 131 669 b 351 814 286 669 351 733 z m 271 814 b 208 747 271 778 244 747 b 143 814 172 747 143 778 b 208 876 143 847 172 876 b 271 814 244 876 271 847 z "},"¢":{"ha":633,"x_min":0,"x_max":0,"o":"m 268 -226 l 349 -226 l 349 -7 l 389 -7 b 489 25 422 -7 463 7 b 578 128 511 40 564 94 l 449 167 b 444 161 446 163 444 161 b 393 125 436 151 407 125 l 349 125 l 349 475 l 388 475 b 439 436 401 475 431 446 b 443 431 442 433 443 431 l 574 469 b 483 572 560 503 506 557 b 383 607 457 590 417 607 l 349 607 l 350 829 l 269 829 l 268 607 l 242 607 b 140 576 207 607 168 596 b 74 510 119 561 85 526 b 49 425 54 483 49 453 l 49 175 b 74 90 49 147 54 117 b 140 22 85 74 119 38 b 242 -7 168 3 207 -7 l 268 -7 z m 188 422 b 189 432 188 422 188 429 b 235 474 199 449 218 464 b 243 475 238 475 240 475 l 268 475 l 268 125 l 243 125 b 235 128 240 125 235 128 b 190 168 218 138 200 151 b 188 176 188 172 188 176 z "},"£":{"ha":817,"x_min":0,"x_max":0,"o":"m 569 217 b 563 203 569 217 567 208 b 501 140 549 182 524 151 b 493 139 500 139 494 139 l 251 139 l 251 243 l 543 243 l 543 374 l 251 374 l 251 407 l 543 407 l 543 538 l 251 538 l 251 608 b 253 621 251 618 253 621 b 310 678 268 646 293 668 b 317 679 310 678 313 679 l 510 679 l 510 818 l 311 818 b 226 793 282 818 249 806 b 126 694 197 776 143 718 b 106 617 108 669 106 642 l 106 538 l 51 538 l 51 407 l 106 407 l 106 374 l 51 374 l 51 243 l 106 243 l 106 0 l 497 0 b 674 113 575 0 639 65 b 706 175 686 128 701 160 z "},"§":{"ha":708,"x_min":0,"x_max":0,"o":"m 617 661 b 515 797 592 722 547 774 b 417 828 489 817 451 828 l 243 828 b 82 735 174 828 121 789 b 56 646 65 711 53 679 b 110 521 60 600 71 554 b 65 410 82 490 65 458 l 65 400 b 96 303 65 368 75 331 b 175 232 111 283 158 243 b 264 206 206 213 232 207 l 447 197 b 465 183 458 197 465 188 l 465 158 b 417 122 457 144 433 122 l 242 122 b 174 199 215 122 183 181 l 42 154 b 79 89 61 114 71 100 b 244 -10 121 33 169 -10 l 417 -10 b 517 22 451 -10 490 3 b 579 85 538 38 568 68 b 604 163 596 110 604 131 l 604 181 b 558 285 604 222 586 258 b 607 400 590 317 607 354 l 607 410 b 575 507 607 443 596 479 b 499 579 560 526 517 568 b 389 606 464 601 424 604 l 214 615 b 194 649 196 617 196 636 b 244 696 193 664 229 696 l 418 696 b 488 619 444 696 478 639 z m 203 413 b 204 422 203 413 203 419 b 250 478 215 443 231 467 l 411 471 b 417 469 414 471 417 469 b 469 417 432 461 457 436 b 471 410 469 417 471 414 l 471 397 b 421 335 471 386 442 347 b 413 333 421 335 419 333 b 250 342 413 333 257 340 b 204 392 238 344 204 390 b 203 399 203 394 203 399 z "},"•":{"ha":615,"x_min":0,"x_max":0,"o":"m 476 332 l 476 354 b 382 494 476 421 432 461 b 301 517 357 511 331 517 l 267 517 b 186 494 238 517 211 511 b 90 354 136 461 90 421 l 90 332 b 118 247 90 303 97 272 b 186 190 133 229 171 200 b 267 168 210 175 238 168 l 301 168 b 382 190 331 168 358 175 b 446 246 397 200 431 229 b 476 332 465 269 476 300 z "},"¶":{"ha":732,"x_min":0,"x_max":0,"o":"m 650 0 l 650 817 l 251 817 b 153 786 218 817 179 806 b 78 711 133 772 90 729 b 53 626 61 686 53 656 l 53 525 b 78 442 53 496 61 467 b 153 368 90 424 133 382 b 251 339 181 349 218 339 l 318 339 l 318 0 l 458 0 l 458 339 l 510 339 l 510 0 z m 510 476 l 458 476 l 458 678 l 510 678 z m 200 633 b 244 676 210 651 229 667 b 253 678 247 678 250 678 l 318 678 l 318 476 l 253 476 b 200 521 238 476 200 521 b 199 528 200 521 199 522 l 199 625 b 200 633 199 631 200 633 z "},"ß":{"ha":754,"x_min":0,"x_max":0,"o":"m 193 622 b 196 632 193 622 193 628 b 265 699 208 654 246 699 l 344 699 b 397 653 361 699 389 667 b 399 644 397 653 399 650 l 399 596 b 397 582 399 583 397 582 b 350 528 385 560 360 538 b 310 431 318 496 310 469 l 310 396 b 440 257 310 307 367 267 b 506 250 463 254 464 253 b 525 231 521 249 525 238 l 525 175 b 474 126 525 156 490 126 l 357 126 b 333 136 350 128 351 126 b 268 19 333 136 268 18 b 354 -6 289 6 326 -6 l 476 -6 b 575 24 511 -4 547 4 b 638 88 597 39 626 71 b 664 172 656 113 664 142 l 664 233 b 526 376 664 325 601 369 b 469 383 493 379 506 379 b 447 401 456 385 447 397 l 447 424 b 449 442 447 428 447 438 b 482 485 453 457 457 460 b 538 582 515 518 538 544 l 538 646 b 511 733 538 676 529 707 b 444 800 500 749 467 785 b 346 831 417 819 381 831 l 264 831 b 176 806 233 831 199 818 b 78 706 146 788 94 728 b 54 625 60 681 54 650 l 54 124 l 42 0 l 182 0 l 193 100 z "},"®":{"ha":992,"x_min":0,"x_max":0,"o":"m 642 393 b 663 468 657 417 663 442 l 663 490 b 642 561 661 515 656 539 b 588 618 632 576 607 606 b 501 646 564 635 532 646 l 296 646 l 296 179 l 419 179 l 419 311 l 486 311 l 553 182 l 682 182 l 596 343 b 642 393 614 358 633 382 z m 542 492 l 542 467 b 506 428 533 451 517 433 l 419 428 l 419 531 l 504 531 b 542 492 517 522 533 506 z m 82 117 b 182 18 99 93 153 35 b 267 -6 204 4 238 -6 l 686 -6 b 771 18 715 -6 749 4 b 871 117 800 35 854 93 b 893 196 889 142 893 172 l 893 635 b 869 714 893 661 886 689 b 769 813 853 738 799 796 b 685 836 747 826 714 836 l 265 836 b 181 813 236 836 203 826 b 81 714 151 796 97 738 b 58 635 63 689 58 658 l 58 196 b 82 117 58 169 65 142 z m 756 199 b 754 190 756 196 756 193 b 690 128 740 163 707 136 b 678 125 688 126 683 125 l 274 125 b 264 128 269 125 267 126 b 196 199 242 139 196 189 l 196 632 b 197 640 196 635 196 638 b 261 703 211 668 244 694 b 274 706 264 704 268 706 l 678 706 b 688 703 682 706 685 704 b 756 632 710 692 756 642 z "},"©":{"ha":992,"x_min":0,"x_max":0,"o":"m 82 117 b 182 18 99 93 153 35 b 267 -6 204 4 238 -6 l 686 -6 b 771 18 715 -6 749 4 b 871 117 800 35 854 93 b 893 196 889 142 893 172 l 893 635 b 869 714 893 661 886 689 b 769 813 853 738 799 796 b 685 836 747 826 714 836 l 265 836 b 181 813 236 836 203 826 b 81 714 151 796 97 738 b 58 635 63 689 58 658 l 58 196 b 82 117 58 169 65 142 z m 756 199 b 754 190 756 196 756 193 b 690 128 740 163 707 136 b 678 125 688 126 683 125 l 274 125 b 264 128 269 125 267 126 b 196 199 242 139 196 189 l 196 632 b 197 640 196 635 196 638 b 261 703 211 668 244 694 b 274 706 264 704 268 706 l 678 706 b 688 703 682 706 685 704 b 756 632 710 692 756 642 z m 274 342 l 274 485 b 296 561 274 511 281 539 b 357 622 306 576 339 610 b 446 649 382 640 415 649 l 511 649 b 667 517 583 649 640 572 l 556 488 b 518 532 550 503 536 521 b 510 533 515 533 511 533 l 438 533 b 400 497 425 532 406 510 b 399 488 399 493 399 488 l 399 339 b 400 329 399 339 399 333 b 438 293 406 317 425 294 l 510 293 b 518 294 511 293 515 293 b 556 339 536 306 550 324 l 667 310 b 511 178 640 254 583 178 l 446 178 b 357 204 415 178 382 186 b 296 265 339 217 306 250 b 274 342 281 288 274 315 z "},"™":{"ha":872,"x_min":0,"x_max":0,"o":"m 754 421 l 754 831 l 613 831 l 554 731 l 501 831 l 61 831 l 61 711 l 163 711 l 163 421 l 290 421 l 290 711 l 360 711 l 360 421 l 488 421 l 488 593 l 511 547 l 594 547 l 628 606 l 628 421 z "},"´":{"ha":515,"x_min":0,"x_max":0,"o":"m 313 678 l 476 881 l 313 881 l 185 715 z "},"¨":{"ha":504,"x_min":0,"x_max":0,"o":"m 463 689 l 463 832 l 328 832 l 328 689 z m 239 689 l 239 832 l 104 832 l 104 689 z "},"≠":{"ha":675,"x_min":0,"x_max":0,"o":"m 547 628 l 389 628 l 332 522 l 60 522 l 60 393 l 263 393 l 219 313 l 60 313 l 60 185 l 151 185 l 90 71 l 250 71 l 311 185 l 579 185 l 579 313 l 379 313 l 422 393 l 579 393 l 579 522 l 490 522 z "},"Æ":{"ha":999,"x_min":0,"x_max":0,"o":"m 865 0 l 865 139 l 531 139 l 531 343 l 839 343 l 839 482 l 531 482 l 531 692 l 865 692 l 865 831 l 257 831 l -33 0 l 122 0 l 183 176 l 385 176 l 385 0 z m 358 692 l 385 692 l 385 315 l 229 315 z "},"Ø":{"ha":793,"x_min":0,"x_max":0,"o":"m 669 865 l 575 865 l 550 821 b 483 836 529 829 506 836 l 272 836 b 186 811 242 836 208 825 b 85 711 157 794 101 735 b 63 632 68 686 63 658 l 63 197 b 85 118 63 171 68 143 b 135 60 93 106 114 82 l 83 -35 l 178 -35 l 201 10 b 272 -7 222 0 247 -7 l 483 -7 b 569 18 513 -7 547 4 b 671 118 599 35 653 94 b 693 197 688 143 693 171 l 693 632 b 671 711 693 658 688 686 b 617 771 660 724 639 749 z m 546 635 b 547 628 547 633 547 628 l 547 199 b 546 193 547 199 547 196 b 485 133 529 168 500 142 b 478 132 482 132 478 132 l 278 132 b 271 133 276 132 274 132 l 269 133 l 544 636 b 546 635 544 636 544 635 z m 208 628 b 210 635 208 628 208 632 b 271 696 226 660 256 688 b 278 697 272 697 278 697 l 478 697 b 482 696 478 697 481 697 l 208 194 l 208 199 z "},"∞":{"ha":1088,"x_min":0,"x_max":0,"o":"m 246 156 l 386 156 b 471 179 415 156 444 160 b 507 210 481 185 493 197 b 543 179 519 197 535 185 b 628 156 569 160 600 156 l 768 156 b 853 179 796 156 826 160 b 919 246 869 190 904 225 b 950 347 939 274 950 313 l 950 361 b 919 461 950 396 939 433 b 853 529 904 482 869 518 b 768 553 826 549 796 553 l 628 553 b 543 529 600 553 569 549 b 507 497 535 524 519 511 b 471 529 493 511 481 524 b 386 553 444 549 415 553 l 246 553 b 163 529 218 553 188 549 b 94 461 144 518 110 482 b 65 361 75 433 65 396 l 65 347 b 94 246 65 313 75 274 b 163 179 110 225 144 190 b 246 156 188 160 218 156 z m 393 422 b 401 421 393 422 399 422 b 446 374 418 411 436 390 l 446 361 l 446 347 l 446 335 b 401 289 436 318 415 297 b 393 288 397 288 396 288 l 228 288 b 188 333 217 289 193 321 b 183 342 185 336 183 339 l 183 367 b 185 375 183 372 185 375 b 228 422 194 392 217 422 z m 775 422 b 783 421 775 422 781 422 b 828 374 800 411 818 390 b 829 367 829 371 829 369 l 829 342 b 828 335 829 339 829 338 b 783 289 818 318 797 297 b 775 288 779 288 776 288 l 610 288 b 568 333 599 289 575 321 l 568 347 l 568 361 b 567 376 568 367 568 371 b 610 422 578 393 599 422 z "},"±":{"ha":714,"x_min":0,"x_max":0,"o":"m 600 272 l 600 403 l 403 403 l 403 599 l 268 599 l 268 403 l 71 403 l 71 272 l 268 272 l 268 79 l 403 79 l 403 272 z m 600 -131 l 600 0 l 68 0 l 68 -131 z "},"≤":{"ha":650,"x_min":0,"x_max":0,"o":"m 546 549 l 546 701 l 28 424 l 28 329 l 544 50 l 544 204 l 224 376 z "},"≥":{"ha":650,"x_min":0,"x_max":0,"o":"m 564 329 l 564 424 l 46 701 l 46 549 l 367 376 l 47 204 l 47 50 z "},"¥":{"ha":682,"x_min":0,"x_max":0,"o":"m 693 831 l 532 831 l 350 522 l 169 831 l 8 831 l 207 494 l 89 494 l 89 364 l 276 364 l 276 324 l 89 324 l 89 193 l 276 193 l 276 0 l 422 0 l 422 193 l 603 193 l 603 324 l 422 324 l 422 364 l 603 364 l 603 494 l 488 494 z "},"µ":{"ha":678,"x_min":0,"x_max":0,"o":"m 569 0 l 557 124 l 557 600 l 418 600 l 418 182 b 336 126 400 163 350 126 l 236 126 b 228 128 232 126 231 126 b 182 169 213 138 190 154 l 182 600 l 43 600 b 43 -224 43 168 42 158 l 182 -224 l 182 1 b 236 -6 199 -3 218 -6 l 340 -6 b 428 35 372 -6 403 17 l 432 0 z "},"∂":{"ha":676,"x_min":0,"x_max":0,"o":"m 424 663 b 428 647 428 658 428 650 l 428 560 b 347 604 428 560 379 604 l 246 604 b 150 575 213 604 178 594 b 74 500 131 561 86 518 b 49 414 57 475 49 444 l 49 185 b 74 100 49 156 57 125 b 150 24 86 82 131 38 b 246 -7 176 4 213 -7 l 369 -7 b 465 24 403 -7 439 4 b 542 100 485 38 529 82 b 567 183 558 125 567 154 l 567 643 b 542 728 567 672 558 703 b 465 804 529 746 485 790 b 369 835 439 824 403 835 l 188 835 b 225 704 186 835 228 704 l 374 704 b 424 663 388 704 424 663 z m 188 418 b 189 426 188 422 189 426 b 240 474 201 449 228 474 l 343 474 b 365 469 344 474 358 475 b 428 410 365 469 415 433 l 428 192 b 426 172 428 174 426 172 b 374 125 414 151 388 125 l 240 125 b 189 171 228 125 201 150 b 188 189 188 174 188 176 z "},"∑":{"ha":703,"x_min":0,"x_max":0,"o":"m 476 428 l 251 692 l 607 692 l 607 831 l 60 831 l 60 710 l 303 431 l 63 118 l 63 0 l 608 0 l 608 139 l 251 139 z "},"∏":{"ha":776,"x_min":0,"x_max":0,"o":"m 638 0 l 638 831 l 61 831 l 61 0 l 207 0 l 207 692 l 492 692 l 492 0 z "},"π":{"ha":883,"x_min":0,"x_max":0,"o":"m 147 468 l 147 0 l 286 0 l 286 468 l 522 468 l 522 103 b 536 0 522 103 532 28 l 676 0 l 661 118 l 661 468 l 771 468 l 771 600 l 40 600 l 40 468 z "},"∫":{"ha":465,"x_min":0,"x_max":0,"o":"m -53 -97 l -53 -229 l 64 -229 b 163 -200 97 -229 135 -219 b 231 -132 185 -185 219 -147 b 254 -44 249 -106 254 -75 l 254 644 b 254 656 254 649 254 651 b 299 697 256 668 286 690 b 311 699 300 699 310 699 l 426 699 l 426 831 l 310 831 b 208 800 275 831 236 819 b 142 733 186 785 153 749 b 115 647 122 707 117 676 b 115 -42 115 279 115 -42 b 114 -49 115 -47 114 -49 b 71 -96 104 -68 86 -86 b 63 -97 68 -97 63 -97 z "},"ª":{"ha":535,"x_min":0,"x_max":0,"o":"m 438 389 l 425 485 l 425 842 l 311 842 l 311 829 b 264 843 294 836 276 843 l 189 843 b 113 819 163 843 133 833 b 60 768 96 807 69 781 b 42 701 44 747 42 724 l 42 524 b 60 457 42 501 44 478 b 113 406 69 444 96 418 b 189 382 133 392 163 382 l 250 382 b 318 414 264 382 292 397 l 322 389 z m 310 690 l 310 535 b 308 528 310 533 310 529 b 263 497 301 519 274 504 b 256 496 261 496 257 496 l 197 496 b 190 497 196 496 192 496 b 158 528 179 504 165 518 b 157 535 157 531 157 535 l 157 690 b 158 697 157 690 157 694 b 190 728 165 707 179 721 b 197 729 192 729 196 729 l 269 729 b 276 728 271 729 275 729 b 308 697 288 721 301 706 b 310 690 310 696 310 692 z "},"º":{"ha":522,"x_min":0,"x_max":0,"o":"m 425 524 l 425 701 b 407 768 425 724 422 747 b 356 819 397 781 371 807 b 278 843 333 833 304 843 l 189 843 b 113 819 163 843 133 833 b 60 768 96 807 69 781 b 42 701 44 747 42 724 l 42 524 b 60 457 42 501 44 478 b 113 406 69 444 96 418 b 189 382 133 392 163 382 l 278 382 b 356 406 304 382 333 392 b 407 457 371 418 397 444 b 425 524 422 478 425 501 z m 310 690 l 310 535 b 308 528 310 533 310 529 b 276 497 301 519 288 504 b 269 496 275 496 271 496 l 197 496 b 190 497 196 496 192 496 b 158 528 179 504 165 518 b 157 535 157 531 157 535 l 157 690 b 158 697 157 690 157 694 b 190 728 165 707 179 721 b 197 729 192 729 196 729 l 269 729 b 276 728 271 729 275 729 b 308 697 288 721 301 706 b 310 690 310 696 310 692 z "},"Ω":{"ha":851,"x_min":0,"x_max":0,"o":"m 61 633 l 61 314 b 85 233 61 288 68 258 b 185 138 101 210 142 171 l 186 136 l 38 136 l 38 0 l 356 0 l 356 136 b 204 317 328 158 204 296 l 204 619 b 206 635 204 622 204 632 b 268 696 219 657 250 686 b 274 697 268 696 271 697 l 521 697 b 526 696 524 697 526 696 b 589 635 544 686 575 657 b 590 619 590 632 590 622 l 590 317 b 439 136 590 296 467 158 l 439 0 l 757 0 l 757 136 l 607 136 l 610 138 b 710 233 653 171 693 210 b 733 314 726 258 733 288 l 733 633 b 711 711 733 660 728 686 b 610 811 694 735 639 794 b 524 836 588 824 554 836 l 271 836 b 185 811 240 836 207 824 b 83 711 156 794 100 735 b 61 633 67 686 61 660 z "},"æ":{"ha":1028,"x_min":0,"x_max":0,"o":"m 921 229 l 921 425 b 896 510 921 453 915 483 b 829 576 885 526 850 561 b 728 607 801 596 763 607 l 600 607 b 499 576 565 607 526 596 b 476 558 492 571 485 565 b 454 576 468 565 460 571 b 353 607 426 596 388 607 l 233 607 b 133 574 200 607 160 592 b 43 471 111 558 57 504 l 174 432 b 229 475 182 443 213 475 l 351 475 b 360 472 354 475 357 474 b 406 431 376 463 397 444 l 406 425 l 406 379 l 214 379 b 114 349 179 379 142 368 b 49 283 93 333 60 299 b 24 199 31 258 24 229 l 24 174 b 49 89 24 143 31 114 b 114 24 60 74 93 39 b 214 -7 142 4 179 -7 l 328 -7 b 415 28 360 -7 390 10 l 457 58 b 499 22 471 44 486 31 b 600 -7 526 3 565 -7 l 731 -7 b 831 25 764 -7 804 7 b 919 128 853 40 906 94 l 790 167 b 786 161 790 165 789 164 b 735 124 778 151 749 124 l 600 124 b 546 169 586 124 558 149 b 544 176 546 169 544 172 l 544 229 z m 324 124 l 215 124 b 207 126 213 124 207 126 b 163 171 192 136 172 154 b 161 175 163 171 161 174 l 161 197 b 163 201 161 199 163 201 b 206 246 172 218 190 236 b 215 249 207 247 211 249 l 406 249 l 406 178 b 324 124 390 163 338 124 z m 782 360 l 544 360 l 544 422 b 546 431 544 422 544 428 b 600 475 558 451 586 475 l 726 475 b 735 474 729 475 732 475 b 781 431 751 464 772 444 b 782 422 782 429 782 422 z m 789 167 l 790 167 b 789 167 790 168 789 167 z "},"ø":{"ha":679,"x_min":0,"x_max":0,"o":"m 551 642 l 457 642 l 435 600 b 388 607 418 604 403 607 l 240 607 b 140 576 206 607 168 596 b 72 510 119 561 83 526 b 49 425 53 483 49 453 l 49 175 b 72 90 49 147 53 117 b 121 38 81 78 101 54 l 74 -49 l 164 -49 l 190 0 b 240 -7 207 -4 224 -7 l 388 -7 b 489 22 422 -7 461 3 b 556 90 510 38 544 74 b 579 175 575 117 579 147 l 579 425 b 556 510 579 453 575 483 b 507 561 547 522 525 544 z m 439 429 l 440 421 l 440 168 b 394 128 439 157 407 135 b 386 125 392 126 389 125 l 261 125 l 435 435 z m 188 421 b 189 429 188 421 188 426 b 235 474 199 446 218 464 b 242 475 238 475 239 475 l 364 475 l 190 161 b 188 168 189 163 188 165 z "},"¿":{"ha":639,"x_min":0,"x_max":0,"o":"m 53 286 l 53 190 b 78 106 53 161 61 131 b 149 32 90 88 129 46 b 246 0 175 13 213 0 l 411 0 b 588 114 490 0 553 64 b 619 172 600 132 608 149 l 482 213 l 476 203 b 418 143 464 181 435 154 b 407 139 414 140 410 139 l 251 139 b 200 185 238 139 213 164 b 199 192 200 185 199 190 l 199 282 b 217 310 199 294 206 304 b 408 501 299 351 408 388 l 408 608 l 263 608 l 263 507 b 153 435 263 478 175 446 b 53 286 100 408 53 356 z m 251 835 l 251 672 l 419 672 l 419 835 z "},"¡":{"ha":363,"x_min":0,"x_max":0,"o":"m 224 676 l 224 831 l 67 831 l 67 676 z m 217 0 l 217 600 l 74 600 l 74 0 z "},"¬":{"ha":714,"x_min":0,"x_max":0,"o":"m 638 403 l 639 403 l 61 403 l 61 272 l 504 272 l 504 79 l 639 79 z "},"√":{"ha":938,"x_min":0,"x_max":0,"o":"m 864 1038 l 786 1038 l 408 -126 l 232 403 l -11 403 l -11 272 l 135 272 l 304 -226 l 451 -226 z "},"ƒ":{"ha":465,"x_min":0,"x_max":0,"o":"m -53 -97 l -53 -229 l 64 -229 b 163 -200 97 -229 135 -219 b 231 -132 185 -185 219 -147 b 254 -44 249 -106 254 -75 l 254 468 l 351 468 l 351 600 l 254 600 l 254 644 b 254 656 254 649 254 651 b 299 697 256 668 286 690 b 311 699 300 699 310 699 l 426 699 l 426 831 l 310 831 b 208 800 275 831 236 819 b 142 733 186 785 153 749 b 115 647 122 707 117 676 l 115 600 l 24 600 l 24 468 l 115 468 b 115 -42 115 279 115 -42 b 114 -49 115 -47 114 -49 b 71 -96 104 -68 86 -86 b 63 -97 68 -97 63 -97 z "},"≈":{"ha":675,"x_min":0,"x_max":0,"o":"m 571 211 b 376 325 532 308 451 339 l 221 307 b 186 338 208 304 199 308 l 54 313 b 249 200 93 215 174 186 l 403 217 b 438 186 415 219 425 215 z m 571 418 b 376 532 532 515 451 546 l 221 514 b 186 544 208 511 199 515 l 54 519 b 249 407 93 422 174 393 l 403 424 b 438 393 415 426 425 422 z "},"∆":{"ha":776,"x_min":0,"x_max":0,"o":"m 715 0 l 426 831 l 257 831 l -33 0 z m 511 139 l 171 139 l 342 643 z "},"«":{"ha":832,"x_min":0,"x_max":0,"o":"m 739 153 l 549 338 l 736 518 l 585 563 l 361 338 l 585 113 z m 429 153 l 239 338 l 426 518 l 275 563 l 51 338 l 275 113 z "},"»":{"ha":817,"x_min":0,"x_max":0,"o":"m 206 113 l 429 338 l 206 563 l 54 518 l 242 338 l 51 153 z m 515 113 l 739 338 l 515 563 l 364 518 l 551 338 l 361 153 z "},"…":{"ha":946,"x_min":0,"x_max":0,"o":"m 800 0 l 800 175 l 629 175 l 629 0 z m 549 0 l 549 175 l 378 175 l 378 0 z m 297 0 l 297 175 l 126 175 l 126 0 z "}," ":{"ha":278,"x_min":0,"x_max":0,"o":""},"À":{"ha":763,"x_min":0,"x_max":0,"o":"m 715 0 l 426 831 l 257 831 l -33 0 l 122 0 l 183 176 l 499 176 l 560 0 z m 453 315 l 229 315 l 342 643 z m 474 903 l 346 1068 l 182 1068 l 346 865 z "},"Ã":{"ha":763,"x_min":0,"x_max":0,"o":"m 715 0 l 426 831 l 257 831 l -33 0 l 122 0 l 183 176 l 499 176 l 560 0 z m 453 315 l 229 315 l 342 643 z m 567 917 b 375 1031 528 1015 446 1053 l 281 1001 b 232 1036 267 997 244 1007 l 114 1007 b 308 894 153 910 240 872 l 399 924 b 456 885 413 928 443 914 z "},"Õ":{"ha":804,"x_min":0,"x_max":0,"o":"m 693 197 l 693 632 b 671 711 693 658 688 686 b 569 811 653 735 599 794 b 483 836 547 825 513 836 l 272 836 b 186 811 242 836 208 825 b 85 711 157 794 101 735 b 63 632 68 686 63 658 l 63 197 b 85 118 63 171 68 143 b 186 18 101 94 157 35 b 272 -7 208 4 242 -7 l 483 -7 b 569 18 513 -7 547 4 b 671 118 599 35 653 94 b 693 197 688 143 693 171 z m 208 628 b 210 635 208 628 208 632 b 271 696 226 660 256 688 b 278 697 272 697 278 697 l 478 697 b 485 696 479 697 482 697 b 546 635 500 688 529 660 b 547 628 547 633 547 628 l 547 199 b 546 193 547 199 547 196 b 485 133 529 168 500 142 b 478 132 482 132 478 132 l 278 132 b 271 133 276 132 274 132 b 210 193 256 142 226 168 b 208 199 208 194 208 199 z m 608 917 b 417 1031 569 1015 488 1053 l 322 1001 b 274 1036 308 997 286 1007 l 156 1007 b 350 894 194 910 282 872 l 440 924 b 497 885 454 928 485 914 z "},"Œ":{"ha":1176,"x_min":0,"x_max":0,"o":"m 1043 0 l 1043 139 l 681 139 l 681 343 l 1017 343 l 1017 482 l 681 482 l 681 692 l 1043 692 l 1043 831 l 535 831 l 535 822 b 469 836 514 831 490 836 l 272 836 b 186 811 242 836 208 825 b 85 711 157 794 101 735 b 63 632 68 686 63 658 l 63 197 b 85 118 63 171 68 143 b 186 18 101 94 157 35 b 272 -7 208 4 242 -7 l 469 -7 b 535 7 490 -7 514 -1 l 535 0 z m 208 628 b 210 635 208 628 208 632 b 271 696 226 660 256 688 b 278 697 272 697 278 697 l 464 697 b 471 696 465 697 468 697 b 532 635 486 688 515 660 b 533 628 533 633 533 628 l 533 199 b 532 193 533 199 533 196 b 471 133 515 168 486 142 b 464 132 468 132 464 132 l 278 132 b 271 133 276 132 274 132 b 210 193 256 142 226 168 b 208 199 208 194 208 199 z "},"œ":{"ha":1086,"x_min":0,"x_max":0,"o":"m 563 175 l 563 229 l 939 229 l 939 425 b 914 510 939 453 933 483 b 847 576 903 526 868 561 b 746 607 819 596 781 607 l 618 607 b 517 576 583 607 544 596 b 494 557 510 571 501 565 b 472 576 486 565 478 571 b 371 607 444 596 406 607 l 240 607 b 140 576 206 607 168 596 b 72 510 119 561 83 526 b 49 425 53 483 49 453 l 49 175 b 72 90 49 147 53 117 b 140 22 83 74 119 38 b 240 -7 168 3 206 -7 l 371 -7 b 472 22 406 -7 444 3 b 494 40 478 26 486 33 b 517 22 501 33 510 26 b 618 -7 544 3 583 -7 l 749 -7 b 849 25 782 -7 822 7 b 938 128 871 40 924 94 l 808 167 b 804 161 808 165 807 164 b 753 122 796 151 767 122 l 618 122 b 564 169 604 122 576 149 b 563 175 564 169 563 171 z m 186 421 b 188 429 186 421 186 426 b 235 474 197 446 218 464 b 242 475 238 475 239 475 l 369 475 b 376 474 372 475 374 475 b 422 429 393 464 414 443 b 424 424 422 426 424 425 l 424 175 l 424 167 b 378 126 421 156 390 133 b 369 124 375 125 372 124 l 242 124 b 233 125 236 124 233 125 b 186 168 217 135 186 157 z m 800 360 l 563 360 l 563 425 l 563 426 b 564 431 563 428 563 429 b 618 475 576 451 604 475 l 744 475 b 753 474 747 475 750 475 b 799 431 769 464 790 444 b 800 422 800 429 800 422 z m 807 167 l 808 167 b 807 167 808 168 807 167 z "},"–":{"ha":646,"x_min":0,"x_max":0,"o":"m 542 272 l 542 403 l 49 403 l 49 272 z "},"—":{"ha":753,"x_min":0,"x_max":0,"o":"m 663 272 l 663 401 l 49 401 l 49 272 z "},"“":{"ha":536,"x_min":0,"x_max":0,"o":"m -18 658 l 117 617 l 240 881 l 85 881 z m 239 658 l 374 617 l 497 881 l 342 881 z "},"”":{"ha":528,"x_min":0,"x_max":0,"o":"m 490 847 l 356 889 l 232 625 l 388 625 z m 233 847 l 99 889 l -25 625 l 131 625 z "},"‘":{"ha":308,"x_min":0,"x_max":0,"o":"m 240 847 l 106 889 l -18 625 l 138 625 z "},"’":{"ha":308,"x_min":0,"x_max":0,"o":"m -25 667 l 110 625 l 233 889 l 78 889 z "},"÷":{"ha":653,"x_min":0,"x_max":0,"o":"m 542 272 l 542 404 l 49 404 l 49 272 z m 379 507 l 379 682 l 208 682 l 208 507 z m 379 0 l 379 175 l 208 175 l 208 0 z "},"◊":{"ha":992,"x_min":0,"x_max":0,"o":"m 642 393 b 663 468 657 417 663 442 l 663 490 b 642 561 661 515 656 539 b 588 618 632 576 607 606 b 501 646 564 635 532 646 l 296 646 l 296 179 l 419 179 l 419 311 l 486 311 b 596 343 532 311 574 325 b 642 393 614 358 633 382 z m 547 492 l 547 467 b 511 428 539 451 522 433 l 419 428 l 419 531 l 510 531 b 547 492 522 522 539 506 z m 82 117 b 182 18 99 93 153 35 b 267 -6 204 4 238 -6 l 686 -6 b 771 18 715 -6 749 4 b 871 117 800 35 854 93 b 893 196 889 142 893 172 l 893 635 b 869 714 893 661 886 689 b 769 813 853 738 799 796 b 685 836 747 826 714 836 l 265 836 b 181 813 236 836 203 826 b 81 714 151 796 97 738 b 58 635 63 689 58 658 l 58 196 b 82 117 58 169 65 142 z m 756 199 b 754 190 756 196 756 193 b 690 128 740 163 707 136 b 678 125 688 126 683 125 l 274 125 b 264 128 269 125 267 126 b 196 199 242 139 196 189 l 196 632 b 197 640 196 635 196 638 b 261 703 211 668 244 694 b 274 706 264 704 268 706 l 678 706 b 688 703 682 706 685 704 b 756 632 710 692 756 642 z "},"ÿ":{"ha":593,"x_min":0,"x_max":0,"o":"m 590 600 l 443 600 l 301 193 l 161 600 l 6 600 l 226 0 l 239 0 l 156 -225 l 296 -225 z m 475 689 l 475 832 l 340 832 l 340 689 z m 251 689 l 251 832 l 117 832 l 117 689 z "},"Ÿ":{"ha":722,"x_min":0,"x_max":0,"o":"m 669 831 l 507 831 l 322 515 l 138 831 l -24 831 l 249 363 l 249 0 l 394 0 l 394 363 z m 501 906 l 501 1049 l 367 1049 l 367 906 z m 278 906 l 278 1049 l 143 1049 l 143 906 z "},"⁄":{"ha":900,"x_min":0,"x_max":0,"o":""},"¤":{"ha":771,"x_min":0,"x_max":0,"o":"m 300 226 l 440 226 b 472 228 450 226 461 226 l 539 161 l 632 254 l 582 304 b 592 317 585 308 589 313 b 622 418 611 344 622 383 l 622 432 b 592 532 622 467 611 504 b 583 542 589 535 586 539 l 632 592 l 539 688 l 472 621 b 440 624 461 624 450 624 l 300 624 b 265 621 289 624 278 624 l 200 688 l 110 594 l 157 546 b 146 532 153 540 149 536 b 117 432 126 504 117 467 l 117 418 b 146 317 117 383 126 344 l 154 304 l 107 257 l 203 161 l 269 228 b 300 226 279 226 290 226 z m 447 493 b 456 492 447 493 451 493 b 500 444 471 482 490 461 l 500 406 b 456 360 490 389 469 368 b 447 358 451 358 447 358 l 282 358 b 239 404 271 360 247 392 b 238 413 238 407 238 410 l 238 446 b 282 493 247 463 271 493 z "},"‹":{"ha":522,"x_min":0,"x_max":0,"o":"m 429 153 l 239 338 l 426 518 l 275 563 l 51 338 l 275 113 z "},"›":{"ha":507,"x_min":0,"x_max":0,"o":"m 206 113 l 429 338 l 206 563 l 54 518 l 242 338 l 51 153 z "},"ﬁ":{"ha":772,"x_min":0,"x_max":0,"o":"m 426 704 l 426 836 l 296 836 b 194 806 261 836 222 825 b 128 739 172 790 139 754 b 103 653 108 713 103 682 l 103 600 l 10 600 l 10 468 l 103 468 l 103 0 l 242 0 l 242 468 l 393 468 l 393 600 l 242 600 b 242 661 242 646 242 657 b 285 703 243 674 272 696 b 297 704 286 704 296 704 z m 676 685 l 676 833 l 528 833 l 528 685 z m 672 0 l 672 600 l 533 600 l 533 0 z "},"ﬂ":{"ha":792,"x_min":0,"x_max":0,"o":"m 426 704 l 426 836 l 296 836 b 194 806 261 836 222 825 b 128 739 172 790 139 754 b 103 653 108 713 103 682 l 103 600 l 10 600 l 10 468 l 103 468 l 103 0 l 242 0 l 242 468 l 393 468 l 393 600 l 242 600 b 242 661 242 646 242 657 b 285 703 243 674 272 696 b 297 704 286 704 296 704 z m 682 0 l 667 118 l 667 831 l 528 831 l 528 103 b 542 0 528 103 538 28 z "},"‡":{"ha":456,"x_min":0,"x_max":0,"o":"m 397 468 l 397 600 l 306 600 l 306 831 l 167 831 l 167 600 l 76 600 l 76 468 l 167 468 l 167 418 l 76 418 l 76 286 l 167 286 l 167 0 l 306 0 l 306 286 l 397 286 l 397 418 l 306 418 l 306 468 z "},"·":{"ha":397,"x_min":0,"x_max":0,"o":"m 247 272 l 247 411 l 78 411 l 78 272 z "},"‚":{"ha":278,"x_min":0,"x_max":0,"o":"m 233 104 l 99 146 l -25 -118 l 131 -118 z "},"„":{"ha":535,"x_min":0,"x_max":0,"o":"m 490 104 l 356 146 l 232 -118 l 388 -118 z m 233 104 l 99 146 l -25 -118 l 131 -118 z "},"‰":{"ha":1628,"x_min":0,"x_max":0,"o":"m 857 832 l 699 832 l 242 0 l 399 0 z m 1510 128 l 1510 306 b 1492 372 1510 328 1507 351 b 1440 424 1482 385 1456 411 b 1363 447 1418 438 1389 447 l 1274 447 b 1197 424 1247 447 1218 438 b 1144 372 1181 411 1154 385 b 1126 306 1129 351 1126 328 l 1126 128 b 1144 61 1126 106 1129 82 b 1197 10 1154 49 1181 22 b 1274 -14 1218 -4 1247 -14 l 1363 -14 b 1440 10 1389 -14 1418 -4 b 1492 61 1456 22 1482 49 b 1510 128 1507 82 1510 106 z m 1394 294 l 1394 139 b 1393 132 1394 138 1394 133 b 1361 101 1386 124 1372 108 b 1354 100 1360 100 1356 100 l 1282 100 b 1275 101 1281 100 1276 100 b 1243 132 1264 108 1250 122 b 1242 139 1242 135 1242 139 l 1242 294 b 1243 301 1242 294 1242 299 b 1275 332 1250 311 1264 325 b 1282 333 1276 333 1281 333 l 1354 333 b 1361 332 1356 333 1360 333 b 1393 301 1372 325 1386 310 b 1394 294 1394 300 1394 296 z m 432 524 l 432 701 b 414 768 432 724 429 747 b 363 819 404 781 378 807 b 285 843 340 833 311 843 l 196 843 b 119 819 169 843 140 833 b 67 768 103 807 76 781 b 49 701 51 747 49 724 l 49 524 b 67 457 49 501 51 478 b 119 406 76 444 103 418 b 196 382 140 392 169 382 l 285 382 b 363 406 311 382 340 392 b 414 457 378 418 404 444 b 432 524 429 478 432 501 z m 317 690 l 317 535 b 315 528 317 533 317 529 b 283 497 308 519 294 504 b 276 496 282 496 278 496 l 204 496 b 197 497 203 496 199 496 b 165 528 186 504 172 518 b 164 535 164 531 164 535 l 164 690 b 165 697 164 690 164 694 b 197 728 172 707 186 721 b 204 729 199 729 203 729 l 276 729 b 283 728 278 729 282 729 b 315 697 294 721 308 706 b 317 690 317 696 317 692 z m 1043 128 l 1043 306 b 1025 372 1043 328 1040 351 b 974 424 1015 385 989 411 b 896 447 951 438 922 447 l 807 447 b 731 424 781 447 751 438 b 678 372 714 411 688 385 b 660 306 663 351 660 328 l 660 128 b 678 61 660 106 663 82 b 731 10 688 49 714 22 b 807 -14 751 -4 781 -14 l 896 -14 b 974 10 922 -14 951 -4 b 1025 61 989 22 1015 49 b 1043 128 1040 82 1043 106 z m 928 294 l 928 139 b 926 132 928 138 928 133 b 894 101 919 124 906 108 b 888 100 893 100 889 100 l 815 100 b 808 101 814 100 810 100 b 776 132 797 108 783 122 b 775 139 775 135 775 139 l 775 294 b 776 301 775 294 775 299 b 808 332 783 311 797 325 b 815 333 810 333 814 333 l 888 333 b 894 332 889 333 893 333 b 926 301 906 325 919 310 b 928 294 928 300 928 296 z "},"Â":{"ha":763,"x_min":0,"x_max":0,"o":"m 715 0 l 426 831 l 257 831 l -33 0 l 122 0 l 183 176 l 499 176 l 560 0 z m 453 315 l 229 315 l 342 643 z m 299 885 l 351 957 l 404 885 l 553 885 l 417 1067 l 286 1067 l 150 885 z "},"Ê":{"ha":717,"x_min":0,"x_max":0,"o":"m 583 0 l 583 139 l 207 139 l 207 343 l 557 343 l 557 482 l 207 482 l 207 692 l 583 692 l 583 831 l 61 831 l 61 0 z m 276 885 l 329 957 l 382 885 l 531 885 l 394 1067 l 264 1067 l 128 885 z "},"Á":{"ha":763,"x_min":0,"x_max":0,"o":"m 715 0 l 426 831 l 257 831 l -33 0 l 122 0 l 183 176 l 499 176 l 560 0 z m 453 315 l 229 315 l 342 643 z m 406 878 l 569 1081 l 406 1081 l 278 915 z "},"Ë":{"ha":717,"x_min":0,"x_max":0,"o":"m 583 0 l 583 139 l 207 139 l 207 343 l 557 343 l 557 482 l 207 482 l 207 692 l 583 692 l 583 831 l 61 831 l 61 0 z m 511 906 l 511 1049 l 376 1049 l 376 906 z m 288 906 l 288 1049 l 153 1049 l 153 906 z "},"È":{"ha":717,"x_min":0,"x_max":0,"o":"m 583 0 l 583 139 l 207 139 l 207 343 l 557 343 l 557 482 l 207 482 l 207 692 l 583 692 l 583 831 l 61 831 l 61 0 z m 457 915 l 329 1081 l 165 1081 l 329 878 z "},"Í":{"ha":333,"x_min":0,"x_max":0,"o":"m 207 0 l 207 831 l 61 831 l 61 0 z m 189 878 l 353 1081 l 189 1081 l 61 915 z "},"Î":{"ha":333,"x_min":0,"x_max":0,"o":"m 207 0 l 207 831 l 61 831 l 61 0 z m 81 885 l 133 957 l 186 885 l 335 885 l 199 1067 l 68 1067 l -68 885 z "},"Ï":{"ha":333,"x_min":0,"x_max":0,"o":"m 207 0 l 207 831 l 61 831 l 61 0 z m 313 907 l 313 1050 l 178 1050 l 178 907 z m 89 907 l 89 1050 l -46 1050 l -46 907 z "},"Ì":{"ha":333,"x_min":0,"x_max":0,"o":"m 207 0 l 207 831 l 61 831 l 61 0 z m 210 915 l 82 1081 l -82 1081 l 82 878 z "},"Ó":{"ha":818,"x_min":0,"x_max":0,"o":"m 693 197 l 693 632 b 671 711 693 658 688 686 b 569 811 653 735 599 794 b 483 836 547 825 513 836 l 272 836 b 186 811 242 836 208 825 b 85 711 157 794 101 735 b 63 632 68 686 63 658 l 63 197 b 85 118 63 171 68 143 b 186 18 101 94 157 35 b 272 -7 208 4 242 -7 l 483 -7 b 569 18 513 -7 547 4 b 671 118 599 35 653 94 b 693 197 688 143 693 171 z m 208 628 b 210 635 208 628 208 632 b 271 696 226 660 256 688 b 278 697 272 697 278 697 l 478 697 b 485 696 479 697 482 697 b 546 635 500 688 529 660 b 547 628 547 633 547 628 l 547 199 b 546 193 547 199 547 196 b 485 133 529 168 500 142 b 478 132 482 132 478 132 l 278 132 b 271 133 276 132 274 132 b 210 193 256 142 226 168 b 208 199 208 194 208 199 z m 368 878 l 532 1081 l 368 1081 l 240 915 z "},"Ô":{"ha":818,"x_min":0,"x_max":0,"o":"m 693 197 l 693 632 b 671 711 693 658 688 686 b 569 811 653 735 599 794 b 483 836 547 825 513 836 l 272 836 b 186 811 242 836 208 825 b 85 711 157 794 101 735 b 63 632 68 686 63 658 l 63 197 b 85 118 63 171 68 143 b 186 18 101 94 157 35 b 272 -7 208 4 242 -7 l 483 -7 b 569 18 513 -7 547 4 b 671 118 599 35 653 94 b 693 197 688 143 693 171 z m 208 628 b 210 635 208 628 208 632 b 271 696 226 660 256 688 b 278 697 272 697 278 697 l 478 697 b 485 696 479 697 482 697 b 546 635 500 688 529 660 b 547 628 547 633 547 628 l 547 199 b 546 193 547 199 547 196 b 485 133 529 168 500 142 b 478 132 482 132 478 132 l 278 132 b 271 133 276 132 274 132 b 210 193 256 142 226 168 b 208 199 208 194 208 199 z m 335 885 l 388 957 l 440 885 l 589 885 l 453 1067 l 322 1067 l 186 885 z "},"Ò":{"ha":815,"x_min":0,"x_max":0,"o":"m 693 197 l 693 632 b 671 711 693 658 688 686 b 569 811 653 735 599 794 b 483 836 547 825 513 836 l 272 836 b 186 811 242 836 208 825 b 85 711 157 794 101 735 b 63 632 68 686 63 658 l 63 197 b 85 118 63 171 68 143 b 186 18 101 94 157 35 b 272 -7 208 4 242 -7 l 483 -7 b 569 18 513 -7 547 4 b 671 118 599 35 653 94 b 693 197 688 143 693 171 z m 208 628 b 210 635 208 628 208 632 b 271 696 226 660 256 688 b 278 697 272 697 278 697 l 478 697 b 485 696 479 697 482 697 b 546 635 500 688 529 660 b 547 628 547 633 547 628 l 547 199 b 546 193 547 199 547 196 b 485 133 529 168 500 142 b 478 132 482 132 478 132 l 278 132 b 271 133 276 132 274 132 b 210 193 256 142 226 168 b 208 199 208 194 208 199 z m 504 915 l 376 1081 l 213 1081 l 376 878 z "},"Ú":{"ha":771,"x_min":0,"x_max":0,"o":"m 497 831 l 643 831 l 643 197 b 621 118 643 171 638 143 b 519 18 604 94 550 35 b 435 -7 497 4 464 -7 l 258 -7 b 172 18 228 -7 194 4 b 71 118 143 35 88 94 b 49 197 54 143 49 171 l 49 831 l 194 831 l 194 200 b 196 193 194 200 194 194 b 257 133 213 168 240 142 b 264 132 260 132 264 132 l 429 132 b 436 133 431 132 433 132 b 496 193 451 142 479 168 b 497 199 497 196 497 199 z m 354 878 l 518 1081 l 354 1081 l 226 915 z "},"Û":{"ha":771,"x_min":0,"x_max":0,"o":"m 497 831 l 643 831 l 643 197 b 621 118 643 171 638 143 b 519 18 604 94 550 35 b 435 -7 497 4 464 -7 l 258 -7 b 172 18 228 -7 194 4 b 71 118 143 35 88 94 b 49 197 54 143 49 171 l 49 831 l 194 831 l 194 200 b 196 193 194 200 194 194 b 257 133 213 168 240 142 b 264 132 260 132 264 132 l 429 132 b 436 133 431 132 433 132 b 496 193 451 142 479 168 b 497 199 497 196 497 199 z m 301 885 l 354 957 l 407 885 l 556 885 l 419 1067 l 289 1067 l 153 885 z "},"Ù":{"ha":771,"x_min":0,"x_max":0,"o":"m 497 831 l 643 831 l 643 197 b 621 118 643 171 638 143 b 519 18 604 94 550 35 b 435 -7 497 4 464 -7 l 258 -7 b 172 18 228 -7 194 4 b 71 118 143 35 88 94 b 49 197 54 143 49 171 l 49 831 l 194 831 l 194 200 b 196 193 194 200 194 194 b 257 133 213 168 240 142 b 264 132 260 132 264 132 l 429 132 b 436 133 431 132 433 132 b 496 193 451 142 479 168 b 497 199 497 196 497 199 z m 483 915 l 356 1081 l 192 1081 l 356 878 z "},"ı":{"ha":300,"x_min":0,"x_max":0,"o":"m 200 -1 l 200 597 l 61 597 l 61 -1 z "},"ˆ":{"ha":589,"x_min":0,"x_max":0,"o":"m 240 685 l 293 757 l 346 685 l 494 685 l 358 867 l 228 867 l 92 685 z "},"˜":{"ha":642,"x_min":0,"x_max":0,"o":"m 521 722 b 329 836 482 821 400 858 l 235 807 b 186 842 221 803 199 813 l 68 813 b 263 700 107 715 194 678 l 353 729 b 410 690 367 733 397 719 z "},"¯":{"ha":493,"x_min":0,"x_max":0,"o":"m 372 707 l 372 831 l 57 831 l 57 707 z "},"˘":{"ha":494,"x_min":0,"x_max":0,"o":"m 293 828 b 231 761 293 792 267 761 b 165 828 194 761 165 792 l 85 828 b 231 683 85 747 153 683 b 374 828 308 683 374 747 z "},"˙":{"ha":300,"x_min":0,"x_max":0,"o":"m 206 686 l 206 835 l 57 835 l 57 686 z "},"˚":{"ha":683,"x_min":0,"x_max":0,"o":"m 374 828 b 231 969 374 904 308 969 b 85 828 153 969 85 904 b 231 683 85 747 153 683 b 374 828 308 683 374 747 z m 293 828 b 231 761 293 792 267 761 b 165 828 194 761 165 792 b 231 890 165 861 194 890 b 293 828 267 890 293 861 z "},"¸":{"ha":564,"x_min":0,"x_max":0,"o":"m 411 -101 l 276 -61 l 143 -275 l 300 -275 z "},"˝":{"ha":515,"x_min":0,"x_max":0,"o":"m 493 671 l 656 867 l 525 867 l 397 701 z m 303 671 l 465 867 l 335 867 l 207 701 z "},"˛":{"ha":564,"x_min":0,"x_max":0,"o":"m 268 -275 l 425 -275 l 292 -61 l 157 -101 z "},"ˇ":{"ha":589,"x_min":0,"x_max":0,"o":"m 332 867 l 279 788 l 226 867 l 78 867 l 214 685 l 344 685 l 481 867 z "},"":{"ha":694,"x_min":0,"x_max":0,"o":""},"€":{"ha":803,"x_min":0,"x_max":0,"o":"m 672 161 l 531 199 b 468 133 531 199 497 147 b 461 132 465 132 463 132 l 303 132 b 293 133 301 132 294 132 b 229 197 272 144 229 181 l 229 258 l 528 258 l 528 383 l 229 383 l 229 433 l 528 433 l 528 560 l 229 560 l 229 619 b 231 635 229 622 229 632 b 293 696 244 657 275 686 b 299 697 293 696 296 697 l 463 697 b 468 696 464 697 467 697 b 531 632 489 683 531 632 l 672 672 b 643 721 660 694 654 706 b 467 836 607 768 544 836 l 293 836 b 207 811 263 836 229 824 b 106 711 178 794 122 735 b 83 633 89 686 83 660 l 83 560 l 38 560 l 38 433 l 83 433 l 83 383 l 38 383 l 38 258 l 83 258 l 83 196 b 106 117 83 169 89 142 b 207 18 122 92 178 35 b 293 -7 229 4 263 -7 l 467 -7 b 643 108 544 -7 607 60 b 672 161 654 124 661 136 z "},"Š":{"ha":793,"x_min":0,"x_max":0,"o":"m 675 197 l 675 285 b 567 436 675 347 638 417 l 204 542 b 189 565 197 543 189 553 l 189 635 b 249 696 189 646 226 685 b 257 697 249 696 251 697 l 453 697 b 461 696 460 697 461 696 b 522 632 490 678 522 632 l 663 672 b 635 721 653 693 646 706 b 458 836 599 768 542 836 l 253 836 b 167 811 222 836 189 824 b 64 711 138 794 81 736 b 43 632 47 686 43 656 l 43 557 b 151 406 43 493 81 425 l 513 303 b 529 279 519 301 529 292 l 529 197 b 467 133 529 186 488 144 b 458 132 467 133 464 132 l 231 132 b 221 133 224 132 221 133 b 160 197 188 158 160 197 l 22 151 b 47 108 33 131 36 124 b 224 -7 83 60 142 -7 l 465 -7 b 551 18 494 -7 529 6 b 653 118 581 35 636 93 b 675 197 671 143 675 174 z m 404 1067 l 351 988 l 299 1067 l 150 1067 l 286 885 l 417 885 l 553 1067 z "},"š":{"ha":651,"x_min":0,"x_max":0,"o":"m 350 867 l 297 788 l 244 867 l 96 867 l 232 685 l 363 685 l 499 867 z m 153 163 l 149 168 l 19 129 b 108 26 35 92 81 46 b 208 -7 135 8 175 -7 l 367 -7 b 465 24 401 -7 438 4 b 528 88 488 39 517 71 b 554 172 546 113 554 142 l 554 211 b 417 354 554 303 492 346 b 199 375 340 363 235 371 b 178 393 185 376 178 389 l 178 426 b 179 440 178 438 179 440 b 211 472 188 456 206 469 b 229 475 217 475 229 475 l 363 475 b 414 439 376 475 406 449 b 418 433 417 436 418 433 l 549 472 b 458 575 533 510 486 556 b 358 607 432 593 392 607 l 225 607 b 64 514 156 607 103 569 b 39 429 46 489 39 460 l 39 388 b 169 246 39 299 96 251 b 397 228 249 239 349 232 b 415 208 413 226 415 215 l 415 175 b 365 125 415 156 382 125 l 204 125 b 153 163 190 126 161 153 z "},"þ":{"ha":682,"x_min":0,"x_max":0,"o":"m 572 176 l 572 422 b 547 508 572 453 565 482 b 481 576 536 525 501 561 b 381 607 454 596 415 607 l 279 607 b 197 572 249 607 221 590 l 197 833 l 58 833 l 58 -226 l 197 -226 l 197 25 b 279 -7 221 8 250 -7 l 381 -7 b 481 22 415 -7 453 3 b 547 90 503 38 536 75 b 572 176 565 115 572 146 z m 433 179 b 432 172 433 175 432 172 b 388 126 422 156 403 136 b 379 125 385 125 383 125 l 283 125 b 197 186 267 125 215 165 l 197 413 b 283 475 215 433 268 475 l 379 475 b 388 472 382 475 385 474 b 432 428 403 463 422 444 b 433 419 432 428 433 425 z "},"Þ":{"ha":746,"x_min":0,"x_max":0,"o":"m 650 356 l 650 478 b 625 563 650 507 642 538 b 550 639 613 581 569 625 b 451 669 522 658 485 669 l 207 669 l 207 831 l 61 831 l 61 -1 l 207 -1 l 207 167 l 451 167 b 550 197 485 167 521 176 b 625 271 569 211 613 253 b 650 356 642 296 650 325 z m 504 357 b 503 351 504 354 503 351 b 451 306 492 332 464 306 l 207 306 l 207 531 l 458 531 b 503 486 472 529 494 501 b 504 476 504 483 504 476 z "},"Ś":{"ha":793,"x_min":0,"x_max":0,"o":"m 675 197 l 675 285 b 567 436 675 347 638 417 l 204 542 b 189 565 197 543 189 553 l 189 635 b 249 696 189 646 226 685 b 257 697 249 696 251 697 l 453 697 b 461 696 460 697 461 696 b 522 632 490 678 522 632 l 663 672 b 635 721 653 693 646 706 b 458 836 599 768 542 836 l 253 836 b 167 811 222 836 189 824 b 64 711 138 794 81 736 b 43 632 47 686 43 656 l 43 557 b 151 406 43 493 81 425 l 513 303 b 529 279 519 301 529 292 l 529 197 b 467 133 529 186 488 144 b 458 132 467 133 464 132 l 231 132 b 221 133 224 132 221 133 b 160 197 188 158 160 197 l 22 151 b 47 108 33 131 36 124 b 224 -7 83 60 142 -7 l 465 -7 b 551 18 494 -7 529 6 b 653 118 581 35 636 93 b 675 197 671 143 675 174 z m 367 878 l 531 1081 l 367 1081 l 239 915 z "},"Ť":{"ha":707,"x_min":0,"x_max":0,"o":"m 619 692 l 619 831 l 24 831 l 24 692 l 249 692 l 249 0 l 394 0 l 394 692 z m 368 1067 l 315 988 l 263 1067 l 114 1067 l 250 885 l 381 885 l 517 1067 z "},"Ź":{"ha":682,"x_min":0,"x_max":0,"o":"m 588 0 l 588 139 l 228 139 l 588 710 l 588 831 l 40 831 l 40 692 l 406 692 l 40 118 l 40 0 z m 338 878 l 501 1081 l 338 1081 l 210 915 z "},"ś":{"ha":651,"x_min":0,"x_max":0,"o":"m 153 163 l 149 168 l 19 129 b 108 26 35 92 81 46 b 208 -7 135 8 175 -7 l 367 -7 b 465 24 401 -7 438 4 b 528 88 488 39 517 71 b 554 172 546 113 554 142 l 554 211 b 417 354 554 303 492 346 b 199 375 340 363 235 371 b 178 393 185 376 178 389 l 178 426 b 179 440 178 438 179 440 b 211 472 188 456 206 469 b 229 475 217 475 229 475 l 363 475 b 414 439 376 475 406 449 b 418 433 417 436 418 433 l 549 472 b 458 575 533 510 486 556 b 358 607 432 593 392 607 l 225 607 b 64 514 156 607 103 569 b 39 429 46 489 39 460 l 39 388 b 169 246 39 299 96 251 b 397 228 249 239 349 232 b 415 208 413 226 415 215 l 415 175 b 365 125 415 156 382 125 l 204 125 b 153 163 190 126 161 153 z m 313 678 l 476 881 l 313 881 l 185 715 z "},"ť":{"ha":689,"x_min":0,"x_max":0,"o":"m 664 694 l 664 889 l 528 889 l 528 713 l 515 600 l 653 600 z m 232 468 l 404 468 l 404 600 l 232 600 l 232 831 l 93 831 l 93 600 l 0 600 l 0 468 l 93 468 l 93 185 b 119 97 93 154 101 124 b 186 29 131 82 164 44 b 286 0 214 10 251 0 l 389 0 l 389 132 l 288 132 b 233 178 268 132 242 163 b 232 186 232 181 232 186 z "},"ź":{"ha":617,"x_min":0,"x_max":0,"o":"m 526 0 l 526 132 l 235 132 l 513 486 l 513 600 l 38 600 l 38 468 l 325 468 l 49 113 l 49 0 z m 313 678 l 476 881 l 313 881 l 185 715 z "},"Ą":{"ha":763,"x_min":0,"x_max":0,"o":"m 654 -275 l 811 -275 l 678 -61 l 543 -101 z m 715 0 l 426 831 l 257 831 l -33 0 l 122 0 l 183 176 l 499 176 l 560 0 z m 453 315 l 229 315 l 342 643 z "},"Ș":{"ha":793,"x_min":0,"x_max":0,"o":"m 492 -125 l 357 -85 l 224 -299 l 381 -299 z m 675 197 l 675 285 b 567 436 675 347 638 417 l 204 542 b 189 565 197 543 189 553 l 189 635 b 249 696 189 646 226 685 b 257 697 249 696 251 697 l 453 697 b 461 696 460 697 461 696 b 522 632 490 678 522 632 l 663 672 b 635 721 653 693 646 706 b 458 836 599 768 542 836 l 253 836 b 167 811 222 836 189 824 b 64 711 138 794 81 736 b 43 632 47 686 43 656 l 43 557 b 151 406 43 493 81 425 l 513 303 b 529 279 519 301 529 292 l 529 197 b 467 133 529 186 488 144 b 458 132 467 133 464 132 l 231 132 b 221 133 224 132 221 133 b 160 197 188 158 160 197 l 22 151 b 47 108 33 131 36 124 b 224 -7 83 60 142 -7 l 465 -7 b 551 18 494 -7 529 6 b 653 118 581 35 636 93 b 675 197 671 143 675 174 z "},"Ż":{"ha":682,"x_min":0,"x_max":0,"o":"m 588 0 l 588 139 l 228 139 l 588 710 l 588 831 l 40 831 l 40 692 l 406 692 l 40 118 l 40 0 z m 389 886 l 389 1035 l 240 1035 l 240 886 z "},"ą":{"ha":669,"x_min":0,"x_max":0,"o":"m 482 -275 l 639 -275 l 506 -61 l 371 -101 z m 406 376 l 214 376 b 114 346 179 376 142 365 b 49 283 93 331 60 299 b 24 199 31 258 24 229 l 24 174 b 49 89 24 143 31 114 b 114 24 60 74 93 39 b 214 -7 142 4 179 -7 l 328 -7 b 414 28 360 -7 389 10 l 421 0 l 558 0 l 544 122 l 544 425 b 521 511 544 453 540 485 b 454 576 510 528 475 561 b 353 607 426 596 388 607 l 233 607 b 133 574 200 607 160 592 b 43 471 111 558 57 504 l 174 432 b 229 475 182 443 213 475 l 351 475 b 360 472 354 475 357 474 b 404 431 376 463 396 444 b 406 424 406 429 406 424 z m 406 181 b 324 125 394 168 339 125 l 215 125 b 207 128 214 125 210 126 b 164 171 190 136 174 154 b 163 175 164 171 163 174 l 163 201 b 164 206 163 203 164 206 b 206 250 174 222 190 240 b 215 253 210 253 211 253 l 406 253 z "},"ș":{"ha":651,"x_min":0,"x_max":0,"o":"m 411 -101 l 276 -61 l 143 -275 l 300 -275 z m 153 163 l 149 168 l 19 129 b 108 26 35 92 81 46 b 208 -7 135 8 175 -7 l 367 -7 b 465 24 401 -7 438 4 b 528 88 488 39 517 71 b 554 172 546 113 554 142 l 554 211 b 417 354 554 303 492 346 b 199 375 340 363 235 371 b 178 393 185 376 178 389 l 178 426 b 179 440 178 438 179 440 b 211 472 188 456 206 469 b 229 475 217 475 229 475 l 363 475 b 414 439 376 475 406 449 b 418 433 417 436 418 433 l 549 472 b 458 575 533 510 486 556 b 358 607 432 593 392 607 l 225 607 b 64 514 156 607 103 569 b 39 429 46 489 39 460 l 39 388 b 169 246 39 299 96 251 b 397 228 249 239 349 232 b 415 208 413 226 415 215 l 415 175 b 365 125 415 156 382 125 l 204 125 b 153 163 190 126 161 153 z "},"Ľ":{"ha":667,"x_min":0,"x_max":0,"o":"m 467 694 l 467 889 l 331 889 l 331 713 l 318 600 l 456 600 z m 575 0 l 575 139 l 207 139 l 207 831 l 61 831 l 61 0 z "},"ľ":{"ha":453,"x_min":0,"x_max":0,"o":"m 432 694 l 432 889 l 296 889 l 296 713 l 283 600 l 421 600 z m 210 0 l 194 118 l 194 831 l 56 831 l 56 103 b 69 0 56 103 65 28 z "},"ż":{"ha":617,"x_min":0,"x_max":0,"o":"m 526 0 l 526 132 l 235 132 l 513 486 l 513 600 l 38 600 l 38 468 l 325 468 l 49 113 l 49 0 z m 369 686 l 369 835 l 221 835 l 221 686 z "},"Ŕ":{"ha":804,"x_min":0,"x_max":0,"o":"m 650 517 l 650 639 b 625 724 650 668 642 699 b 550 800 613 742 569 786 b 451 831 522 819 485 831 l 61 831 l 61 0 l 207 0 l 207 328 l 367 328 l 521 0 l 679 0 l 514 339 b 550 358 526 343 539 350 b 625 432 569 372 613 414 b 650 517 642 457 650 486 z m 504 518 b 503 513 504 515 503 513 b 451 467 492 493 464 467 l 207 467 l 207 692 l 458 692 b 503 647 472 690 494 663 b 504 638 504 644 504 638 z m 350 878 l 514 1081 l 350 1081 l 222 915 z "},"Ă":{"ha":763,"x_min":0,"x_max":0,"o":"m 715 0 l 426 831 l 257 831 l -33 0 l 122 0 l 183 176 l 499 176 l 560 0 z m 453 315 l 229 315 l 342 643 z m 407 1043 b 344 976 407 1007 381 976 b 279 1043 308 976 279 1007 l 199 1043 b 344 899 199 963 267 899 b 488 1043 422 899 488 963 z "},"Ĺ":{"ha":667,"x_min":0,"x_max":0,"o":"m 575 0 l 575 139 l 207 139 l 207 831 l 61 831 l 61 0 z m 215 878 l 379 1081 l 215 1081 l 88 915 z "},"Ć":{"ha":768,"x_min":0,"x_max":0,"o":"m 650 161 l 508 199 b 446 133 508 199 475 147 b 439 132 443 132 440 132 l 281 132 b 271 133 279 132 272 132 b 207 197 250 144 207 181 b 207 619 207 197 207 618 b 208 635 207 622 207 632 b 271 696 222 657 253 686 b 276 697 271 696 274 697 l 440 697 b 446 696 442 697 444 697 b 508 632 467 683 508 632 l 650 672 b 621 721 638 694 632 706 b 444 836 585 768 522 836 l 271 836 b 185 811 240 836 207 824 b 83 711 156 794 100 735 b 61 633 67 686 61 660 l 61 196 b 83 117 61 169 67 142 b 185 18 100 92 156 35 b 271 -7 207 4 240 -7 l 444 -7 b 621 108 522 -7 585 60 b 650 161 632 124 639 136 z m 372 878 l 536 1081 l 372 1081 l 244 915 z "},"Č":{"ha":768,"x_min":0,"x_max":0,"o":"m 650 161 l 508 199 b 446 133 508 199 475 147 b 439 132 443 132 440 132 l 281 132 b 271 133 279 132 272 132 b 207 197 250 144 207 181 b 207 619 207 197 207 618 b 208 635 207 622 207 632 b 271 696 222 657 253 686 b 276 697 271 696 274 697 l 440 697 b 446 696 442 697 444 697 b 508 632 467 683 508 632 l 650 672 b 621 721 638 694 632 706 b 444 836 585 768 522 836 l 271 836 b 185 811 240 836 207 824 b 83 711 156 794 100 735 b 61 633 67 686 61 660 l 61 196 b 83 117 61 169 67 142 b 185 18 100 92 156 35 b 271 -7 207 4 240 -7 l 444 -7 b 621 108 522 -7 585 60 b 650 161 632 124 639 136 z m 408 1067 l 356 988 l 303 1067 l 154 1067 l 290 885 l 421 885 l 557 1067 z "},"Ę":{"ha":717,"x_min":0,"x_max":0,"o":"m 583 0 l 583 139 l 207 139 l 207 343 l 557 343 l 557 482 l 207 482 l 207 692 l 583 692 l 583 831 l 61 831 l 61 0 z m 442 -235 l 599 -235 l 465 -21 l 331 -61 z "},"Ě":{"ha":717,"x_min":0,"x_max":0,"o":"m 583 0 l 583 139 l 207 139 l 207 343 l 557 343 l 557 482 l 207 482 l 207 692 l 583 692 l 583 831 l 61 831 l 61 0 z m 372 1067 l 319 988 l 267 1067 l 118 1067 l 254 885 l 385 885 l 521 1067 z "},"Ď":{"ha":782,"x_min":0,"x_max":0,"o":"m 649 201 l 649 626 b 626 706 649 653 644 681 b 526 807 610 729 557 789 b 442 831 503 822 468 831 l 61 831 l 61 0 l 442 0 b 525 25 471 0 503 13 b 628 122 556 42 611 97 b 649 201 644 147 649 176 z m 207 139 l 207 692 l 428 692 b 440 690 431 692 439 692 b 501 629 457 682 485 657 b 503 622 503 626 503 622 l 503 204 b 442 140 503 188 461 151 b 432 139 440 139 432 139 z m 381 1067 l 328 988 l 275 1067 l 126 1067 l 263 885 l 393 885 l 529 1067 z "},"Ń":{"ha":788,"x_min":0,"x_max":0,"o":"m 649 0 l 649 831 l 503 831 l 503 272 l 218 831 l 61 831 l 61 0 l 207 0 l 207 551 l 494 0 z m 354 881 l 518 1083 l 354 1083 l 226 918 z "},"Ň":{"ha":788,"x_min":0,"x_max":0,"o":"m 649 0 l 649 831 l 503 831 l 503 272 l 218 831 l 61 831 l 61 0 l 207 0 l 207 551 l 494 0 z m 411 1069 l 358 990 l 306 1069 l 157 1069 l 293 888 l 424 888 l 560 1069 z "},"Ő":{"ha":818,"x_min":0,"x_max":0,"o":"m 693 197 l 693 632 b 671 711 693 658 688 686 b 569 811 653 735 599 794 b 483 836 547 825 513 836 l 272 836 b 186 811 242 836 208 825 b 85 711 157 794 101 735 b 63 632 68 686 63 658 l 63 197 b 85 118 63 171 68 143 b 186 18 101 94 157 35 b 272 -7 208 4 242 -7 l 483 -7 b 569 18 513 -7 547 4 b 671 118 599 35 653 94 b 693 197 688 143 693 171 z m 208 628 b 210 635 208 628 208 632 b 271 696 226 660 256 688 b 278 697 272 697 278 697 l 478 697 b 485 696 479 697 482 697 b 546 635 500 688 529 660 b 547 628 547 633 547 628 l 547 199 b 546 193 547 199 547 196 b 485 133 529 168 500 142 b 478 132 482 132 478 132 l 278 132 b 271 133 276 132 274 132 b 210 193 256 142 226 168 b 208 199 208 194 208 199 z m 458 871 l 621 1067 l 490 1067 l 363 901 z m 268 871 l 431 1067 l 300 1067 l 172 901 z "},"Ř":{"ha":804,"x_min":0,"x_max":0,"o":"m 650 517 l 650 639 b 625 724 650 668 642 699 b 550 800 613 742 569 786 b 451 831 522 819 485 831 l 61 831 l 61 0 l 207 0 l 207 328 l 367 328 l 521 0 l 679 0 l 514 339 b 550 358 526 343 539 350 b 625 432 569 372 613 414 b 650 517 642 457 650 486 z m 504 518 b 503 513 504 515 503 513 b 451 467 492 493 464 467 l 207 467 l 207 692 l 458 692 b 503 647 472 690 494 663 b 504 638 504 644 504 638 z m 386 1067 l 333 988 l 281 1067 l 132 1067 l 268 885 l 399 885 l 535 1067 z "},"Ů":{"ha":771,"x_min":0,"x_max":0,"o":"m 497 831 l 643 831 l 643 197 b 621 118 643 171 638 143 b 519 18 604 94 550 35 b 435 -7 497 4 464 -7 l 258 -7 b 172 18 228 -7 194 4 b 71 118 143 35 88 94 b 49 197 54 143 49 171 l 49 831 l 194 831 l 194 200 b 196 193 194 200 194 194 b 257 133 213 168 240 142 b 264 132 260 132 264 132 l 429 132 b 436 133 431 132 433 132 b 496 193 451 142 479 168 b 497 199 497 196 497 199 z m 489 1028 b 346 1169 489 1104 424 1169 b 200 1028 268 1169 200 1104 b 346 883 200 947 268 883 b 489 1028 424 883 489 947 z m 408 1028 b 346 961 408 992 382 961 b 281 1028 310 961 281 992 b 346 1090 281 1061 310 1090 b 408 1028 382 1090 408 1061 z "},"Ű":{"ha":771,"x_min":0,"x_max":0,"o":"m 497 831 l 643 831 l 643 197 b 621 118 643 171 638 143 b 519 18 604 94 550 35 b 435 -7 497 4 464 -7 l 258 -7 b 172 18 228 -7 194 4 b 71 118 143 35 88 94 b 49 197 54 143 49 171 l 49 831 l 194 831 l 194 200 b 196 193 194 200 194 194 b 257 133 213 168 240 142 b 264 132 260 132 264 132 l 429 132 b 436 133 431 132 433 132 b 496 193 451 142 479 168 b 497 199 497 196 497 199 z m 388 871 l 550 1067 l 419 1067 l 292 901 z m 197 871 l 360 1067 l 229 1067 l 101 901 z "},"Ţ":{"ha":707,"x_min":0,"x_max":0,"o":"m 438 -101 l 303 -61 l 169 -275 l 326 -275 z m 613 692 l 613 831 l 17 831 l 17 692 l 242 692 l 242 0 l 388 0 l 388 692 z "},"ŕ":{"ha":578,"x_min":0,"x_max":0,"o":"m 547 472 b 463 572 533 506 489 553 b 360 607 431 594 399 607 l 276 607 b 188 567 244 607 213 585 l 181 600 l 46 600 l 57 476 l 57 0 l 196 0 l 196 415 b 281 475 213 436 249 475 l 356 475 b 418 433 382 475 410 444 z m 308 678 l 472 881 l 308 881 l 181 715 z "},"ă":{"ha":669,"x_min":0,"x_max":0,"o":"m 406 376 l 214 376 b 114 346 179 376 142 365 b 49 283 93 331 60 299 b 24 199 31 258 24 229 l 24 174 b 49 89 24 143 31 114 b 114 24 60 74 93 39 b 214 -7 142 4 179 -7 l 328 -7 b 414 28 360 -7 389 10 l 421 0 l 558 0 l 544 122 l 544 425 b 521 511 544 453 540 485 b 454 576 510 528 475 561 b 353 607 426 596 388 607 l 233 607 b 133 574 200 607 160 592 b 43 471 111 558 57 504 l 174 432 b 229 475 182 443 213 475 l 351 475 b 360 472 354 475 357 474 b 404 431 376 463 396 444 b 406 424 406 429 406 424 z m 406 181 b 324 125 394 168 339 125 l 215 125 b 207 128 214 125 210 126 b 164 171 190 136 174 154 b 163 175 164 171 163 174 l 163 201 b 164 206 163 203 164 206 b 206 250 174 222 190 240 b 215 253 210 253 211 253 l 406 253 z m 360 828 b 297 761 360 792 333 761 b 232 828 261 761 232 792 l 151 828 b 297 683 151 747 219 683 b 440 828 375 683 440 747 z "},"ĺ":{"ha":319,"x_min":0,"x_max":0,"o":"m 210 0 l 194 118 l 194 831 l 56 831 l 56 103 b 69 0 56 103 65 28 z m 204 878 l 368 1081 l 204 1081 l 76 915 z "},"ć":{"ha":663,"x_min":0,"x_max":0,"o":"m 188 176 l 188 424 b 190 432 188 424 188 428 b 235 472 200 449 218 463 b 243 475 235 472 240 475 l 378 475 b 429 439 392 475 421 449 b 433 433 429 439 431 438 l 563 472 b 474 575 547 510 501 556 b 374 607 447 593 407 607 l 242 607 b 140 578 207 607 168 597 b 74 510 119 563 85 526 b 49 425 54 483 49 453 l 49 175 b 74 90 49 147 54 117 b 140 22 85 74 119 38 b 242 -7 168 3 207 -7 l 375 -7 b 475 25 408 -7 449 7 b 564 128 497 40 550 94 l 435 167 b 431 161 432 163 431 161 b 379 125 422 151 393 125 l 243 125 b 235 128 240 125 235 128 b 190 168 218 138 200 151 b 188 176 188 172 188 176 z m 313 678 l 476 881 l 313 881 l 185 715 z "},"č":{"ha":663,"x_min":0,"x_max":0,"o":"m 188 176 l 188 424 b 190 432 188 424 188 428 b 235 472 200 449 218 463 b 243 475 235 472 240 475 l 378 475 b 429 439 392 475 421 449 b 433 433 429 439 431 438 l 563 472 b 474 575 547 510 501 556 b 374 607 447 593 407 607 l 242 607 b 140 578 207 607 168 597 b 74 510 119 563 85 526 b 49 425 54 483 49 453 l 49 175 b 74 90 49 147 54 117 b 140 22 85 74 119 38 b 242 -7 168 3 207 -7 l 375 -7 b 475 25 408 -7 449 7 b 564 128 497 40 550 94 l 435 167 b 431 161 432 163 431 161 b 379 125 422 151 393 125 l 243 125 b 235 128 240 125 235 128 b 190 168 218 138 200 151 b 188 176 188 172 188 176 z m 354 867 l 301 788 l 249 867 l 100 867 l 236 685 l 367 685 l 503 867 z "},"ę":{"ha":668,"x_min":0,"x_max":0,"o":"m 282 -275 l 439 -275 l 306 -61 l 171 -101 z m 561 233 l 561 425 b 536 510 561 453 556 483 b 469 576 525 526 490 561 b 368 607 442 596 403 607 l 240 607 b 139 576 206 607 167 596 b 72 510 118 561 83 525 b 46 425 54 485 46 456 l 46 175 b 72 89 46 144 54 114 b 139 22 83 74 118 38 b 240 -7 167 3 206 -7 l 371 -7 b 471 25 404 -7 444 7 b 560 128 493 40 546 94 l 431 167 b 426 161 431 167 428 163 b 375 125 418 151 389 125 l 240 125 b 186 169 226 125 199 149 b 185 176 186 169 185 172 l 185 233 z m 422 357 l 185 357 l 185 422 b 186 431 185 422 185 428 b 240 475 199 451 226 475 l 367 475 b 375 474 369 475 372 475 b 421 431 392 464 413 444 b 422 422 422 429 422 422 z "},"ě":{"ha":668,"x_min":0,"x_max":0,"o":"m 561 233 l 561 425 b 536 510 561 453 556 483 b 469 576 525 526 490 561 b 368 607 442 596 403 607 l 240 607 b 139 576 206 607 167 596 b 72 510 118 561 83 525 b 46 425 54 485 46 456 l 46 175 b 72 89 46 144 54 114 b 139 22 83 74 118 38 b 240 -7 167 3 206 -7 l 371 -7 b 471 25 404 -7 444 7 b 560 128 493 40 546 94 l 431 167 b 426 161 431 167 428 163 b 375 125 418 151 389 125 l 240 125 b 186 169 226 125 199 149 b 185 176 186 169 185 172 l 185 233 z m 422 357 l 185 357 l 185 422 b 186 431 185 422 185 428 b 240 475 199 451 226 475 l 367 475 b 375 474 369 475 372 475 b 421 431 392 464 413 444 b 422 422 422 429 422 422 z m 354 867 l 301 788 l 249 867 l 100 867 l 236 685 l 367 685 l 503 867 z "},"ď":{"ha":808,"x_min":0,"x_max":0,"o":"m 799 694 l 799 889 l 663 889 l 663 713 l 650 600 l 788 600 z m 572 0 l 561 124 l 561 831 l 422 831 l 422 575 b 340 607 399 592 369 607 l 240 607 b 140 578 206 607 168 597 b 74 510 118 563 85 525 b 49 424 56 485 49 454 l 49 178 b 74 92 49 147 56 118 b 140 24 85 75 119 39 b 240 -7 167 4 206 -7 l 340 -7 b 431 31 374 -7 406 11 l 436 0 z m 422 188 b 336 125 404 167 351 125 l 242 125 b 233 128 239 125 236 126 b 189 172 218 138 199 156 b 188 181 189 172 188 175 l 188 421 b 189 428 188 425 189 428 b 233 474 199 444 218 464 b 242 475 235 475 238 475 l 336 475 b 422 414 353 475 404 435 z "},"đ":{"ha":688,"x_min":0,"x_max":0,"o":"m 604 649 l 604 779 l 561 779 l 561 825 l 422 825 l 422 779 l 240 779 l 240 649 l 422 649 l 422 569 b 340 601 399 586 369 601 l 240 601 b 140 572 206 601 168 592 b 74 504 118 557 85 519 b 49 418 56 479 49 449 l 49 172 b 74 86 49 142 56 113 b 140 18 85 69 119 33 b 240 -12 167 -1 206 -12 l 340 -12 b 431 25 374 -12 406 6 l 433 -6 l 572 -6 l 561 118 l 561 649 z m 422 182 b 336 119 404 161 351 119 l 242 119 b 233 122 239 119 236 121 b 189 167 218 132 199 150 b 188 175 189 167 188 169 l 188 415 b 189 422 188 419 189 422 b 233 468 199 439 218 458 b 242 469 235 469 238 469 l 336 469 b 422 408 353 469 404 429 z "},"Đ":{"ha":810,"x_min":0,"x_max":0,"o":"m 676 201 l 676 626 b 656 706 676 653 672 681 b 554 807 638 729 585 789 b 471 831 531 822 496 831 l 89 831 l 89 481 l -15 481 l -15 350 l 89 350 l 89 0 l 471 0 b 554 25 500 0 531 13 b 657 122 583 42 639 97 b 676 201 672 147 676 176 z m 235 139 l 235 350 l 378 350 l 378 481 l 235 481 l 235 692 l 457 692 b 468 690 458 692 467 692 b 531 629 486 682 514 657 l 531 204 b 471 140 531 188 490 151 b 461 139 468 139 461 139 z "},"ń":{"ha":688,"x_min":0,"x_max":0,"o":"m 572 0 l 572 425 b 547 510 572 453 567 483 b 481 576 536 526 501 561 b 379 607 453 596 414 607 l 276 607 b 189 568 244 607 214 586 l 182 600 l 46 600 l 60 476 l 60 0 l 199 0 l 199 418 b 281 475 217 438 254 475 l 378 475 b 389 474 382 475 388 475 b 432 431 404 464 424 446 b 433 422 433 428 433 424 l 433 0 z m 313 678 l 476 881 l 313 881 l 185 715 z "},"ň":{"ha":688,"x_min":0,"x_max":0,"o":"m 572 0 l 572 425 b 547 510 572 453 567 483 b 481 576 536 526 501 561 b 379 607 453 596 414 607 l 276 607 b 189 568 244 607 214 586 l 182 600 l 46 600 l 60 476 l 60 0 l 199 0 l 199 418 b 281 475 217 438 254 475 l 378 475 b 389 474 382 475 388 475 b 432 431 404 464 424 446 b 433 422 433 428 433 424 l 433 0 z m 364 867 l 311 788 l 258 867 l 110 867 l 246 685 l 376 685 l 513 867 z "},"ő":{"ha":672,"x_min":0,"x_max":0,"o":"m 563 175 l 563 425 b 539 510 563 453 558 483 b 472 576 528 526 493 561 b 371 607 444 596 406 607 l 240 607 b 140 576 206 607 168 596 b 72 510 119 561 83 526 b 49 425 53 483 49 453 l 49 175 b 72 90 49 147 53 117 b 140 22 83 74 119 38 b 240 -7 168 3 206 -7 l 371 -7 b 472 22 406 -7 444 3 b 539 90 493 38 528 74 b 563 175 558 117 563 147 z m 188 421 b 189 429 188 421 188 426 b 235 474 199 446 218 464 b 242 475 238 475 239 475 l 369 475 b 376 474 372 475 374 475 b 422 429 393 464 414 443 b 424 421 424 425 424 422 l 424 168 b 378 128 422 157 390 135 b 369 125 375 126 372 125 l 242 125 b 233 126 236 125 233 126 b 188 168 217 136 188 157 l 188 421 z m 401 671 l 564 867 l 433 867 l 306 701 z m 211 671 l 374 867 l 243 867 l 115 701 z "},"ř":{"ha":578,"x_min":0,"x_max":0,"o":"m 547 472 b 463 572 533 506 489 553 b 360 607 431 594 399 607 l 276 607 b 188 567 244 607 213 585 l 181 600 l 46 600 l 57 476 l 57 0 l 196 0 l 196 415 b 281 475 213 436 249 475 l 356 475 b 418 433 382 475 410 444 z m 342 867 l 289 788 l 236 867 l 88 867 l 224 685 l 354 685 l 490 867 z "},"ů":{"ha":678,"x_min":0,"x_max":0,"o":"m 569 0 l 557 124 l 557 600 l 418 600 l 418 182 b 336 126 400 163 350 126 l 238 126 b 229 128 233 126 232 126 b 183 169 214 138 192 154 b 182 179 182 172 182 178 l 182 600 l 43 600 l 43 176 b 68 92 43 149 49 118 b 135 24 79 75 114 39 b 236 -6 163 4 201 -6 l 340 -6 b 428 35 372 -6 403 17 l 433 0 z m 443 828 b 300 969 443 904 378 969 b 154 828 222 969 154 904 b 300 683 154 747 222 683 b 443 828 378 683 443 747 z m 363 828 b 300 761 363 792 336 761 b 235 828 264 761 235 792 b 300 890 235 861 264 890 b 363 828 336 890 363 861 z "},"ű":{"ha":678,"x_min":0,"x_max":0,"o":"m 569 0 l 557 124 l 557 600 l 418 600 l 418 182 b 336 126 400 163 350 126 l 238 126 b 229 128 233 126 232 126 b 183 169 214 138 192 154 b 182 179 182 172 182 178 l 182 600 l 43 600 l 43 176 b 68 92 43 149 49 118 b 135 24 79 75 114 39 b 236 -6 163 4 201 -6 l 340 -6 b 428 35 372 -6 403 17 l 433 0 z m 385 671 l 547 867 l 417 867 l 289 701 z m 194 671 l 357 867 l 226 867 l 99 701 z "},"ţ":{"ha":494,"x_min":0,"x_max":0,"o":"m 386 -101 l 251 -61 l 118 -275 l 275 -275 z m 232 468 l 404 468 l 404 600 l 232 600 l 232 831 l 93 831 l 93 600 l 0 600 l 0 468 l 93 468 l 93 185 b 119 97 93 154 101 124 b 186 29 131 82 164 44 b 286 0 214 10 251 0 l 403 0 l 403 132 l 288 132 b 233 178 268 132 242 163 b 232 186 232 181 232 186 z "},"Ā":{"ha":763,"x_min":0,"x_max":0,"o":"m 499 925 l 499 1049 l 183 1049 l 183 925 z m 715 0 l 426 831 l 257 831 l -33 0 l 122 0 l 183 176 l 499 176 l 560 0 z m 453 315 l 229 315 l 342 643 z "},"ā":{"ha":669,"x_min":0,"x_max":0,"o":"m 406 376 l 214 376 b 114 346 179 376 142 365 b 49 283 93 331 60 299 b 24 199 31 258 24 229 l 24 174 b 49 89 24 143 31 114 b 114 24 60 74 93 39 b 214 -7 142 4 179 -7 l 328 -7 b 414 28 360 -7 389 10 l 421 0 l 558 0 l 544 122 l 544 425 b 521 511 544 453 540 485 b 454 576 510 528 475 561 b 353 607 426 596 388 607 l 233 607 b 133 574 200 607 160 592 b 43 471 111 558 57 504 l 174 432 b 229 475 182 443 213 475 l 351 475 b 360 472 354 475 357 474 b 404 431 376 463 396 444 b 406 424 406 429 406 424 z m 406 181 b 324 125 394 168 339 125 l 215 125 b 207 128 214 125 210 126 b 164 171 190 136 174 154 b 163 175 164 171 163 174 l 163 201 b 164 206 163 203 164 206 b 206 250 174 222 190 240 b 215 253 210 253 211 253 l 406 253 z m 463 707 l 463 831 l 147 831 l 147 707 z "},"Ĉ":{"ha":768,"x_min":0,"x_max":0,"o":"m 650 161 l 508 199 b 446 133 508 199 475 147 b 439 132 443 132 440 132 l 281 132 b 271 133 279 132 272 132 b 207 197 250 144 207 181 b 207 619 207 197 207 618 b 208 635 207 622 207 632 b 271 696 222 657 253 686 b 276 697 271 696 274 697 l 440 697 b 446 696 442 697 444 697 b 508 632 467 683 508 632 l 650 672 b 621 721 638 694 632 706 b 444 836 585 768 522 836 l 271 836 b 185 811 240 836 207 824 b 83 711 156 794 100 735 b 61 633 67 686 61 660 l 61 196 b 83 117 61 169 67 142 b 185 18 100 92 156 35 b 271 -7 207 4 240 -7 l 444 -7 b 621 108 522 -7 585 60 b 650 161 632 124 639 136 z m 315 885 l 368 957 l 421 885 l 569 885 l 433 1067 l 303 1067 l 167 885 z "},"ĉ":{"ha":663,"x_min":0,"x_max":0,"o":"m 188 176 l 188 424 b 190 432 188 424 188 428 b 235 472 200 449 218 463 b 243 475 235 472 240 475 l 378 475 b 429 439 392 475 421 449 b 433 433 429 439 431 438 l 563 472 b 474 575 547 510 501 556 b 374 607 447 593 407 607 l 242 607 b 140 578 207 607 168 597 b 74 510 119 563 85 526 b 49 425 54 483 49 453 l 49 175 b 74 90 49 147 54 117 b 140 22 85 74 119 38 b 242 -7 168 3 207 -7 l 375 -7 b 475 25 408 -7 449 7 b 564 128 497 40 550 94 l 435 167 b 431 161 432 163 431 161 b 379 125 422 151 393 125 l 243 125 b 235 128 240 125 235 128 b 190 168 218 138 200 151 b 188 176 188 172 188 176 z m 268 685 l 321 757 l 374 685 l 522 685 l 386 867 l 256 867 l 119 685 z "},"Ċ":{"ha":768,"x_min":0,"x_max":0,"o":"m 650 161 l 508 199 b 446 133 508 199 475 147 b 439 132 443 132 440 132 l 281 132 b 271 133 279 132 272 132 b 207 197 250 144 207 181 b 207 619 207 197 207 618 b 208 635 207 622 207 632 b 271 696 222 657 253 686 b 276 697 271 696 274 697 l 440 697 b 446 696 442 697 444 697 b 508 632 467 683 508 632 l 650 672 b 621 721 638 694 632 706 b 444 836 585 768 522 836 l 271 836 b 185 811 240 836 207 824 b 83 711 156 794 100 735 b 61 633 67 686 61 660 l 61 196 b 83 117 61 169 67 142 b 185 18 100 92 156 35 b 271 -7 207 4 240 -7 l 444 -7 b 621 108 522 -7 585 60 b 650 161 632 124 639 136 z m 433 894 l 433 1043 l 285 1043 l 285 894 z "},"ċ":{"ha":663,"x_min":0,"x_max":0,"o":"m 188 176 l 188 424 b 190 432 188 424 188 428 b 235 472 200 449 218 463 b 243 475 235 472 240 475 l 378 475 b 429 439 392 475 421 449 b 433 433 429 439 431 438 l 563 472 b 474 575 547 510 501 556 b 374 607 447 593 407 607 l 242 607 b 140 578 207 607 168 597 b 74 510 119 563 85 526 b 49 425 54 483 49 453 l 49 175 b 74 90 49 147 54 117 b 140 22 85 74 119 38 b 242 -7 168 3 207 -7 l 375 -7 b 475 25 408 -7 449 7 b 564 128 497 40 550 94 l 435 167 b 431 161 432 163 431 161 b 379 125 422 151 393 125 l 243 125 b 235 128 240 125 235 128 b 190 168 218 138 200 151 b 188 176 188 172 188 176 z m 385 686 l 385 835 l 236 835 l 236 686 z "},"Ē":{"ha":717,"x_min":0,"x_max":0,"o":"m 583 0 l 583 139 l 207 139 l 207 343 l 557 343 l 557 482 l 207 482 l 207 692 l 583 692 l 583 831 l 61 831 l 61 0 z m 483 901 l 483 1039 l 168 1039 l 168 901 z "},"ē":{"ha":668,"x_min":0,"x_max":0,"o":"m 561 233 l 561 425 b 536 510 561 453 556 483 b 469 576 525 526 490 561 b 368 607 442 596 403 607 l 240 607 b 139 576 206 607 167 596 b 72 510 118 561 83 525 b 46 425 54 485 46 456 l 46 175 b 72 89 46 144 54 114 b 139 22 83 74 118 38 b 240 -7 167 3 206 -7 l 371 -7 b 471 25 404 -7 444 7 b 560 128 493 40 546 94 l 431 167 b 426 161 431 167 428 163 b 375 125 418 151 389 125 l 240 125 b 186 169 226 125 199 149 b 185 176 186 169 185 172 l 185 233 z m 422 357 l 185 357 l 185 422 b 186 431 185 422 185 428 b 240 475 199 451 226 475 l 367 475 b 375 474 369 475 372 475 b 421 431 392 464 413 444 b 422 422 422 429 422 422 z m 465 693 l 465 831 l 150 831 l 150 693 z "},"Ĕ":{"ha":717,"x_min":0,"x_max":0,"o":"m 583 0 l 583 139 l 207 139 l 207 343 l 557 343 l 557 482 l 207 482 l 207 692 l 583 692 l 583 831 l 61 831 l 61 0 z m 389 1043 b 326 976 389 1007 363 976 b 261 1043 290 976 261 1007 l 181 1043 b 326 899 181 963 249 899 b 469 1043 404 899 469 963 z "},"ĕ":{"ha":668,"x_min":0,"x_max":0,"o":"m 561 233 l 561 425 b 536 510 561 453 556 483 b 469 576 525 526 490 561 b 368 607 442 596 403 607 l 240 607 b 139 576 206 607 167 596 b 72 510 118 561 83 525 b 46 425 54 485 46 456 l 46 175 b 72 89 46 144 54 114 b 139 22 83 74 118 38 b 240 -7 167 3 206 -7 l 371 -7 b 471 25 404 -7 444 7 b 560 128 493 40 546 94 l 431 167 b 426 161 431 167 428 163 b 375 125 418 151 389 125 l 240 125 b 186 169 226 125 199 149 b 185 176 186 169 185 172 l 185 233 z m 422 357 l 185 357 l 185 422 b 186 431 185 422 185 428 b 240 475 199 451 226 475 l 367 475 b 375 474 369 475 372 475 b 421 431 392 464 413 444 b 422 422 422 429 422 422 z m 367 828 b 304 761 367 792 340 761 b 239 828 268 761 239 792 l 158 828 b 304 683 158 747 226 683 b 447 828 382 683 447 747 z "},"Ė":{"ha":717,"x_min":0,"x_max":0,"o":"m 583 0 l 583 139 l 207 139 l 207 343 l 557 343 l 557 482 l 207 482 l 207 692 l 583 692 l 583 831 l 61 831 l 61 0 z m 397 901 l 397 1050 l 249 1050 l 249 901 z "},"ė":{"ha":668,"x_min":0,"x_max":0,"o":"m 561 233 l 561 425 b 536 510 561 453 556 483 b 469 576 525 526 490 561 b 368 607 442 596 403 607 l 240 607 b 139 576 206 607 167 596 b 72 510 118 561 83 525 b 46 425 54 485 46 456 l 46 175 b 72 89 46 144 54 114 b 139 22 83 74 118 38 b 240 -7 167 3 206 -7 l 371 -7 b 471 25 404 -7 444 7 b 560 128 493 40 546 94 l 431 167 b 426 161 431 167 428 163 b 375 125 418 151 389 125 l 240 125 b 186 169 226 125 199 149 b 185 176 186 169 185 172 l 185 233 z m 422 357 l 185 357 l 185 422 b 186 431 185 422 185 428 b 240 475 199 451 226 475 l 367 475 b 375 474 369 475 372 475 b 421 431 392 464 413 444 b 422 422 422 429 422 422 z m 378 686 l 378 835 l 229 835 l 229 686 z "},"Ĝ":{"ha":831,"x_min":0,"x_max":0,"o":"m 207 197 b 271 133 207 181 251 144 b 278 132 272 133 274 132 l 467 132 b 474 133 471 132 474 133 b 538 201 493 144 538 185 l 538 336 l 358 336 l 358 475 l 683 475 l 683 194 b 710 0 683 194 693 103 l 567 0 l 560 33 b 474 -7 540 19 506 -7 l 271 -7 b 185 18 240 -7 207 4 b 83 115 156 35 100 90 b 61 196 67 140 61 169 l 61 635 b 83 714 61 661 67 689 b 185 814 100 738 156 797 b 271 838 207 828 240 838 l 474 838 b 650 722 556 838 614 774 b 679 674 661 707 672 690 l 539 633 b 474 697 539 633 508 675 b 467 699 472 699 468 699 l 278 699 b 271 697 274 699 271 697 b 208 638 256 689 225 664 b 207 632 207 635 207 632 z m 319 885 l 372 957 l 425 885 l 574 885 l 438 1067 l 307 1067 l 171 885 z "},"ĝ":{"ha":699,"x_min":0,"x_max":0,"o":"m 583 600 l 447 600 l 442 569 b 350 607 417 589 383 607 l 243 607 b 142 576 210 607 169 596 b 75 508 119 561 86 524 b 50 422 56 482 50 451 l 50 179 b 75 93 50 150 56 119 b 142 25 86 78 119 40 b 243 -6 169 6 210 -6 l 350 -6 b 432 28 379 -6 408 11 l 432 -47 b 432 -57 432 -50 432 -54 b 386 -100 431 -68 399 -93 b 378 -103 383 -101 381 -103 l 253 -103 b 201 -65 239 -103 210 -75 b 197 -60 199 -62 197 -60 l 68 -99 b 157 -201 82 -132 135 -186 b 257 -235 183 -219 224 -235 l 379 -235 b 481 -204 413 -235 453 -224 b 547 -137 501 -189 536 -154 b 571 -50 567 -111 571 -79 l 571 475 z m 244 126 b 236 128 243 126 239 126 b 190 174 221 138 200 157 b 189 182 189 176 189 182 l 189 419 b 190 426 189 419 189 424 b 236 472 200 443 221 463 b 244 475 239 474 242 475 l 346 475 b 432 410 367 475 413 431 l 432 190 b 356 128 414 169 381 140 b 346 126 353 126 346 126 z m 278 685 l 331 757 l 383 685 l 532 685 l 396 867 l 265 867 l 129 685 z "},"Ğ":{"ha":831,"x_min":0,"x_max":0,"o":"m 207 632 b 208 638 207 632 207 635 b 271 697 225 664 256 689 b 278 699 271 697 274 699 l 467 699 b 474 697 468 699 472 699 b 539 633 508 675 539 633 l 679 674 b 650 722 672 690 661 707 b 474 838 614 774 556 838 l 271 838 b 185 814 240 838 207 828 b 83 714 156 797 100 738 b 61 635 67 689 61 661 l 61 196 b 83 115 61 169 67 140 b 185 18 100 90 156 35 b 271 -7 207 4 240 -7 l 474 -7 b 560 33 506 -7 540 19 l 567 0 l 710 0 b 683 194 693 103 683 194 l 683 475 l 358 475 l 358 336 l 538 336 l 538 201 b 474 133 538 185 493 144 b 467 132 474 133 471 132 l 278 132 b 271 133 274 132 272 133 b 207 197 251 144 207 181 z m 428 1038 b 365 971 428 1001 401 971 b 300 1038 329 971 300 1001 l 219 1038 b 365 893 219 957 288 893 b 508 1038 443 893 508 957 z "},"ğ":{"ha":699,"x_min":0,"x_max":0,"o":"m 583 600 l 447 600 l 442 569 b 350 607 417 589 383 607 l 243 607 b 142 576 210 607 169 596 b 75 508 119 561 86 524 b 50 422 56 482 50 451 l 50 179 b 75 93 50 150 56 119 b 142 25 86 78 119 40 b 243 -6 169 6 210 -6 l 350 -6 b 432 28 379 -6 408 11 l 432 -47 b 432 -57 432 -50 432 -54 b 386 -100 431 -68 399 -93 b 378 -103 383 -101 381 -103 l 253 -103 b 201 -65 239 -103 210 -75 b 197 -60 199 -62 197 -60 l 68 -99 b 157 -201 82 -132 135 -186 b 257 -235 183 -219 224 -235 l 379 -235 b 481 -204 413 -235 453 -224 b 547 -137 501 -189 536 -154 b 571 -50 567 -111 571 -79 l 571 475 z m 244 126 b 236 128 243 126 239 126 b 190 174 221 138 200 157 b 189 182 189 176 189 182 l 189 419 b 190 426 189 419 189 424 b 236 472 200 443 221 463 b 244 475 239 474 242 475 l 346 475 b 432 410 367 475 413 431 l 432 190 b 356 128 414 169 381 140 b 346 126 353 126 346 126 z m 374 828 b 311 761 374 792 347 761 b 246 828 275 761 246 792 l 165 828 b 311 683 165 747 233 683 b 454 828 389 683 454 747 z "},"Ġ":{"ha":831,"x_min":0,"x_max":0,"o":"m 207 197 b 271 133 207 181 251 144 b 278 132 272 133 274 132 l 467 132 b 474 133 471 132 474 133 b 538 201 493 144 538 185 l 538 336 l 358 336 l 358 475 l 683 475 l 683 194 b 710 0 683 194 693 103 l 567 0 l 560 33 b 474 -7 540 19 506 -7 l 271 -7 b 185 18 240 -7 207 4 b 83 115 156 35 100 90 b 61 196 67 140 61 169 l 61 635 b 83 714 61 661 67 689 b 185 814 100 738 156 797 b 271 838 207 828 240 838 l 474 838 b 650 722 556 838 614 774 b 679 674 661 707 672 690 l 539 633 b 474 697 539 633 508 675 b 467 699 472 699 468 699 l 278 699 b 271 697 274 699 271 697 b 208 638 256 689 225 664 b 207 632 207 635 207 632 z m 439 901 l 439 1050 l 290 1050 l 290 901 z "},"ġ":{"ha":699,"x_min":0,"x_max":0,"o":"m 583 600 l 447 600 l 442 569 b 350 607 417 589 383 607 l 243 607 b 142 576 210 607 169 596 b 75 508 119 561 86 524 b 50 422 56 482 50 451 l 50 179 b 75 93 50 150 56 119 b 142 25 86 78 119 40 b 243 -6 169 6 210 -6 l 350 -6 b 432 28 379 -6 408 11 l 432 -47 b 432 -57 432 -50 432 -54 b 386 -100 431 -68 399 -93 b 378 -103 383 -101 381 -103 l 253 -103 b 201 -65 239 -103 210 -75 b 197 -60 199 -62 197 -60 l 68 -99 b 157 -201 82 -132 135 -186 b 257 -235 183 -219 224 -235 l 379 -235 b 481 -204 413 -235 453 -224 b 547 -137 501 -189 536 -154 b 571 -50 567 -111 571 -79 l 571 475 z m 244 126 b 236 128 243 126 239 126 b 190 174 221 138 200 157 b 189 182 189 176 189 182 l 189 419 b 190 426 189 419 189 424 b 236 472 200 443 221 463 b 244 475 239 474 242 475 l 346 475 b 432 410 367 475 413 431 l 432 190 b 356 128 414 169 381 140 b 346 126 353 126 346 126 z m 392 686 l 392 835 l 243 835 l 243 686 z "},"Ģ":{"ha":831,"x_min":0,"x_max":0,"o":"m 492 -101 l 357 -61 l 224 -275 l 381 -275 z m 207 632 b 208 638 207 632 207 635 b 271 697 225 664 256 689 b 278 699 271 697 274 699 l 467 699 b 474 697 468 699 472 699 b 539 633 508 675 539 633 l 679 674 b 650 722 672 690 661 707 b 474 838 614 774 556 838 l 271 838 b 185 814 240 838 207 828 b 83 714 156 797 100 738 b 61 635 67 689 61 661 l 61 196 b 83 115 61 169 67 140 b 185 18 100 90 156 35 b 271 -7 207 4 240 -7 l 474 -7 b 560 33 506 -7 540 19 l 567 0 l 710 0 b 683 194 693 103 683 194 l 683 475 l 358 475 l 358 336 l 538 336 l 538 201 b 474 133 538 185 493 144 b 467 132 474 133 471 132 l 278 132 b 271 133 274 132 272 133 b 207 197 251 144 207 181 z "},"ģ":{"ha":699,"x_min":0,"x_max":0,"o":"m 583 600 l 447 600 l 442 569 b 350 607 417 589 383 607 l 243 607 b 142 576 210 607 169 596 b 75 508 119 561 86 524 b 50 422 56 482 50 451 l 50 179 b 75 93 50 150 56 119 b 142 25 86 78 119 40 b 243 -6 169 6 210 -6 l 350 -6 b 432 28 379 -6 408 11 l 432 -47 b 432 -57 432 -50 432 -54 b 386 -100 431 -68 399 -93 b 378 -103 383 -101 381 -103 l 253 -103 b 201 -65 239 -103 210 -75 b 197 -60 199 -62 197 -60 l 68 -99 b 157 -201 82 -132 135 -186 b 257 -235 183 -219 224 -235 l 379 -235 b 481 -204 413 -235 453 -224 b 547 -137 501 -189 536 -154 b 571 -50 567 -111 571 -79 l 571 475 z m 244 126 b 236 128 243 126 239 126 b 190 174 221 138 200 157 b 189 182 189 176 189 182 l 189 419 b 190 426 189 419 189 424 b 236 472 200 443 221 463 b 244 475 239 474 242 475 l 346 475 b 432 410 367 475 413 431 l 432 190 b 356 128 414 169 381 140 b 346 126 353 126 346 126 z m 328 678 l 492 881 l 328 881 l 200 715 z "},"Ĥ":{"ha":794,"x_min":0,"x_max":0,"o":"m 656 0 l 656 831 l 510 831 l 510 482 l 207 482 l 207 831 l 61 831 l 61 0 l 207 0 l 207 343 l 510 343 l 510 0 z m 313 885 l 365 957 l 418 885 l 567 885 l 431 1067 l 300 1067 l 164 885 z "},"ĥ":{"ha":674,"x_min":0,"x_max":0,"o":"m 419 421 b 418 428 419 425 418 428 b 374 474 408 444 389 464 b 365 475 372 475 369 475 l 269 475 b 185 413 251 475 201 433 l 185 0 l 46 0 l 46 831 l 185 831 l 185 574 b 267 607 208 590 238 607 l 367 607 b 467 576 400 607 440 596 b 533 508 489 561 522 524 b 558 424 551 482 558 454 l 558 0 l 419 0 z m 258 885 l 311 957 l 364 885 l 513 885 l 376 1067 l 246 1067 l 110 885 z "},"Ħ":{"ha":794,"x_min":0,"x_max":0,"o":"m 657 0 l 657 654 l 700 654 l 700 785 l 657 785 l 657 831 l 511 831 l 511 785 l 207 785 l 207 831 l 61 831 l 61 785 l 22 785 l 22 654 l 61 654 l 61 0 l 207 0 l 207 343 l 511 343 l 511 0 z m 207 482 l 207 654 l 511 654 l 511 482 z "},"ħ":{"ha":676,"x_min":0,"x_max":0,"o":"m 365 656 l 365 778 l 188 778 l 188 831 l 49 831 l 49 778 l -17 778 l -17 656 l 49 656 l 49 0 l 188 0 l 188 413 b 272 475 204 433 254 475 l 368 475 b 376 474 372 475 375 475 b 421 428 392 464 411 444 b 422 421 421 428 422 425 l 422 0 l 561 0 l 561 424 b 536 508 561 454 554 482 b 469 576 525 524 492 561 b 369 607 443 596 403 607 l 269 607 b 188 574 240 607 211 590 l 188 656 z "},"Ĩ":{"ha":346,"x_min":0,"x_max":0,"o":"m 207 0 l 207 831 l 61 831 l 61 0 z m 360 922 b 168 1036 321 1021 239 1058 l 74 1007 b 25 1042 60 1003 38 1013 l -93 1013 b 101 900 -54 915 33 878 l 192 929 b 249 890 206 933 236 919 z "},"ĩ":{"ha":300,"x_min":0,"x_max":0,"o":"m 200 -1 l 200 597 l 61 597 l 61 -1 z m 354 722 b 163 836 315 821 233 858 l 68 807 b 19 842 54 803 32 813 l -99 813 b 96 700 -60 715 28 678 l 186 729 b 243 690 200 733 231 719 z "},"Ī":{"ha":346,"x_min":0,"x_max":0,"o":"m 290 922 l 290 1046 l -25 1046 l -25 922 z m 207 0 l 207 831 l 61 831 l 61 0 z "},"ī":{"ha":300,"x_min":0,"x_max":0,"o":"m 289 707 l 289 831 l -26 831 l -26 707 z m 200 -1 l 200 597 l 61 597 l 61 -1 z "},"Ĭ":{"ha":346,"x_min":0,"x_max":0,"o":"m 207 0 l 207 831 l 61 831 l 61 0 z m 197 1043 b 135 976 197 1007 171 976 b 69 1043 99 976 69 1007 l -11 1043 b 135 899 -11 963 57 899 b 278 1043 213 899 278 963 z "},"ĭ":{"ha":300,"x_min":0,"x_max":0,"o":"m 200 -1 l 200 597 l 61 597 l 61 -1 z m 194 828 b 132 761 194 792 168 761 b 67 828 96 761 67 792 l -14 828 b 132 683 -14 747 54 683 b 275 828 210 683 275 747 z "},"Į":{"ha":346,"x_min":0,"x_max":0,"o":"m 151 -275 l 308 -275 l 175 -61 l 40 -101 z m 207 0 l 207 831 l 61 831 l 61 0 z "},"į":{"ha":300,"x_min":0,"x_max":0,"o":"m 151 -275 l 308 -275 l 175 -61 l 40 -101 z m 204 685 l 204 833 l 56 833 l 56 685 z m 200 0 l 200 600 l 61 600 l 61 0 z "},"İ":{"ha":346,"x_min":0,"x_max":0,"o":"m 207 0 l 207 831 l 61 831 l 61 0 z m 207 901 l 207 1050 l 58 1050 l 58 901 z "},"Ĳ":{"ha":1007,"x_min":0,"x_max":0,"o":"m 207 0 l 207 831 l 61 831 l 61 0 z m 864 199 l 864 833 l 718 833 l 718 200 b 649 135 718 192 658 133 l 554 135 b 543 136 557 135 544 135 b 488 201 526 144 501 171 l 347 164 b 375 111 364 128 371 117 b 553 -4 413 61 472 -4 l 656 -4 b 742 21 685 -4 718 7 b 840 119 771 38 824 96 b 864 199 857 144 864 172 z "},"ĳ":{"ha":607,"x_min":0,"x_max":0,"o":"m 204 685 l 204 833 l 56 833 l 56 685 z m 200 0 l 200 600 l 61 600 l 61 0 z m 521 685 l 521 833 l 372 833 l 372 685 z m 321 -100 b 329 -99 326 -100 329 -99 b 376 -50 344 -89 367 -69 b 378 -43 376 -50 378 -46 l 378 600 l 517 600 l 517 -44 b 492 -132 517 -75 510 -106 b 424 -200 481 -147 446 -185 b 325 -229 396 -219 358 -229 l 208 -229 l 208 -100 z "},"Ĵ":{"ha":656,"x_min":0,"x_max":0,"o":"m 513 196 l 513 831 l 367 831 l 367 197 b 297 132 367 189 307 131 l 203 132 b 192 133 206 132 193 132 b 136 199 175 142 150 168 l -4 161 b 24 108 13 125 19 114 b 201 -7 61 58 121 -7 l 304 -7 b 390 18 333 -7 367 4 b 489 117 419 35 472 93 b 513 196 506 142 513 169 z m 394 885 l 447 957 l 500 885 l 649 885 l 513 1067 l 382 1067 l 246 885 z "},"ĵ":{"ha":313,"x_min":0,"x_max":0,"o":"m 29 -97 b 38 -96 35 -97 38 -96 b 82 -49 53 -86 72 -68 b 83 -42 82 -49 83 -44 l 83 600 l 222 600 l 222 -44 b 197 -132 222 -75 215 -106 b 129 -200 186 -147 151 -185 b 31 -229 101 -219 64 -229 l -86 -229 l -86 -97 z m 107 685 l 160 757 l 213 685 l 361 685 l 225 867 l 94 867 l -42 685 z "},"Ķ":{"ha":725,"x_min":0,"x_max":0,"o":"m 425 -101 l 290 -61 l 157 -275 l 314 -275 z m 689 0 b 342 417 588 119 447 290 l 688 831 l 508 831 b 221 485 414 718 317 599 l 207 485 l 207 831 l 61 831 l 61 0 l 207 0 l 207 347 l 222 347 l 510 0 z "},"ķ":{"ha":625,"x_min":0,"x_max":0,"o":"m 406 -101 l 271 -61 l 138 -275 l 294 -275 z m 572 0 l 326 319 l 557 600 l 385 600 b 207 383 386 600 207 383 l 181 383 l 181 831 l 42 831 l 42 0 l 181 0 l 181 253 l 206 253 l 394 0 z "},"ĸ":{"ha":625,"x_min":0,"x_max":0,"o":"m 585 0 l 308 317 l 456 474 l 578 472 l 578 600 l 388 600 l 188 386 l 188 600 l 49 600 l 49 0 l 188 0 l 188 244 l 401 0 z "},"Ļ":{"ha":667,"x_min":0,"x_max":0,"o":"m 411 -101 l 276 -61 l 143 -275 l 300 -275 z m 575 0 l 575 139 l 207 139 l 207 831 l 61 831 l 61 0 z "},"ļ":{"ha":319,"x_min":0,"x_max":0,"o":"m 236 -101 l 101 -61 l -32 -275 l 125 -275 z m 213 0 l 194 122 l 194 831 l 56 831 l 56 107 b 72 0 56 107 68 28 z "},"Ŀ":{"ha":667,"x_min":0,"x_max":0,"o":"m 575 0 l 575 139 l 207 139 l 207 831 l 61 831 l 61 0 z m 503 343 l 503 492 l 354 492 l 354 343 z "},"ŀ":{"ha":475,"x_min":0,"x_max":0,"o":"m 210 0 l 194 118 l 194 831 l 56 831 l 56 103 b 69 0 56 103 65 28 z m 432 346 l 432 494 l 283 494 l 283 346 z "},"Ņ":{"ha":788,"x_min":0,"x_max":0,"o":"m 450 -101 l 315 -61 l 182 -275 l 339 -275 z m 649 0 l 649 831 l 503 831 l 503 272 l 218 831 l 61 831 l 61 0 l 207 0 l 207 551 l 494 0 z "},"ņ":{"ha":688,"x_min":0,"x_max":0,"o":"m 426 -101 l 292 -61 l 158 -275 l 315 -275 z m 572 0 l 572 425 b 547 510 572 453 567 483 b 481 576 536 526 501 561 b 379 607 453 596 414 607 l 276 607 b 189 568 244 607 214 586 l 182 600 l 46 600 l 60 476 l 60 0 l 199 0 l 199 418 b 281 475 217 438 254 475 l 378 475 b 389 474 382 475 388 475 b 432 431 404 464 424 446 b 433 422 433 428 433 424 l 433 0 z "},"ŉ":{"ha":771,"x_min":0,"x_max":0,"o":"m 104 694 l 104 889 l -32 889 l -32 713 l -44 600 l 93 600 z m 656 0 l 656 425 b 631 510 656 453 650 483 b 564 576 619 526 585 561 b 463 607 536 596 497 607 l 360 607 b 272 568 328 607 297 586 l 265 600 l 129 600 l 143 476 l 143 0 l 282 0 l 282 418 b 364 475 300 438 338 475 l 461 475 b 472 474 465 475 471 475 b 515 431 488 464 507 446 b 517 422 517 428 517 424 l 517 0 z "},"Ŋ":{"ha":788,"x_min":0,"x_max":0,"o":"m 510 0 l 510 -42 b 508 -49 510 -44 508 -49 b 464 -96 499 -68 479 -86 b 456 -97 464 -96 461 -97 l 340 -97 l 340 -229 l 457 -229 b 556 -200 490 -229 528 -219 b 624 -132 578 -185 613 -147 b 649 -44 642 -106 649 -75 l 649 0 l 649 831 l 503 831 l 503 272 l 218 831 l 61 831 l 61 0 l 207 0 l 207 551 l 494 0 z "},"ŋ":{"ha":688,"x_min":0,"x_max":0,"o":"m 572 0 l 572 425 b 547 510 572 453 567 483 b 481 576 536 526 501 561 b 379 607 453 596 414 607 l 276 607 b 189 568 244 607 214 586 l 183 600 l 46 600 l 60 476 l 60 0 l 199 0 l 199 418 b 281 475 217 438 254 475 l 378 475 b 389 474 382 475 388 475 b 432 431 404 464 424 446 b 433 422 433 428 433 424 l 433 0 l 433 -42 b 432 -49 433 -44 432 -49 b 388 -96 422 -68 403 -86 b 379 -97 388 -96 385 -97 l 264 -97 l 264 -229 l 381 -229 b 479 -200 414 -229 451 -219 b 547 -132 501 -185 536 -147 b 572 -44 565 -106 572 -75 z "},"Ō":{"ha":818,"x_min":0,"x_max":0,"o":"m 693 197 l 693 632 b 671 711 693 658 688 686 b 569 811 653 735 599 794 b 483 836 547 825 513 836 l 272 836 b 186 811 242 836 208 825 b 85 711 157 794 101 735 b 63 632 68 686 63 658 l 63 197 b 85 118 63 171 68 143 b 186 18 101 94 157 35 b 272 -7 208 4 242 -7 l 483 -7 b 569 18 513 -7 547 4 b 671 118 599 35 653 94 b 693 197 688 143 693 171 z m 208 628 b 210 635 208 628 208 632 b 271 696 226 660 256 688 b 278 697 272 697 278 697 l 478 697 b 485 696 479 697 482 697 b 546 635 500 688 529 660 b 547 628 547 633 547 628 l 547 199 b 546 193 547 199 547 196 b 485 133 529 168 500 142 b 478 132 482 132 478 132 l 278 132 b 271 133 276 132 274 132 b 210 193 256 142 226 168 b 208 199 208 194 208 199 z m 540 922 l 540 1046 l 225 1046 l 225 922 z "},"ō":{"ha":672,"x_min":0,"x_max":0,"o":"m 563 175 l 563 425 b 539 510 563 453 558 483 b 472 576 528 526 493 561 b 371 607 444 596 406 607 l 240 607 b 140 576 206 607 168 596 b 72 510 119 561 83 526 b 49 425 53 483 49 453 l 49 175 b 72 90 49 147 53 117 b 140 22 83 74 119 38 b 240 -7 168 3 206 -7 l 371 -7 b 472 22 406 -7 444 3 b 539 90 493 38 528 74 b 563 175 558 117 563 147 z m 188 421 b 189 429 188 421 188 426 b 235 474 199 446 218 464 b 242 475 238 475 239 475 l 369 475 b 376 474 372 475 374 475 b 422 429 393 464 414 443 b 424 421 424 425 424 422 l 424 168 b 378 128 422 157 390 135 b 369 125 375 126 372 125 l 242 125 b 233 126 236 125 233 126 b 188 168 217 136 188 157 l 188 421 z m 465 707 l 465 831 l 150 831 l 150 707 z "},"Ŏ":{"ha":818,"x_min":0,"x_max":0,"o":"m 693 197 l 693 632 b 671 711 693 658 688 686 b 569 811 653 735 599 794 b 483 836 547 825 513 836 l 272 836 b 186 811 242 836 208 825 b 85 711 157 794 101 735 b 63 632 68 686 63 658 l 63 197 b 85 118 63 171 68 143 b 186 18 101 94 157 35 b 272 -7 208 4 242 -7 l 483 -7 b 569 18 513 -7 547 4 b 671 118 599 35 653 94 b 693 197 688 143 693 171 z m 208 628 b 210 635 208 628 208 632 b 271 696 226 660 256 688 b 278 697 272 697 278 697 l 478 697 b 485 696 479 697 482 697 b 546 635 500 688 529 660 b 547 628 547 633 547 628 l 547 199 b 546 193 547 199 547 196 b 485 133 529 168 500 142 b 478 132 482 132 478 132 l 278 132 b 271 133 276 132 274 132 b 210 193 256 142 226 168 b 208 199 208 194 208 199 z m 447 1046 b 385 979 447 1010 421 979 b 319 1046 349 979 319 1010 l 239 1046 b 385 901 239 965 307 901 b 528 1046 463 901 528 965 z "},"ŏ":{"ha":672,"x_min":0,"x_max":0,"o":"m 563 175 l 563 425 b 539 510 563 453 558 483 b 472 576 528 526 493 561 b 371 607 444 596 406 607 l 240 607 b 140 576 206 607 168 596 b 72 510 119 561 83 526 b 49 425 53 483 49 453 l 49 175 b 72 90 49 147 53 117 b 140 22 83 74 119 38 b 240 -7 168 3 206 -7 l 371 -7 b 472 22 406 -7 444 3 b 539 90 493 38 528 74 b 563 175 558 117 563 147 z m 188 421 b 189 429 188 421 188 426 b 235 474 199 446 218 464 b 242 475 238 475 239 475 l 369 475 b 376 474 372 475 374 475 b 422 429 393 464 414 443 b 424 421 424 425 424 422 l 424 168 b 378 128 422 157 390 135 b 369 125 375 126 372 125 l 242 125 b 233 126 236 125 233 126 b 188 168 217 136 188 157 l 188 421 z m 369 828 b 307 761 369 792 343 761 b 242 828 271 761 242 792 l 161 828 b 307 683 161 747 229 683 b 450 828 385 683 450 747 z "},"Ŗ":{"ha":804,"x_min":0,"x_max":0,"o":"m 453 -101 l 318 -61 l 185 -275 l 342 -275 z m 650 517 l 650 639 b 625 724 650 668 642 699 b 550 800 613 742 569 786 b 451 831 522 819 485 831 l 61 831 l 61 0 l 207 0 l 207 328 l 367 328 l 521 0 l 679 0 l 514 339 b 550 358 526 343 539 350 b 625 432 569 372 613 414 b 650 517 642 457 650 486 z m 504 518 b 503 513 504 515 503 513 b 451 467 492 493 464 467 l 207 467 l 207 692 l 458 692 b 503 647 472 690 494 663 b 504 638 504 644 504 638 z "},"ŗ":{"ha":578,"x_min":0,"x_max":0,"o":"m 390 -101 l 256 -61 l 122 -275 l 279 -275 z m 547 472 b 463 572 533 506 489 553 b 360 607 431 594 399 607 l 276 607 b 188 567 244 607 213 585 l 181 600 l 46 600 l 57 476 l 57 0 l 196 0 l 196 415 b 281 475 213 436 249 475 l 356 475 b 418 433 382 475 410 444 z "},"Ŝ":{"ha":793,"x_min":0,"x_max":0,"o":"m 675 197 l 675 285 b 567 436 675 347 638 417 l 204 542 b 189 565 197 543 189 553 l 189 635 b 249 696 189 646 226 685 b 257 697 249 696 251 697 l 453 697 b 461 696 460 697 461 696 b 522 632 490 678 522 632 l 663 672 b 635 721 653 693 646 706 b 458 836 599 768 542 836 l 253 836 b 167 811 222 836 189 824 b 64 711 138 794 81 736 b 43 632 47 686 43 656 l 43 557 b 151 406 43 493 81 425 l 513 303 b 529 279 519 301 529 292 l 529 197 b 467 133 529 186 488 144 b 458 132 467 133 464 132 l 231 132 b 221 133 224 132 221 133 b 160 197 188 158 160 197 l 22 151 b 47 108 33 131 36 124 b 224 -7 83 60 142 -7 l 465 -7 b 551 18 494 -7 529 6 b 653 118 581 35 636 93 b 675 197 671 143 675 174 z m 315 885 l 368 957 l 421 885 l 569 885 l 433 1067 l 303 1067 l 167 885 z "},"ŝ":{"ha":651,"x_min":0,"x_max":0,"o":"m 247 685 l 300 757 l 353 685 l 501 685 l 365 867 l 235 867 l 99 685 z m 153 163 l 149 168 l 19 129 b 108 26 35 92 81 46 b 208 -7 135 8 175 -7 l 367 -7 b 465 24 401 -7 438 4 b 528 88 488 39 517 71 b 554 172 546 113 554 142 l 554 211 b 417 354 554 303 492 346 b 199 375 340 363 235 371 b 178 393 185 376 178 389 l 178 426 b 179 440 178 438 179 440 b 211 472 188 456 206 469 b 229 475 217 475 229 475 l 363 475 b 414 439 376 475 406 449 b 418 433 417 436 418 433 l 549 472 b 458 575 533 510 486 556 b 358 607 432 593 392 607 l 225 607 b 64 514 156 607 103 569 b 39 429 46 489 39 460 l 39 388 b 169 246 39 299 96 251 b 397 228 249 239 349 232 b 415 208 413 226 415 215 l 415 175 b 365 125 415 156 382 125 l 204 125 b 153 163 190 126 161 153 z "},"Ş":{"ha":793,"x_min":0,"x_max":0,"o":"m 467 -101 l 332 -61 l 199 -275 l 356 -275 z m 675 197 l 675 285 b 567 436 675 347 638 417 l 204 542 b 189 565 197 543 189 553 l 189 635 b 249 696 189 646 226 685 b 257 697 249 696 251 697 l 453 697 b 461 696 460 697 461 696 b 522 632 490 678 522 632 l 663 672 b 635 721 653 693 646 706 b 458 836 599 768 542 836 l 253 836 b 167 811 222 836 189 824 b 64 711 138 794 81 736 b 43 632 47 686 43 656 l 43 557 b 151 406 43 493 81 425 l 513 303 b 529 279 519 301 529 292 l 529 197 b 467 133 529 186 488 144 b 458 132 467 133 464 132 l 231 132 b 221 133 224 132 221 133 b 160 197 188 158 160 197 l 22 151 b 47 108 33 131 36 124 b 224 -7 83 60 142 -7 l 465 -7 b 551 18 494 -7 529 6 b 653 118 581 35 636 93 b 675 197 671 143 675 174 z "},"ş":{"ha":651,"x_min":0,"x_max":0,"o":"m 411 -101 l 276 -61 l 143 -275 l 300 -275 z m 153 163 l 149 168 l 19 129 b 108 26 35 92 81 46 b 208 -7 135 8 175 -7 l 367 -7 b 465 24 401 -7 438 4 b 528 88 488 39 517 71 b 554 172 546 113 554 142 l 554 211 b 417 354 554 303 492 346 b 199 375 340 363 235 371 b 178 393 185 376 178 389 l 178 426 b 179 440 178 438 179 440 b 211 472 188 456 206 469 b 229 475 217 475 229 475 l 363 475 b 414 439 376 475 406 449 b 418 433 417 436 418 433 l 549 472 b 458 575 533 510 486 556 b 358 607 432 593 392 607 l 225 607 b 64 514 156 607 103 569 b 39 429 46 489 39 460 l 39 388 b 169 246 39 299 96 251 b 397 228 249 239 349 232 b 415 208 413 226 415 215 l 415 175 b 365 125 415 156 382 125 l 204 125 b 153 163 190 126 161 153 z "},"Ŧ":{"ha":707,"x_min":0,"x_max":0,"o":"m 518 344 l 518 476 l 394 476 l 394 693 l 619 693 l 619 831 l 24 831 l 24 693 l 249 693 l 249 476 l 114 476 l 114 344 l 249 344 l 249 0 l 394 0 l 394 344 z "},"ŧ":{"ha":494,"x_min":0,"x_max":0,"o":"m 403 274 l 403 406 l 232 406 l 232 468 l 404 468 l 404 600 l 232 600 l 232 831 l 93 831 l 93 600 l 0 600 l 0 468 l 93 468 l 93 406 l -1 406 l -1 274 l 93 274 l 93 185 b 119 97 93 154 101 124 b 186 29 131 82 164 44 b 286 0 214 10 251 0 l 403 0 l 403 132 l 288 132 b 233 178 268 132 242 163 b 232 186 232 181 232 186 l 232 274 z "},"Ũ":{"ha":771,"x_min":0,"x_max":0,"o":"m 497 831 l 643 831 l 643 197 b 621 118 643 171 638 143 b 519 18 604 94 550 35 b 435 -7 497 4 464 -7 l 258 -7 b 172 18 228 -7 194 4 b 71 118 143 35 88 94 b 49 197 54 143 49 171 l 49 831 l 194 831 l 194 200 b 196 193 194 200 194 194 b 257 133 213 168 240 142 b 264 132 260 132 264 132 l 429 132 b 436 133 431 132 433 132 b 496 193 451 142 479 168 b 497 199 497 196 497 199 z m 569 922 b 378 1036 531 1021 449 1058 l 283 1007 b 235 1042 269 1003 247 1013 l 117 1013 b 311 900 156 915 243 878 l 401 929 b 458 890 415 933 446 919 z "},"ũ":{"ha":678,"x_min":0,"x_max":0,"o":"m 569 0 l 557 124 l 557 600 l 418 600 l 418 182 b 336 126 400 163 350 126 l 238 126 b 229 128 233 126 232 126 b 183 169 214 138 192 154 b 182 179 182 172 182 178 l 182 600 l 43 600 l 43 176 b 68 92 43 149 49 118 b 135 24 79 75 114 39 b 236 -6 163 4 201 -6 l 340 -6 b 428 35 372 -6 403 17 l 433 0 z m 521 722 b 329 836 482 821 400 858 l 235 807 b 186 842 221 803 199 813 l 68 813 b 263 700 107 715 194 678 l 353 729 b 410 690 367 733 397 719 z "},"Ū":{"ha":771,"x_min":0,"x_max":0,"o":"m 497 831 l 643 831 l 643 197 b 621 118 643 171 638 143 b 519 18 604 94 550 35 b 435 -7 497 4 464 -7 l 258 -7 b 172 18 228 -7 194 4 b 71 118 143 35 88 94 b 49 197 54 143 49 171 l 49 831 l 194 831 l 194 200 b 196 193 194 200 194 194 b 257 133 213 168 240 142 b 264 132 260 132 264 132 l 429 132 b 436 133 431 132 433 132 b 496 193 451 142 479 168 b 497 199 497 196 497 199 z m 500 908 l 500 1046 l 185 1046 l 185 908 z "},"ū":{"ha":678,"x_min":0,"x_max":0,"o":"m 569 0 l 557 124 l 557 600 l 418 600 l 418 182 b 336 126 400 163 350 126 l 238 126 b 229 128 233 126 232 126 b 183 169 214 138 192 154 b 182 179 182 172 182 178 l 182 600 l 43 600 l 43 176 b 68 92 43 149 49 118 b 135 24 79 75 114 39 b 236 -6 163 4 201 -6 l 340 -6 b 428 35 372 -6 403 17 l 433 0 z m 461 693 l 461 831 l 146 831 l 146 693 z "},"Ŭ":{"ha":771,"x_min":0,"x_max":0,"o":"m 497 199 b 496 193 497 199 497 196 b 436 133 479 168 451 142 b 429 132 433 132 431 132 l 264 132 b 257 133 264 132 260 132 b 196 193 240 142 213 168 b 194 200 194 194 194 200 l 194 831 l 49 831 l 49 197 b 71 118 49 171 54 143 b 172 18 88 94 143 35 b 258 -7 194 4 228 -7 l 435 -7 b 519 18 464 -7 497 4 b 621 118 550 35 604 94 b 643 197 638 143 643 171 l 643 831 l 497 831 z m 411 1043 b 349 976 411 1007 385 976 b 283 1043 313 976 283 1007 l 203 1043 b 349 899 203 963 271 899 b 492 1043 426 899 492 963 z "},"ŭ":{"ha":678,"x_min":0,"x_max":0,"o":"m 569 0 l 557 124 l 557 600 l 418 600 l 418 182 b 336 126 400 163 350 126 l 238 126 b 229 128 233 126 232 126 b 183 169 214 138 192 154 b 182 179 182 172 182 178 l 182 600 l 43 600 l 43 176 b 68 92 43 149 49 118 b 135 24 79 75 114 39 b 236 -6 163 4 201 -6 l 340 -6 b 428 35 372 -6 403 17 l 433 0 z m 365 828 b 303 761 365 792 339 761 b 238 828 267 761 238 792 l 157 828 b 303 683 157 747 225 683 b 446 828 381 683 446 747 z "},"Ų":{"ha":771,"x_min":0,"x_max":0,"o":"m 329 -275 l 486 -275 l 353 -61 l 218 -101 z m 497 199 b 496 193 497 199 497 196 b 436 133 479 168 451 142 b 429 132 433 132 431 132 l 264 132 b 257 133 264 132 260 132 b 196 193 240 142 213 168 b 194 200 194 194 194 200 l 194 831 l 49 831 l 49 197 b 71 118 49 171 54 143 b 172 18 88 94 143 35 b 258 -7 194 4 228 -7 l 435 -7 b 519 18 464 -7 497 4 b 621 118 550 35 604 94 b 643 197 638 143 643 171 l 643 831 l 497 831 z "},"ų":{"ha":678,"x_min":0,"x_max":0,"o":"m 282 -275 l 439 -275 l 306 -61 l 171 -101 z m 569 0 l 557 124 l 557 600 l 418 600 l 418 182 b 336 126 400 163 350 126 l 238 126 b 229 128 233 126 232 126 b 183 169 214 138 192 154 b 182 179 182 172 182 178 l 182 600 l 43 600 l 43 176 b 68 92 43 149 49 118 b 135 24 79 75 114 39 b 236 -6 163 4 201 -6 l 340 -6 b 428 35 372 -6 403 17 l 433 0 z "},"Ŵ":{"ha":1025,"x_min":0,"x_max":0,"o":"m 975 831 l 821 831 l 697 247 l 560 831 l 404 831 l 267 247 l 142 831 l -8 831 l 182 0 l 349 0 l 483 557 l 617 0 l 782 0 z m 433 885 l 486 957 l 539 885 l 688 885 l 551 1067 l 421 1067 l 285 885 z "},"ŵ":{"ha":931,"x_min":0,"x_max":0,"o":"m 869 600 l 724 600 l 610 213 l 503 600 l 357 600 l 247 213 l 136 600 l -11 600 l 172 0 l 314 0 l 429 376 l 542 0 l 683 0 z m 385 685 l 438 757 l 490 685 l 639 685 l 503 867 l 372 867 l 236 685 z "},"Ŷ":{"ha":722,"x_min":0,"x_max":0,"o":"m 669 831 l 507 831 l 322 515 l 138 831 l -24 831 l 249 363 l 249 0 l 394 0 l 394 363 z m 269 885 l 322 957 l 375 885 l 524 885 l 388 1067 l 257 1067 l 121 885 z "},"ŷ":{"ha":597,"x_min":0,"x_max":0,"o":"m 590 600 l 443 600 l 301 193 l 161 600 l 6 600 l 226 0 l 239 0 l 156 -225 l 296 -225 z m 247 685 l 300 757 l 353 685 l 501 685 l 365 867 l 235 867 l 99 685 z "},"ſ":{"ha":472,"x_min":0,"x_max":0,"o":"m 256 661 b 299 703 257 674 286 696 b 311 704 300 704 310 704 l 426 704 l 426 836 l 310 836 b 208 806 275 836 236 825 b 142 739 186 790 153 754 b 117 653 122 713 117 682 l 117 600 l 24 600 l 24 468 l 117 468 l 117 0 l 256 0 z "},"А":{"ha":763,"x_min":0,"x_max":0,"o":"m 715 0 l 426 831 l 257 831 l -33 0 l 122 0 l 183 176 l 499 176 l 560 0 z m 453 315 l 229 315 l 342 643 z "},"В":{"ha":771,"x_min":0,"x_max":0,"o":"m 649 189 l 649 294 b 594 414 649 353 626 382 b 649 535 626 446 649 476 l 649 638 b 625 724 649 665 643 697 b 551 799 613 742 571 785 b 451 831 524 818 488 831 l 61 831 l 61 0 l 451 0 b 551 31 485 0 524 11 b 625 106 571 44 613 88 b 649 189 642 131 649 160 z m 501 528 b 451 482 492 507 464 482 l 207 482 l 207 693 l 450 693 b 501 644 463 693 489 667 b 503 638 501 644 503 640 l 503 538 b 501 528 503 531 501 528 z m 501 185 b 451 139 492 164 464 139 l 207 139 l 207 347 l 450 347 b 501 300 463 347 489 322 b 503 293 501 300 503 297 l 503 194 b 501 185 503 189 501 185 z "},"Е":{"ha":717,"x_min":0,"x_max":0,"o":"m 583 0 l 583 139 l 207 139 l 207 343 l 561 343 l 561 482 l 207 482 l 207 692 l 583 692 l 583 831 l 61 831 l 61 0 z "},"Б":{"ha":771,"x_min":0,"x_max":0,"o":"m 625 376 b 551 451 617 392 572 436 b 454 482 526 468 489 482 l 207 482 l 207 692 l 571 692 l 571 831 l 61 831 l 61 0 l 454 0 b 551 31 490 0 525 11 b 625 106 572 44 615 90 b 649 189 643 132 649 160 l 649 293 b 625 376 649 324 643 350 z m 501 185 b 453 139 492 164 465 139 l 207 139 l 207 347 l 451 347 b 501 300 464 347 489 322 b 503 293 501 300 503 297 l 503 194 b 501 185 503 189 501 185 z "},"Г":{"ha":667,"x_min":0,"x_max":0,"o":"m 61 831 l 61 0 l 207 0 l 207 692 l 575 692 l 575 831 z "},"Д":{"ha":822,"x_min":0,"x_max":0,"o":"m 94 203 b 25 138 94 194 35 136 l -21 138 l -21 -112 l 122 -112 l 122 0 l 571 0 l 558 -112 l 704 -112 l 732 138 l 665 138 l 665 831 l 167 831 z m 299 692 l 521 692 l 521 138 l 213 138 b 239 190 225 153 236 167 z "},"И":{"ha":788,"x_min":0,"x_max":0,"o":"m 215 0 l 503 551 l 503 0 l 649 0 l 649 831 l 492 831 l 207 272 l 207 831 l 61 831 l 61 0 z "},"Н":{"ha":794,"x_min":0,"x_max":0,"o":"m 656 0 l 656 831 l 510 831 l 510 482 l 207 482 l 207 831 l 61 831 l 61 0 l 207 0 l 207 343 l 510 343 l 510 0 z "},"Л":{"ha":843,"x_min":0,"x_max":0,"o":"m 276 196 l 276 690 l 558 690 l 558 0 l 704 0 l 704 831 l 131 831 l 131 197 b 61 132 131 189 71 131 l -33 132 l -33 -7 l 68 -7 b 154 18 97 -7 131 4 b 253 117 183 35 236 93 b 276 196 269 142 276 169 z "},"З":{"ha":731,"x_min":0,"x_max":0,"o":"m 463 186 b 461 179 463 182 461 179 b 410 132 449 158 422 132 l 233 132 b 226 133 232 132 229 132 b 158 204 210 142 178 175 l 17 167 b 51 107 22 151 40 122 b 229 -7 89 58 150 -7 l 411 -7 b 508 24 444 -7 481 4 b 583 100 528 38 571 82 b 608 185 600 125 608 156 l 608 301 b 553 421 608 358 583 390 b 608 539 583 451 608 482 l 608 643 b 583 728 608 672 600 703 b 508 804 571 746 528 790 b 411 835 481 824 444 835 l 229 835 b 51 721 150 835 89 768 b 18 661 40 706 26 679 l 160 622 b 228 693 171 657 211 685 b 233 694 231 694 232 694 l 410 694 b 461 649 422 694 449 669 b 463 642 461 649 463 646 l 463 542 b 461 535 463 542 463 538 b 411 489 450 514 424 489 b 410 489 411 489 411 489 l 215 489 l 215 351 l 410 351 b 411 351 411 351 411 351 b 461 306 424 351 450 326 b 463 299 463 303 463 299 z "},"М":{"ha":918,"x_min":0,"x_max":0,"o":"m 779 0 l 779 831 l 614 831 l 422 421 l 228 831 l 61 831 l 61 0 l 207 0 l 207 567 l 372 204 l 468 204 l 633 568 l 633 0 z "},"О":{"ha":818,"x_min":0,"x_max":0,"o":"m 693 197 l 693 632 b 671 711 693 658 688 686 b 569 811 653 735 599 794 b 483 836 547 825 513 836 l 272 836 b 186 811 242 836 208 825 b 85 711 157 794 101 735 b 63 632 68 686 63 658 l 63 197 b 85 118 63 171 68 143 b 186 18 101 94 157 35 b 272 -7 208 4 242 -7 l 483 -7 b 569 18 513 -7 547 4 b 671 118 599 35 653 94 b 693 197 688 143 693 171 z m 208 628 b 210 635 208 628 208 632 b 271 696 226 660 256 688 b 278 697 272 697 278 697 l 478 697 b 485 696 479 697 482 697 b 546 635 500 688 529 660 b 547 628 547 633 547 628 l 547 199 b 546 193 547 199 547 196 b 485 133 529 168 500 142 b 478 132 482 132 478 132 l 278 132 b 271 133 276 132 274 132 b 210 193 256 142 226 168 b 208 199 208 194 208 199 z "},"П":{"ha":776,"x_min":0,"x_max":0,"o":"m 638 0 l 638 831 l 61 831 l 61 0 l 207 0 l 207 692 l 492 692 l 492 0 z "},"Р":{"ha":746,"x_min":0,"x_max":0,"o":"m 650 517 l 650 639 b 625 724 650 668 642 699 b 550 800 613 742 569 786 b 451 831 522 819 485 831 l 61 831 l 61 0 l 207 0 l 207 328 l 451 328 b 550 358 485 328 521 338 b 625 432 569 372 613 414 b 650 517 642 457 650 486 z m 504 518 b 503 513 504 515 503 513 b 451 467 492 493 464 467 l 207 467 l 207 692 l 451 692 b 458 692 454 692 456 692 b 503 647 472 690 494 663 b 504 638 504 644 504 638 z "},"К":{"ha":739,"x_min":0,"x_max":0,"o":"m 689 0 b 365 417 588 119 471 290 l 688 831 l 508 831 b 239 485 414 718 335 599 l 207 485 l 207 831 l 61 831 l 61 0 l 207 0 l 207 347 l 240 347 l 510 0 z "},"Ж":{"ha":1135,"x_min":0,"x_max":0,"o":"m 1085 0 b 761 417 983 119 867 290 l 1083 831 l 904 831 b 635 485 810 718 731 599 l 603 485 l 603 831 l 457 831 l 457 485 l 425 485 b 156 831 329 599 250 718 l -24 831 l 299 417 b -25 0 193 290 76 119 l 154 0 l 424 347 l 457 347 l 457 0 l 603 0 l 603 347 l 636 347 l 906 0 z "},"С":{"ha":768,"x_min":0,"x_max":0,"o":"m 650 161 l 508 199 b 446 133 508 199 475 147 b 439 132 443 132 440 132 l 281 132 b 271 133 279 132 272 132 b 207 197 250 144 207 181 b 207 619 207 197 207 618 b 208 635 207 622 207 632 b 271 696 222 657 253 686 b 276 697 271 696 274 697 l 440 697 b 446 696 442 697 444 697 b 508 632 467 683 508 632 l 650 672 b 621 721 638 694 632 706 b 444 836 585 768 522 836 l 271 836 b 185 811 240 836 207 824 b 83 711 156 794 100 735 b 61 633 67 686 61 660 l 61 196 b 83 117 61 169 67 142 b 185 18 100 92 156 35 b 271 -7 207 4 240 -7 l 444 -7 b 621 108 522 -7 585 60 b 650 161 632 124 639 136 z "},"Т":{"ha":693,"x_min":0,"x_max":0,"o":"m 606 692 l 606 831 l 10 831 l 10 692 l 235 692 l 235 0 l 381 0 l 381 692 z "},"У":{"ha":729,"x_min":0,"x_max":0,"o":"m 658 831 l 508 831 l 321 374 l 142 831 l -14 831 l 232 221 l 261 221 l 174 0 l 315 0 z "},"Х":{"ha":739,"x_min":0,"x_max":0,"o":"m 665 831 l 504 831 l 333 554 l 164 831 l 3 831 l 253 425 l -11 0 l 151 0 l 333 296 l 517 0 l 679 0 l 414 425 z "},"Я":{"ha":768,"x_min":0,"x_max":0,"o":"m 40 517 b 65 432 40 486 49 457 b 140 358 78 414 121 372 b 176 339 151 350 164 343 l -3 0 l 157 0 l 325 328 l 483 328 l 483 0 l 629 0 l 629 831 l 239 831 b 140 800 206 831 168 819 b 65 724 121 786 78 742 b 40 639 49 699 40 668 z m 186 638 b 188 647 186 638 186 644 b 232 692 196 663 218 690 l 483 692 l 483 467 l 239 467 b 188 513 226 467 199 493 b 186 518 188 513 186 515 z "},"Й":{"ha":788,"x_min":0,"x_max":0,"o":"m 215 0 l 503 551 l 503 0 l 649 0 l 649 831 l 492 831 l 207 272 l 207 831 l 61 831 l 61 0 z m 424 1058 b 361 992 424 1022 397 992 b 296 1058 325 992 296 1022 l 215 1058 b 361 914 215 978 283 914 b 504 1058 439 914 504 978 z "},"Ц":{"ha":794,"x_min":0,"x_max":0,"o":"m 638 138 l 638 831 l 492 831 l 492 138 l 207 138 l 207 831 l 61 831 l 61 0 l 543 0 l 529 -110 l 675 -110 l 704 138 z "},"Ш":{"ha":918,"x_min":0,"x_max":0,"o":"m 61 831 l 61 0 l 779 0 l 779 831 l 633 831 l 633 138 l 493 138 l 493 831 l 349 831 l 349 138 l 207 138 l 207 831 z "},"Щ":{"ha":936,"x_min":0,"x_max":0,"o":"m 61 831 l 61 0 l 685 0 l 671 -110 l 817 -110 l 846 138 l 779 138 l 779 831 l 633 831 l 633 138 l 493 138 l 493 831 l 349 831 l 349 138 l 207 138 l 207 831 z "},"Э":{"ha":731,"x_min":0,"x_max":0,"o":"m 463 186 b 461 179 463 182 461 179 b 410 132 449 158 422 132 l 233 132 b 226 133 232 132 229 132 b 158 204 210 142 178 175 l 17 167 b 51 107 22 151 40 122 b 229 -7 89 58 150 -7 l 411 -7 b 508 24 444 -7 481 4 b 583 100 528 38 571 82 b 608 185 600 125 608 156 l 608 643 b 583 728 608 672 600 703 b 508 804 571 746 528 790 b 411 835 481 824 444 835 l 229 835 b 51 721 150 835 89 768 b 18 661 40 706 26 679 l 160 622 b 228 693 171 657 211 685 l 233 694 l 410 694 b 461 649 422 694 449 669 b 463 642 461 649 463 646 l 463 489 l 215 489 l 215 351 l 463 351 z "},"Ь":{"ha":771,"x_min":0,"x_max":0,"o":"m 625 376 b 551 451 617 392 572 436 b 454 482 526 468 489 482 l 207 482 l 207 831 l 61 831 l 61 0 l 454 0 b 551 31 490 0 525 11 b 625 106 572 44 615 90 b 649 189 643 132 649 160 l 649 293 b 625 376 649 324 643 350 z m 501 183 b 453 138 492 163 465 138 l 207 138 l 207 347 l 451 347 b 501 300 464 347 489 322 b 503 293 501 300 503 297 l 503 193 b 501 183 503 188 501 183 z "},"Ъ":{"ha":813,"x_min":0,"x_max":0,"o":"m 249 831 l -25 831 l -25 692 l 103 692 l 103 0 l 496 0 b 593 31 532 0 567 11 b 667 106 614 44 657 90 b 690 189 685 132 690 160 l 690 293 b 667 376 690 324 685 350 b 593 451 658 392 614 436 b 496 482 568 468 531 482 l 249 482 z m 543 185 b 494 139 533 164 507 139 l 249 139 l 249 347 l 493 347 b 543 300 506 347 531 322 b 544 293 543 300 544 297 l 544 194 b 543 185 544 189 543 185 z "},"Ы":{"ha":1071,"x_min":0,"x_max":0,"o":"m 625 376 b 551 451 617 392 572 436 b 454 482 526 468 489 482 l 207 482 l 207 831 l 61 831 l 61 0 l 454 0 b 551 31 490 0 525 11 b 625 106 572 44 615 90 b 649 189 643 132 649 160 l 649 293 b 625 376 649 324 643 350 z m 501 183 b 453 138 492 163 465 138 l 207 138 l 207 347 l 451 347 b 501 300 464 347 489 322 b 503 293 501 300 503 297 l 503 193 b 501 183 503 188 501 183 z m 932 0 l 932 831 l 786 831 l 786 0 z "},"Ю":{"ha":1090,"x_min":0,"x_max":0,"o":"m 965 197 l 965 632 b 943 711 965 658 960 686 b 842 811 925 735 871 794 b 756 836 819 825 785 836 l 544 836 b 458 811 514 836 481 825 b 357 711 429 794 374 735 b 335 632 340 686 335 658 l 335 482 l 207 482 l 207 831 l 61 831 l 61 0 l 207 0 l 207 343 l 335 343 l 335 197 b 357 118 335 171 340 143 b 458 18 374 94 429 35 b 544 -7 481 4 514 -7 l 756 -7 b 842 18 785 -7 819 4 b 943 118 871 35 925 94 b 965 197 960 143 965 171 z m 481 628 b 482 635 481 628 481 632 b 543 696 499 660 528 688 b 550 697 544 697 550 697 l 750 697 b 757 696 751 697 754 697 b 818 635 772 688 801 660 b 819 628 819 633 819 628 l 819 199 b 818 193 819 199 819 196 b 757 133 801 168 772 142 b 750 132 754 132 750 132 l 550 132 b 543 133 549 132 546 132 b 482 193 528 142 499 168 b 481 199 481 194 481 199 z "},"Ч":{"ha":764,"x_min":0,"x_max":0,"o":"m 625 0 l 625 831 l 479 831 l 479 482 l 242 482 b 239 483 242 482 240 482 b 178 543 224 492 194 518 b 176 549 176 544 176 549 l 176 831 l 31 831 l 31 547 b 53 468 31 521 36 493 b 154 368 69 444 125 385 b 240 343 176 354 210 343 l 479 343 l 479 0 z "},"Ф":{"ha":860,"x_min":0,"x_max":0,"o":"m 438 -115 l 438 -7 l 525 -7 b 611 18 554 -7 589 4 b 713 118 640 35 694 94 b 735 197 729 143 735 171 l 735 632 b 713 711 735 658 729 686 b 611 811 694 735 640 794 b 525 836 589 825 554 836 l 438 836 l 438 932 l 357 932 l 357 836 l 272 836 b 186 811 242 836 208 825 b 85 711 157 794 101 735 b 63 632 68 686 63 658 l 63 197 b 85 118 63 171 68 143 b 186 18 101 94 157 35 b 272 -7 208 4 242 -7 l 357 -7 l 357 -115 z m 519 697 b 526 696 521 697 524 697 b 588 635 542 688 571 660 b 589 628 589 633 589 628 l 589 199 b 588 193 589 199 589 196 b 526 133 571 168 542 142 b 519 132 524 132 519 132 l 438 132 l 438 697 z m 208 628 b 210 635 208 628 208 632 b 271 696 226 660 256 688 b 278 697 272 697 278 697 l 357 697 l 357 132 l 278 132 b 271 133 276 132 274 132 b 210 193 256 142 226 168 b 208 199 208 194 208 199 z "},"І":{"ha":346,"x_min":0,"x_max":0,"o":"m 207 0 l 207 831 l 61 831 l 61 0 z "},"Ґ":{"ha":682,"x_min":0,"x_max":0,"o":"m 590 692 l 590 949 l 450 949 l 450 831 l 61 831 l 61 0 l 207 0 l 207 692 z "},"е":{"ha":668,"x_min":0,"x_max":0,"o":"m 561 233 l 561 425 b 536 510 561 453 556 483 b 469 576 525 526 490 561 b 368 607 442 596 403 607 l 240 607 b 139 576 206 607 167 596 b 72 510 118 561 83 525 b 46 425 54 485 46 456 l 46 175 b 72 89 46 144 54 114 b 139 22 83 74 118 38 b 240 -7 167 3 206 -7 l 371 -7 b 471 25 404 -7 444 7 b 560 128 493 40 546 94 l 431 167 b 426 161 431 167 428 163 b 375 125 418 151 389 125 l 240 125 b 186 169 226 125 199 149 b 185 176 186 169 185 172 l 185 233 z m 422 357 l 185 357 l 185 422 b 186 431 185 422 185 428 b 240 475 199 451 226 475 l 367 475 b 375 474 369 475 372 475 b 421 431 392 464 413 444 b 422 422 422 429 422 422 z "},"а":{"ha":665,"x_min":0,"x_max":0,"o":"m 406 376 l 214 376 b 114 346 179 376 142 365 b 49 283 93 331 60 299 b 24 199 31 258 24 229 l 24 174 b 49 89 24 143 31 114 b 114 24 60 74 93 39 b 214 -7 142 4 179 -7 l 328 -7 b 414 28 360 -7 389 10 l 421 0 l 558 0 l 544 122 l 544 425 b 521 511 544 453 540 485 b 454 576 510 528 475 561 b 353 607 426 596 388 607 l 233 607 b 133 574 200 607 160 592 b 43 471 111 558 57 504 l 174 432 b 229 475 182 443 213 475 l 351 475 b 360 472 354 475 357 474 b 404 431 376 463 396 444 b 406 424 406 429 406 424 z m 406 181 b 324 125 394 168 339 125 l 215 125 b 207 128 214 125 210 126 b 164 171 190 136 174 154 b 163 175 164 171 163 174 l 163 201 b 164 206 163 203 164 206 b 206 250 174 222 190 240 b 215 253 210 253 211 253 l 406 253 z "},"р":{"ha":682,"x_min":0,"x_max":0,"o":"m 572 176 l 572 422 b 547 508 572 453 565 482 b 481 576 536 525 501 561 b 381 607 454 596 415 607 l 279 607 b 189 569 246 607 214 589 l 183 600 l 46 600 l 58 476 l 58 -226 l 197 -226 l 197 25 b 279 -7 221 8 250 -7 l 381 -7 b 481 22 415 -7 453 3 b 547 90 503 38 536 75 b 572 176 565 115 572 146 z m 433 179 b 432 172 433 175 432 172 b 388 126 422 156 403 136 b 379 125 385 125 383 125 l 283 125 b 197 186 267 125 215 165 l 197 413 b 283 475 215 433 268 475 l 379 475 b 388 472 382 475 385 474 b 432 428 403 463 422 444 b 433 419 432 428 433 425 z "},"с":{"ha":651,"x_min":0,"x_max":0,"o":"m 188 176 l 188 424 b 190 432 188 424 188 428 b 235 472 200 449 218 463 b 243 475 235 472 240 475 l 378 475 b 429 439 392 475 421 449 b 433 433 429 439 431 438 l 563 472 b 474 575 547 510 501 556 b 374 607 447 593 407 607 l 242 607 b 140 578 207 607 168 597 b 74 510 119 563 85 526 b 49 425 54 483 49 453 l 49 175 b 74 90 49 147 54 117 b 140 22 85 74 119 38 b 242 -7 168 3 207 -7 l 375 -7 b 475 25 408 -7 449 7 b 564 128 497 40 550 94 l 435 167 b 431 161 432 163 431 161 b 379 125 422 151 393 125 l 243 125 b 235 128 240 125 235 128 b 190 168 218 138 200 151 b 188 176 188 172 188 176 z "},"у":{"ha":593,"x_min":0,"x_max":0,"o":"m 590 600 l 443 600 l 301 193 l 161 600 l 6 600 l 226 0 l 239 0 l 156 -225 l 296 -225 z "},"ф":{"ha":694,"x_min":0,"x_max":0,"o":"m 357 -226 l 357 -7 l 393 -7 b 494 22 428 -7 467 3 b 561 90 515 38 550 74 b 585 175 581 117 585 147 l 585 425 b 561 510 585 453 581 483 b 494 576 550 526 515 561 b 393 607 467 596 428 607 l 357 607 l 357 832 l 276 832 l 276 607 l 240 607 b 140 576 206 607 168 596 b 72 510 119 561 83 526 b 49 425 53 483 49 453 l 49 175 b 72 90 49 147 53 117 b 140 22 83 74 119 38 b 240 -7 168 3 206 -7 l 276 -7 l 276 -226 z m 188 421 b 189 429 188 421 188 426 b 235 474 199 446 218 464 b 242 475 238 475 239 475 l 276 475 l 276 125 l 242 125 b 233 126 236 125 233 126 b 188 168 217 136 188 157 z m 392 475 b 399 474 394 475 396 475 b 444 429 415 464 436 443 l 446 421 l 446 168 b 400 128 444 157 413 135 b 392 125 397 126 394 125 l 357 125 l 357 475 z "},"х":{"ha":624,"x_min":0,"x_max":0,"o":"m 574 0 l 364 307 l 564 600 l 394 600 l 282 421 l 165 600 l -4 600 l 199 307 l -11 0 l 156 0 l 282 189 l 408 0 z "},"н":{"ha":688,"x_min":0,"x_max":0,"o":"m 432 600 l 432 381 l 200 381 l 200 600 l 60 600 l 60 0 l 200 0 l 200 249 l 432 249 l 432 0 l 572 0 l 572 600 z "},"о":{"ha":672,"x_min":0,"x_max":0,"o":"m 563 175 l 563 425 b 539 510 563 453 558 483 b 472 576 528 526 493 561 b 371 607 444 596 406 607 l 240 607 b 140 576 206 607 168 596 b 72 510 119 561 83 526 b 49 425 53 483 49 453 l 49 175 b 72 90 49 147 53 117 b 140 22 83 74 119 38 b 240 -7 168 3 206 -7 l 371 -7 b 472 22 406 -7 444 3 b 539 90 493 38 528 74 b 563 175 558 117 563 147 z m 188 421 b 189 429 188 421 188 426 b 235 474 199 446 218 464 b 242 475 238 475 239 475 l 369 475 b 376 474 372 475 374 475 b 422 429 393 464 414 443 b 424 421 424 425 424 422 l 424 168 b 378 128 422 157 390 135 b 369 125 375 126 372 125 l 242 125 b 233 126 236 125 233 126 b 188 168 217 136 188 157 l 188 421 z "},"п":{"ha":688,"x_min":0,"x_max":0,"o":"m 60 600 l 60 0 l 200 0 l 200 468 l 432 468 l 432 0 l 572 0 l 572 600 z "},"л":{"ha":731,"x_min":0,"x_max":0,"o":"m -12 117 l -12 -15 l 50 -15 b 149 14 83 -15 121 -6 b 218 82 171 29 207 67 b 243 169 236 108 243 139 l 243 468 l 475 468 l 475 0 l 615 0 l 615 600 l 103 600 l 103 172 b 101 165 103 169 101 165 b 57 118 92 146 72 128 b 49 117 57 118 54 117 z "},"г":{"ha":553,"x_min":0,"x_max":0,"o":"m 60 600 l 60 0 l 200 0 l 200 468 l 476 468 l 476 600 z "},"и":{"ha":706,"x_min":0,"x_max":0,"o":"m 451 600 l 199 236 l 199 600 l 60 600 l 60 0 l 194 0 l 451 369 l 451 0 l 590 0 l 590 600 z "},"ѕ":{"ha":651,"x_min":0,"x_max":0,"o":"m 153 163 l 149 168 l 19 129 b 108 26 35 92 81 46 b 208 -7 135 8 175 -7 l 367 -7 b 465 24 401 -7 438 4 b 528 88 488 39 517 71 b 554 172 546 113 554 142 l 554 211 b 417 354 554 303 492 346 b 199 375 340 363 235 371 b 178 393 185 376 178 389 l 178 426 b 179 440 178 438 179 440 b 211 472 188 456 206 469 b 229 475 217 475 229 475 l 363 475 b 414 439 376 475 406 449 b 418 433 417 436 418 433 l 549 472 b 458 575 533 510 486 556 b 358 607 432 593 392 607 l 225 607 b 64 514 156 607 103 569 b 39 429 46 489 39 460 l 39 388 b 169 246 39 299 96 251 b 397 228 249 239 349 232 b 415 208 413 226 415 215 l 415 175 b 365 125 415 156 382 125 l 204 125 b 153 163 190 126 161 153 z "},"і":{"ha":319,"x_min":0,"x_max":0,"o":"m 204 685 l 204 833 l 56 833 l 56 685 z m 200 0 l 200 600 l 61 600 l 61 0 z "},"Ј":{"ha":656,"x_min":0,"x_max":0,"o":"m 513 196 l 513 831 l 367 831 l 367 197 b 297 132 367 189 307 131 l 203 132 b 192 133 206 132 193 132 b 136 199 175 142 150 168 l -4 161 b 24 108 13 125 19 114 b 201 -7 61 58 121 -7 l 304 -7 b 390 18 333 -7 367 4 b 489 117 419 35 472 93 b 513 196 506 142 513 169 z "},"Ѓ":{"ha":667,"x_min":0,"x_max":0,"o":"m 61 831 l 61 0 l 207 0 l 207 692 l 575 692 l 575 831 z m 379 908 l 543 1111 l 379 1111 l 251 946 z "},"ѓ":{"ha":578,"x_min":0,"x_max":0,"o":"m 60 600 l 60 0 l 200 0 l 200 468 l 476 468 l 476 600 z m 335 678 l 499 881 l 335 881 l 207 715 z "},"й":{"ha":706,"x_min":0,"x_max":0,"o":"m 451 600 l 199 236 l 199 600 l 60 600 l 60 0 l 194 0 l 451 369 l 451 0 l 590 0 l 590 600 z m 393 828 b 331 761 393 792 367 761 b 265 828 294 761 265 792 l 185 828 b 331 683 185 747 253 683 b 474 828 408 683 474 747 z "},"м":{"ha":747,"x_min":0,"x_max":0,"o":"m 488 600 b 347 331 444 517 392 418 l 207 600 l 60 600 l 60 0 l 199 0 l 199 339 l 301 136 l 392 136 b 493 333 422 194 458 271 l 493 0 l 632 0 l 632 600 z "},"к":{"ha":688,"x_min":0,"x_max":0,"o":"m 650 0 l 364 310 l 631 600 l 449 600 b 244 376 386 532 308 447 l 199 376 l 199 600 l 60 600 l 60 0 l 199 0 l 199 246 l 243 246 l 464 0 z "},"Ї":{"ha":346,"x_min":0,"x_max":0,"o":"m 310 907 l 310 1050 l 175 1050 l 175 907 z m 86 907 l 86 1050 l -49 1050 l -49 907 z m 207 0 l 207 831 l 61 831 l 61 0 z "},"ї":{"ha":321,"x_min":0,"x_max":0,"o":"m 307 688 l 307 831 l 172 831 l 172 688 z m 83 688 l 83 831 l -51 831 l -51 688 z m 200 -1 l 200 597 l 61 597 l 61 -1 z "},"б":{"ha":676,"x_min":0,"x_max":0,"o":"m 268 607 b 188 561 236 607 188 561 l 188 647 b 192 663 188 650 188 658 b 242 704 192 663 228 704 l 390 704 b 428 835 388 704 429 835 l 246 835 b 150 804 213 835 176 824 b 74 728 131 790 86 746 b 49 643 57 703 49 672 l 49 175 b 72 90 49 147 53 117 b 140 22 83 74 119 38 b 240 -7 168 3 206 -7 l 375 -7 b 476 22 410 -7 449 3 b 543 90 497 38 532 74 b 567 175 563 117 567 147 l 567 425 b 543 510 567 453 563 483 b 476 576 532 526 497 561 b 375 607 449 596 410 607 z m 188 411 b 250 471 200 435 250 471 b 272 475 257 476 271 475 l 374 475 b 381 474 376 475 378 475 b 426 429 397 464 418 443 b 428 421 428 425 428 422 l 428 168 b 382 128 426 157 394 135 b 374 125 379 126 376 125 l 242 125 b 233 126 236 125 233 126 b 188 168 217 136 188 157 z "},"Ё":{"ha":717,"x_min":0,"x_max":0,"o":"m 583 0 l 583 139 l 207 139 l 207 343 l 561 343 l 561 482 l 207 482 l 207 692 l 583 692 l 583 831 l 61 831 l 61 0 z m 510 907 l 510 1050 l 375 1050 l 375 907 z m 286 907 l 286 1050 l 151 1050 l 151 907 z "},"ё":{"ha":668,"x_min":0,"x_max":0,"o":"m 561 233 l 561 425 b 536 510 561 453 556 483 b 469 576 525 526 490 561 b 368 607 442 596 403 607 l 240 607 b 139 576 206 607 167 596 b 72 510 118 561 83 525 b 46 425 54 485 46 456 l 46 175 b 72 89 46 144 54 114 b 139 22 83 74 118 38 b 240 -7 167 3 206 -7 l 371 -7 b 471 25 404 -7 444 7 b 560 128 493 40 546 94 l 431 167 b 426 161 431 167 428 163 b 375 125 418 151 389 125 l 240 125 b 186 169 226 125 199 149 b 185 176 186 169 185 172 l 185 233 z m 422 357 l 185 357 l 185 422 b 186 431 185 422 185 428 b 240 475 199 451 226 475 l 367 475 b 375 474 369 475 372 475 b 421 431 392 464 413 444 b 422 422 422 429 422 422 z m 479 688 l 479 831 l 344 831 l 344 688 z m 256 688 l 256 831 l 121 831 l 121 688 z "},"в":{"ha":657,"x_min":0,"x_max":0,"o":"m 531 328 b 556 407 547 351 554 376 l 556 426 b 532 511 556 457 549 486 b 472 572 522 525 493 557 b 376 604 449 592 410 603 l 60 604 l 60 -6 l 376 -6 b 472 24 410 -6 449 6 b 531 86 493 39 519 69 b 556 167 549 113 554 138 l 556 190 b 532 274 556 222 549 247 b 510 301 526 282 518 293 b 531 328 518 311 525 319 z m 374 475 b 379 474 375 475 376 475 b 419 429 393 467 411 444 l 419 408 b 379 364 411 392 392 374 l 378 364 b 375 364 378 364 378 364 l 196 364 l 196 475 z m 419 167 b 378 122 411 149 392 132 l 196 122 l 196 238 l 372 238 b 379 236 374 238 376 238 b 419 193 393 229 411 210 z "},"я":{"ha":664,"x_min":0,"x_max":0,"o":"m -8 0 l 157 0 b 308 232 203 72 261 158 l 411 232 l 411 0 l 549 0 l 549 604 l 228 604 b 132 574 194 604 158 592 b 72 510 111 560 82 526 b 49 431 57 485 50 458 l 49 407 b 72 324 49 376 56 349 b 131 261 82 308 108 278 b 157 247 135 258 150 249 z m 185 432 b 226 475 193 449 213 467 l 411 475 l 411 358 l 225 358 b 185 401 213 365 193 385 b 185 432 185 403 185 407 z "},"ж":{"ha":1063,"x_min":0,"x_max":0,"o":"m 1025 0 l 739 310 l 1006 600 l 824 600 l 619 376 l 574 376 l 574 600 l 435 600 l 435 376 l 389 376 l 185 600 l 3 600 l 269 310 l -17 0 l 169 0 l 390 246 l 435 246 l 435 0 l 574 0 l 574 246 l 618 246 l 839 0 z "},"з":{"ha":639,"x_min":0,"x_max":0,"o":"m 538 404 l 538 422 b 511 508 538 453 529 483 b 444 575 500 524 465 560 b 343 604 417 594 378 604 l 213 604 b 113 572 179 604 139 590 b 24 469 90 557 38 503 l 153 431 b 157 436 153 431 156 435 b 208 472 165 446 194 472 l 343 472 b 397 428 357 472 385 449 b 399 421 397 428 399 425 l 399 404 b 361 363 390 388 374 372 l 214 363 l 214 238 l 354 238 b 361 236 356 238 360 238 b 399 194 375 228 390 210 l 399 176 b 397 169 399 172 397 169 b 343 125 385 149 357 125 l 208 125 b 157 161 194 125 165 151 b 153 167 156 163 153 167 l 24 128 b 113 25 38 94 90 40 b 213 -7 139 7 179 -7 l 343 -7 b 444 22 378 -7 417 3 b 511 89 465 38 500 74 b 538 175 529 114 538 144 l 538 190 b 513 274 538 222 529 249 b 488 301 507 282 496 293 b 513 328 497 310 508 321 b 538 404 528 350 536 375 z "},"э":{"ha":658,"x_min":0,"x_max":0,"o":"m 543 422 b 517 508 543 453 535 483 b 450 575 506 524 471 560 b 349 604 422 594 383 604 l 218 604 b 118 572 185 604 144 590 b 29 469 96 557 43 503 l 158 431 b 163 436 158 431 161 435 b 214 472 171 446 200 472 l 350 472 b 403 428 364 472 390 449 b 404 421 403 428 404 425 l 404 363 l 219 363 l 219 238 l 404 238 l 404 176 b 403 169 404 172 403 169 b 350 125 390 149 364 125 l 214 125 b 163 161 200 125 171 151 b 158 167 161 163 158 167 l 29 128 b 118 25 43 94 96 40 b 218 -7 144 7 185 -7 l 349 -7 b 450 22 383 -7 422 3 b 517 89 471 38 506 74 b 543 175 535 114 543 144 b 543 422 543 260 543 344 z "},"д":{"ha":731,"x_min":0,"x_max":0,"o":"m 594 129 l 594 600 l 164 600 l 107 188 b 103 176 106 182 104 179 b 64 133 93 160 75 139 b 6 129 56 129 21 129 l 6 -107 l 139 -107 l 139 0 l 515 0 l 504 -107 l 636 -107 l 665 129 z m 242 182 l 283 471 l 458 471 l 458 129 l 215 129 b 242 182 224 142 239 165 z "},"т":{"ha":601,"x_min":0,"x_max":0,"o":"m 525 468 l 525 600 l 14 600 l 14 468 l 200 468 l 200 0 l 339 0 l 339 468 z "},"ц":{"ha":708,"x_min":0,"x_max":0,"o":"m 572 129 l 572 600 l 433 600 l 433 132 l 199 132 l 199 600 l 60 600 l 60 0 l 493 0 l 482 -107 l 614 -107 l 643 129 z "},"ш":{"ha":808,"x_min":0,"x_max":0,"o":"m 693 600 l 557 600 l 557 129 l 443 129 l 443 600 l 307 600 l 307 129 l 197 129 l 197 600 l 61 600 l 61 0 l 693 0 z "},"щ":{"ha":831,"x_min":0,"x_max":0,"o":"m 694 129 l 693 126 l 693 600 l 557 600 l 557 129 l 443 129 l 443 600 l 307 600 l 307 129 l 197 129 l 197 600 l 61 600 l 61 0 l 615 0 l 604 -107 l 736 -107 l 765 129 z "},"ч":{"ha":658,"x_min":0,"x_max":0,"o":"m 171 600 l 32 600 l 32 418 b 57 331 32 388 39 357 b 124 263 68 315 101 278 b 221 233 150 243 188 233 l 403 233 l 403 0 l 542 0 l 542 600 l 403 600 l 403 363 l 222 363 b 217 364 219 363 217 364 b 172 414 201 374 182 394 b 171 421 172 414 171 418 z "},"є":{"ha":661,"x_min":0,"x_max":0,"o":"m 49 422 b 49 175 49 344 49 260 b 75 89 49 144 57 114 b 142 22 86 74 121 38 b 243 -7 169 3 208 -7 l 374 -7 b 474 25 407 -7 447 7 b 563 128 496 40 549 94 l 433 167 b 429 161 433 167 431 163 b 378 125 421 151 392 125 l 242 125 b 189 169 228 125 201 149 b 188 176 189 169 188 172 l 188 238 l 372 238 l 372 363 l 188 363 l 188 421 b 189 428 188 425 189 428 b 242 472 201 449 228 472 l 378 472 b 429 436 392 472 421 446 b 433 431 431 435 433 431 l 563 469 b 474 572 549 503 496 557 b 374 604 447 590 407 604 l 243 604 b 142 575 208 604 169 594 b 75 508 121 560 86 524 b 49 422 57 483 49 453 z "},"Є":{"ha":771,"x_min":0,"x_max":0,"o":"m 207 351 l 454 351 l 454 489 l 207 489 l 207 642 b 208 649 207 646 208 649 b 260 694 221 669 247 694 l 436 694 l 442 693 b 510 622 458 685 499 657 l 651 661 b 618 721 643 679 629 706 b 440 835 581 768 519 835 l 258 835 b 161 804 225 835 189 824 b 86 728 142 790 99 746 b 61 643 69 703 61 672 l 61 185 b 86 100 61 156 69 125 b 161 24 99 82 142 38 b 258 -7 189 4 225 -7 l 440 -7 b 618 107 519 -7 581 58 b 653 167 629 122 647 151 l 511 204 b 443 133 492 175 460 142 b 436 132 440 132 438 132 l 260 132 b 208 179 247 132 221 158 b 207 186 208 179 207 182 z "},"Ќ":{"ha":725,"x_min":0,"x_max":0,"o":"m 689 0 b 365 417 588 119 471 290 l 688 831 l 508 831 b 239 485 414 718 335 599 l 207 485 l 207 831 l 61 831 l 61 0 l 207 0 l 207 347 l 240 347 l 510 0 z m 408 908 l 572 1111 l 408 1111 l 281 946 z "},"ќ":{"ha":688,"x_min":0,"x_max":0,"o":"m 650 0 l 364 310 l 631 600 l 449 600 b 244 376 386 532 308 447 l 199 376 l 199 600 l 60 600 l 60 0 l 199 0 l 199 246 l 243 246 l 464 0 z m 390 678 l 554 881 l 390 881 l 263 715 z "},"ь":{"ha":682,"x_min":0,"x_max":0,"o":"m 199 600 l 60 600 l 60 -7 l 390 -7 b 490 24 425 -7 463 4 b 556 89 511 39 544 74 b 581 174 574 114 581 143 l 581 199 b 556 283 581 229 574 258 b 490 349 544 299 511 333 b 390 379 463 368 425 379 l 199 379 z m 199 249 l 389 249 b 399 246 393 249 397 247 b 440 201 414 236 431 218 b 442 197 440 201 442 199 l 442 175 b 440 171 442 174 440 171 b 397 128 431 154 413 138 b 389 125 397 128 392 125 l 199 125 z "},"ъ":{"ha":717,"x_min":0,"x_max":0,"o":"m 233 600 l -12 600 l -12 469 l 94 469 l 94 -7 l 425 -7 b 525 24 460 -7 497 4 b 590 89 546 39 579 74 b 615 174 608 114 615 143 l 615 199 b 590 283 615 229 608 258 b 525 349 579 299 546 333 b 425 379 497 368 460 379 l 233 379 z m 233 249 l 424 249 b 433 246 428 249 432 247 b 475 201 449 236 465 218 b 476 197 475 201 476 199 l 476 175 b 475 171 476 174 475 171 b 432 128 465 154 447 138 b 424 125 432 128 426 125 l 233 125 z "},"ы":{"ha":928,"x_min":0,"x_max":0,"o":"m 199 600 l 60 600 l 60 -7 l 390 -7 b 490 24 425 -7 463 4 b 556 89 511 39 544 74 b 581 174 574 114 581 143 l 581 199 b 556 283 581 229 574 258 b 490 349 544 299 511 333 b 390 379 463 368 425 379 l 199 379 z m 199 249 l 389 249 b 399 246 393 249 397 247 b 440 201 414 236 431 218 b 442 197 440 201 442 199 l 442 175 b 440 171 442 174 440 171 b 397 128 431 154 413 138 b 389 125 397 128 392 125 l 199 125 z m 813 0 l 813 600 l 674 600 l 674 0 z "},"Ѕ":{"ha":793,"x_min":0,"x_max":0,"o":"m 675 197 l 675 285 b 567 436 675 347 638 417 l 204 542 b 189 565 197 543 189 553 l 189 635 b 249 696 189 646 226 685 b 257 697 249 696 251 697 l 453 697 b 461 696 460 697 461 696 b 522 632 490 678 522 632 l 663 672 b 635 721 653 693 646 706 b 458 836 599 768 542 836 l 253 836 b 167 811 222 836 189 824 b 64 711 138 794 81 736 b 43 632 47 686 43 656 l 43 557 b 151 406 43 493 81 425 l 513 303 b 529 279 519 301 529 292 l 529 197 b 467 133 529 186 488 144 b 458 132 467 133 464 132 l 231 132 b 221 133 224 132 221 133 b 160 197 188 158 160 197 l 22 151 b 47 108 33 131 36 124 b 224 -7 83 60 142 -7 l 465 -7 b 551 18 494 -7 529 6 b 653 118 581 35 636 93 b 675 197 671 143 675 174 z "},"ј":{"ha":342,"x_min":0,"x_max":0,"o":"m 226 685 l 226 833 l 78 833 l 78 685 z m 26 -99 b 35 -97 32 -99 35 -97 b 82 -49 50 -87 72 -68 b 83 -42 82 -49 83 -44 l 83 600 l 222 600 l 222 -44 b 197 -132 222 -75 215 -106 b 129 -200 186 -147 151 -185 b 31 -229 101 -219 64 -229 l -86 -229 l -86 -99 z "},"ю":{"ha":924,"x_min":0,"x_max":0,"o":"m 814 175 l 814 425 b 790 510 814 453 810 483 b 724 576 779 526 744 561 b 622 607 696 596 657 607 l 492 607 b 392 576 457 607 419 596 b 324 510 371 561 335 526 b 300 425 304 483 300 453 l 300 381 l 199 381 l 199 600 l 60 600 l 60 0 l 199 0 l 199 249 l 300 249 l 300 175 b 324 90 300 147 304 117 b 392 22 335 74 371 38 b 492 -7 419 3 457 -7 l 622 -7 b 724 22 657 -7 696 3 b 790 90 744 38 779 74 b 814 175 810 117 814 147 z m 439 421 b 440 429 439 421 439 426 b 486 474 450 446 469 464 b 493 475 489 475 490 475 l 621 475 b 628 474 624 475 625 475 b 674 429 644 464 665 443 l 675 421 l 675 168 b 629 128 674 157 642 135 b 621 125 626 126 624 125 l 493 125 b 485 126 488 125 485 126 b 439 168 468 136 439 157 z "},"ґ":{"ha":571,"x_min":0,"x_max":0,"o":"m 478 474 l 478 715 l 343 715 l 343 600 l 60 600 l 60 0 l 199 0 l 199 468 l 476 468 l 476 474 z "},"Љ":{"ha":1254,"x_min":0,"x_max":0,"o":"m 1108 376 b 1035 451 1100 392 1056 436 b 938 482 1010 468 972 482 l 690 482 l 690 831 l 117 831 l 117 197 b 47 132 117 189 57 131 l -47 132 l -47 -7 l 54 -7 b 140 18 83 -7 117 4 b 239 117 169 35 222 93 b 263 196 256 142 263 169 l 263 690 l 544 690 l 544 0 l 938 0 b 1035 31 974 0 1008 11 b 1108 106 1056 44 1099 90 b 1132 189 1126 132 1132 160 l 1132 293 b 1108 376 1132 324 1126 350 z m 985 183 b 936 138 975 163 949 138 l 690 138 l 690 347 l 935 347 b 985 300 947 347 972 322 b 986 293 985 300 986 297 l 986 193 b 985 183 986 188 985 183 z "},"Њ":{"ha":1219,"x_min":0,"x_max":0,"o":"m 1074 376 b 1000 451 1065 392 1021 436 b 903 482 975 468 938 482 l 656 482 l 656 831 l 510 831 l 510 482 l 207 482 l 207 831 l 61 831 l 61 0 l 207 0 l 207 343 l 510 343 l 510 0 l 903 0 b 1000 31 939 0 974 11 b 1074 106 1021 44 1064 90 b 1097 189 1092 132 1097 160 l 1097 293 b 1074 376 1097 324 1092 350 z m 950 182 b 901 136 940 161 914 136 l 656 136 l 656 346 l 900 346 b 950 299 913 346 938 321 b 951 292 950 299 951 296 l 951 192 b 950 182 951 186 950 182 z "},"љ":{"ha":1099,"x_min":0,"x_max":0,"o":"m 615 600 l 103 600 l 103 172 b 101 165 103 169 101 165 b 57 118 92 146 72 128 b -12 115 57 118 54 117 l -12 -15 l 50 -15 b 149 14 83 -15 121 -6 b 218 82 171 29 207 67 b 243 169 236 108 243 139 l 243 468 l 475 468 l 475 -7 l 807 -7 b 907 24 842 -7 879 4 b 972 89 928 39 961 74 b 997 174 990 114 997 143 l 997 199 b 972 283 997 229 990 258 b 907 349 961 299 928 333 b 807 379 879 368 842 379 l 615 379 z m 615 249 l 806 249 b 815 246 810 249 814 247 b 857 201 831 236 847 218 b 858 197 857 201 858 199 l 858 175 b 857 171 858 174 857 171 b 814 128 847 154 829 138 b 806 125 814 128 808 125 l 615 125 z "},"њ":{"ha":1056,"x_min":0,"x_max":0,"o":"m 432 600 l 432 381 l 200 381 l 200 600 l 60 600 l 60 0 l 200 0 l 200 249 l 432 249 l 432 -7 l 764 -7 b 864 24 799 -7 836 4 b 929 89 885 39 918 74 b 954 174 947 114 954 143 l 954 199 b 929 283 954 229 947 258 b 864 349 918 299 885 333 b 764 379 836 368 799 379 l 572 379 l 572 600 z m 572 249 l 763 249 b 772 246 767 249 771 247 b 814 201 788 236 804 218 b 815 197 814 201 815 199 l 815 175 b 814 171 815 174 814 171 b 771 128 804 154 786 138 b 763 125 771 128 765 125 l 572 125 z "},"Ћ":{"ha":843,"x_min":0,"x_max":0,"o":"m 589 0 l 728 0 l 728 424 b 703 508 728 454 721 482 b 636 576 692 524 658 561 b 536 607 610 596 569 607 l 436 607 b 356 575 407 607 379 590 l 356 692 l 542 692 l 542 831 l 24 831 l 24 692 l 210 692 l 210 0 l 356 0 l 356 414 b 439 475 372 435 421 475 l 535 475 b 543 474 539 475 542 475 b 588 428 558 464 578 444 b 589 421 588 428 589 425 z "},"ћ":{"ha":676,"x_min":0,"x_max":0,"o":"m 365 656 l 365 778 l 188 778 l 188 831 l 49 831 l 49 778 l -17 778 l -17 656 l 49 656 l 49 0 l 188 0 l 188 413 b 272 475 204 433 254 475 l 368 475 b 376 474 372 475 375 475 b 421 428 392 464 411 444 b 422 421 421 428 422 425 l 422 0 l 561 0 l 561 424 b 536 508 561 454 554 482 b 469 576 525 524 492 561 b 369 607 443 596 403 607 l 269 607 b 188 574 240 607 211 590 l 188 656 z "},"Ђ":{"ha":843,"x_min":0,"x_max":0,"o":"m 419 125 l 419 -7 l 536 -7 b 635 22 569 -7 607 3 b 703 90 657 38 692 75 b 728 178 721 117 728 147 l 728 424 b 703 508 728 454 721 482 b 636 576 692 524 658 561 b 536 607 610 596 569 607 l 436 607 b 356 575 407 607 379 590 l 356 692 l 542 692 l 542 831 l 24 831 l 24 692 l 210 692 l 210 0 l 356 0 l 356 414 b 439 475 372 435 421 475 l 535 475 b 543 474 539 475 542 475 b 588 428 558 464 578 444 b 589 421 588 428 589 425 l 589 181 b 588 174 589 178 588 174 b 543 126 578 154 558 136 b 535 125 543 126 540 125 z "},"ђ":{"ha":676,"x_min":0,"x_max":0,"o":"m 365 656 l 365 778 l 188 778 l 188 831 l 49 831 l 49 778 l -17 778 l -17 656 l 49 656 l 49 0 l 188 0 l 188 413 b 272 475 204 433 254 475 l 368 475 b 376 474 372 475 375 475 b 421 428 392 464 411 444 b 422 421 421 428 422 425 l 422 -42 b 421 -49 422 -44 421 -49 b 376 -96 411 -68 392 -86 b 368 -97 376 -96 374 -97 l 253 -97 l 253 -229 l 369 -229 b 468 -200 403 -229 440 -219 b 536 -132 490 -185 525 -147 b 561 -44 554 -106 561 -75 l 561 424 b 536 508 561 454 554 482 b 469 576 525 524 492 561 b 369 607 443 596 403 607 l 269 607 b 188 574 240 607 211 590 l 188 656 z "},"Ў":{"ha":722,"x_min":0,"x_max":0,"o":"m 385 1058 b 322 992 385 1022 358 992 b 257 1058 286 992 257 1022 l 176 1058 b 322 914 176 978 244 914 b 465 1058 400 914 465 978 z m 658 831 l 508 831 l 321 374 l 142 831 l -14 831 l 232 221 l 261 221 l 174 0 l 315 0 z "},"ў":{"ha":597,"x_min":0,"x_max":0,"o":"m 329 828 b 267 761 329 792 303 761 b 201 828 231 761 201 792 l 121 828 b 267 683 121 747 189 683 b 410 828 344 683 410 747 z m 590 600 l 443 600 l 301 193 l 161 600 l 6 600 l 226 0 l 239 0 l 156 -225 l 296 -225 z "},"џ":{"ha":688,"x_min":0,"x_max":0,"o":"m 383 -131 l 383 0 l 572 0 l 572 600 l 433 600 l 433 132 l 199 132 l 199 600 l 60 600 l 60 0 l 247 0 l 247 -131 z "},"Џ":{"ha":776,"x_min":0,"x_max":0,"o":"m 415 -131 l 415 0 l 638 0 l 638 831 l 492 831 l 492 139 l 207 139 l 207 831 l 61 831 l 61 0 l 279 0 l 279 -131 z "},"№":{"ha":1232,"x_min":0,"x_max":0,"o":"m 649 0 l 649 831 l 503 831 l 503 272 l 218 831 l 61 831 l 61 0 l 207 0 l 207 551 l 494 0 z m 1133 524 l 1133 701 b 1115 768 1133 724 1131 747 b 1064 819 1106 781 1079 807 b 986 843 1042 833 1013 843 l 897 843 b 821 819 871 843 842 833 b 768 768 804 807 778 781 b 750 701 753 747 750 724 l 750 524 b 768 457 750 501 753 478 b 821 406 778 444 804 418 b 897 382 842 392 871 382 l 986 382 b 1064 406 1013 382 1042 392 b 1115 457 1079 418 1106 444 b 1133 524 1131 478 1133 501 z m 1018 690 l 1018 535 b 1017 528 1018 533 1018 529 b 985 497 1010 519 996 504 b 978 496 983 496 979 496 l 906 496 b 899 497 904 496 900 496 b 867 528 888 504 874 518 b 865 535 865 531 865 535 l 865 690 b 867 697 865 690 865 694 b 899 728 874 707 888 721 b 906 729 900 729 904 729 l 978 729 b 985 728 979 729 983 729 b 1017 697 996 721 1010 706 b 1018 690 1018 696 1018 692 z "}}}
